<svg class="h-16 w-16" fill="currentColor" stroke="none" viewBox="0 0 85.83 79.999" xmlns="http://www.w3.org/2000/svg">
 <path d="m34.508 79.809c-1.4462-0.52259-2.4705-1.5353-2.8336-2.8016-0.25597-0.89252-0.217-21.811 0.0423-22.679 0.12591-0.42168 0.53321-1.0259 1.0476-1.5541 1.2808-1.3152 1.7102-1.3986 7.1996-1.3986l4.5372 3e-5 -0.0486-11.021c-0.0351-7.9687 5e-3 -11.216 0.14553-11.726 0.26421-0.95998 1.2179-2.0244 2.2404-2.5006l0.84742-0.3946 22.004-4e-3 0.89607 0.46812c1.0171 0.53133 1.8952 1.568 2.1595 2.5494 0.1179 0.43786 0.16133 4.3149 0.13027 11.631l-0.0466 10.975 4.8609 0.0536c5.3475 0.0589 5.4698 0.0799 6.6849 1.1468 0.34444 0.30242 0.79152 0.85872 0.99352 1.2362l0.36727 0.68643v11.23c0 10.631-0.0167 11.262-0.3121 11.817-0.43566 0.81893-1.2442 1.6407-2.0346 2.068-0.6681 0.36117-0.70993 0.36245-11.817 0.36245h-11.147l-0.92699-0.46973-0.92698-0.46973-1.666 0.93946-10.895 0.037c-8.6242 0.0293-11.022-9e-3 -11.502-0.18215zm21.966-2.8658c0.26083-0.13488 0.52108-0.36733 0.57835-0.51657 0.0573-0.14923 0.10412-5.0104 0.10412-10.803v-10.531l-0.51572-0.43395c-0.47449-0.39925-0.64123-0.43394-2.0857-0.43394h-1.5699l-0.0515 4.7352c-0.0501 4.6051-0.0621 4.7523-0.43707 5.3554-0.51436 0.82722-1.3695 1.3352-2.2708 1.3488-0.39813 6e-3 -1.5662-0.19802-2.5956-0.45342l-1.8718-0.46436-1.846 0.45797c-2.1099 0.52343-2.9232 0.55733-3.7668 0.157-1.4119-0.67001-1.5927-1.4454-1.5939-6.8361l-1e-3 -4.3319-1.6631 0.0576c-1.4867 0.0515-1.7089 0.10069-2.0952 0.46397l-0.4321 0.40636 5e-3 10.573c4e-3 8.0481 0.0541 10.636 0.20952 10.836 0.49614 0.64047 0.62452 0.64799 11.15 0.65321 8.6971 4e-3 10.348-0.0326 10.749-0.24013zm26.006-0.24474 0.48996-0.48996v-20.959l-0.40417-0.47029c-0.39439-0.45893-0.44605-0.4703-2.1371-0.4703h-1.733l-0.0838 4.8071c-0.0788 4.5227-0.10426 4.8345-0.42941 5.2696-1.0245 1.3711-1.8275 1.5227-4.5761 0.86371l-2.1328-0.51133-2.0681 0.49983c-2.9041 0.70188-3.8459 0.47436-4.664-1.1267-0.36387-0.7121-0.37714-0.89911-0.37714-5.3121v-4.574h-1.5169c-1.7206 0-2.3513 0.22765-2.6538 0.95787-0.14284 0.34485-0.1828 3.2435-0.14933 10.834l0.0457 10.363 0.9406 0.80894h20.959zm-38.9-14.344c0.87581-0.22678 1.8564-0.41233 2.179-0.41233 0.32267 0 1.3032 0.18555 2.179 0.41233 2.4463 0.63345 2.1919 1.0869 2.14-3.8133l-0.0448-4.2324h-8.5486l-0.0448 4.2324c-0.0518 4.9002-0.30632 4.4468 2.14 3.8133zm25.783-5e-4c1.9308-0.51728 2.3887-0.51723 4.3879 5e-4 0.87581 0.22678 1.6867 0.41384 1.8019 0.41569 0.16223 3e-3 0.20952-0.96145 0.20952-4.2709v-4.2743h-8.5486v4.2743c0 4.9452-0.24961 4.4975 2.1492 3.8548zm0.28885-11.39 0.41143-0.41142v-21.15l-0.41143-0.41143c-0.3848-0.3848-0.52581-0.41143-2.179-0.41143h-1.7676l-6.8e-4 4.7352c-5e-4 4.4294-0.0221 4.7705-0.3337 5.2815-0.38575 0.63268-1.1888 1.168-1.9752 1.3166-0.36038 0.0681-1.2675-0.0759-2.6352-0.41846l-2.0856-0.52231-2.1423 0.52921c-2.4185 0.59747-3.0593 0.57263-3.9205-0.152-1.0749-0.90449-1.1466-1.2962-1.1507-6.286l-4e-3 -4.4838h-1.6536c-1.4191 0-1.7162 0.0493-2.0952 0.34741l-0.44165 0.3474v21.407l0.44165 0.3474c0.43618 0.3431 0.57237 0.3474 10.987 0.3474h10.545zm-12.973-14.429 1.9527-0.47363 2.1102 0.50722c1.1606 0.27897 2.1488 0.46866 2.1959 0.42153 0.0471-0.0471 0.0857-1.9588 0.0857-4.2482v-4.1625h-8.7162v4.2922c0 3.3634 0.0453 4.2754 0.20952 4.2146 0.11524-0.0427 1.0882-0.29071 2.1622-0.55121zm-50.761 31.921c-1.9134-0.31939-3.8427-1.6516-4.8646-3.3592-1.1041-1.8449-1.055-0.73521-1.0522-23.772 3e-3 -22.978-0.0398-21.994 1.0369-24.014 1.0796-2.0254 1.3844-2.2394 13.795-9.683 6.326-3.7941 11.931-7.0625 12.455-7.263 0.95306-0.36439 0.96353-0.36464 15.62-0.36464h14.667l0.96293 0.36781c0.52961 0.2023 6.1358 3.4719 12.458 7.2658 12.704 7.6231 12.829 7.713 13.889 9.948 0.31096 0.65542 0.64812 1.5914 0.74925 2.0799 0.26707 1.2901 0.25665 27.576-0.0111 28.079-0.48045 0.90209-1.568 1.0705-2.2388 0.34664l-0.40642-0.43853-0.0465-13.851-0.0465-13.851-0.4662-0.94934c-0.25641-0.52213-0.76018-1.2433-1.1195-1.6026-0.93099-0.93099-22.77-14.01-23.982-14.362-0.81271-0.23626-2.1113-0.26432-10.476-0.22639l-9.5485 0.0433 9.6381 5.7796c8.1711 4.8999 9.7952 5.9374 10.67 6.8162 1.5521 1.5586 2.3907 3.5166 2.3998 5.6034 3e-3 0.77094-0.0658 1.0003-0.39518 1.3097-0.44359 0.41673-1.1836 0.50523-1.7391 0.20797-0.37425-0.2003-0.53913-0.66787-0.86149-2.4431-0.20567-1.1326-1.0292-2.5081-1.895-3.165-0.30402-0.23066-5.5856-3.4372-11.737-7.1256-12.057-7.2298-12.055-7.2286-13.987-7.0016-0.48465 0.057-1.0914 0.19295-1.3484 0.3022-0.25698 0.10925-5.4954 3.2096-11.641 6.8896-6.8953 4.1291-11.436 6.9512-11.86 7.3704-0.37744 0.37371-0.89329 1.101-1.1463 1.6163l-0.46008 0.93683v42.769l0.50645 0.81918c1.0531 1.7034 2.4625 2.3138 5.1279 2.2207l1.4057-0.049 0.0856-28.948-0.44104-0.34692c-0.87413-0.68759-1.062-1.4506-1.062-4.3123 0-3.3674 0.29145-4.1074 1.8791-4.7707 0.90811-0.37943 29.552-0.39135 30.284-0.0126 0.81412 0.421 0.94928 1.5146 0.27103 2.1929l-0.41143 0.41142h-29.181v4.3581h29.181l0.41143 0.41142c0.50669 0.50669 0.54794 1.3943 0.091 1.9586l-0.32039 0.39571-27.854 0.0894v2.8438h10.418l0.48996 0.48996c0.52394 0.52394 0.60132 0.92604 0.30386 1.5789-0.33412 0.73331-0.70453 0.78065-6.1075 0.78065h-5.1045v2.8495h13.669c14.497 0 14.428-4e-3 14.722 0.76179 0.22376 0.58311 0.0976 1.2714-0.30731 1.6763l-0.41143 0.41143h-27.672v17.265h14.86l0.33947 0.37714c0.48497 0.53878 0.56828 0.88158 0.35968 1.48-0.34964 1.003-0.24871 0.99443-11.489 0.97281-5.6035-0.0108-10.579-0.0849-11.057-0.16469zm21.725-26.119c-0.29537-0.29537-0.48996-0.66663-0.48996-0.93479 0-0.26817 0.19459-0.63943 0.48996-0.9348l0.48996-0.48996h12.445l0.41143 0.41143c0.28406 0.28405 0.41143 0.59776 0.41143 1.0133 0 0.41556-0.12737 0.72927-0.41143 1.0133l-0.41143 0.41142h-12.445zm-5.7776-28.584c-0.46616-0.46617-0.5372-1.1782-0.16985-1.7027 0.38497-0.54962 7.8218-4.9259 8.3709-4.9259 0.49898 0 7.8612 4.3065 8.261 4.8322 0.35838 0.4713 0.2727 1.4328-0.16427 1.8433-0.73392 0.68948-1.2264 0.5225-4.808-1.6303l-3.3187-1.9948-3.3274 1.9941c-3.6432 2.1833-4.0962 2.3315-4.8436 1.5841z" />
</svg>
