<svg class="h-16 w-16" fill="currentColor" stroke="none" viewBox="0 0 80 80" xmlns="http://www.w3.org/2000/svg">
 <path d="m7.2471 79.834c-0.42867-0.0817-1.3669-0.42395-2.085-0.76045-2.5391-1.1898-4.5563-3.8232-5.0234-6.5579-0.12319-0.72119-0.16007-7.5446-0.12715-23.522 0.0434-21.082 0.064-22.565 0.32578-23.444 0.68697-2.3056 2.1363-4.4621 3.8792-5.7723 1.3798-1.0372 30.667-18.563 31.709-18.975 1.1808-0.46675 2.8548-0.80054 4.0312-0.80379 1.1866-3e-3 3.1063 0.37355 4.1743 0.81937 0.42981 0.17941 7.7059 4.4754 16.169 9.5466 13.785 8.2601 15.495 9.3275 16.415 10.249 1.6374 1.6386 2.5595 3.3645 3.0396 5.6891 0.21601 1.0457 0.24522 3.8191 0.24522 23.28 0 15.197-0.0529 22.382-0.16944 23.02-0.6227 3.4081-3.6036 6.4685-7.0021 7.1888-0.86903 0.18419-6.1192 0.21679-32.918 0.20438-19.445-9e-3 -32.188-0.0728-32.663-0.1634zm6.0153-23.77v-21.297l-0.76937-0.27325c-0.87573-0.31102-1.4892-0.95051-1.7245-1.7977-0.0888-0.31968-0.15873-1.5659-0.15544-2.7693 8e-3 -2.963 0.28624-3.698 1.6334-4.3166 0.59903-0.27508 1.7594-0.28709 27.742-0.28709s27.143 0.012 27.742 0.28709c1.3471 0.61857 1.6252 1.3536 1.6334 4.3166 3e-3 1.2034-0.0667 2.4496-0.15544 2.7693-0.23529 0.84716-0.84873 1.4866-1.7245 1.7977l-0.76936 0.27325v42.624l5.7219-0.108 1.1778-0.58232c1.44-0.71197 2.4608-1.752 3.1524-3.2119l0.49779-1.0508v-45.637l-0.4123-1.1278c-0.50479-1.3808-1.6171-2.9746-2.6025-3.7288-1.4705-1.1257-30.579-18.476-31.606-18.839-1.4142-0.49996-3.8713-0.50905-5.2524-0.0194-0.55618 0.19718-7.3232 4.1502-16.174 9.4482-16.158 9.6717-16.336 9.7904-17.386 11.582-0.24069 0.41069-0.59092 1.1477-0.77827 1.6378l-0.34064 0.89111-0.0429 22.428c-0.028 14.663 0.0117 22.684 0.11485 23.167 0.37814 1.7715 1.6505 3.4548 3.2595 4.3124 1.2959 0.69068 1.7985 0.77595 4.6786 0.79375l2.5398 0.0157zm15.641-43.194c-0.43274-0.55012-0.42046-1.3193 0.0277-1.7367 0.6003-0.559 8.7121-5.3403 9.3954-5.5379 0.82967-0.23988 2.4952-0.23991 3.3247-6e-5 0.84337 0.24385 9.1902 5.2414 9.5052 5.6912 0.33458 0.47767 0.30269 1.0946-0.0818 1.5834-0.62979 0.80062-1.0019 0.65994-5.7092-2.1582-4.6072-2.7582-5.0806-2.9519-6.2397-2.5526-0.34409 0.11855-2.4643 1.3196-4.7116 2.6691-4.49 2.6961-4.8817 2.8412-5.5106 2.0417zm-8.8881 56.894c-0.051-8.4018-0.0443-8.4716 0.93498-9.6595 0.27261-0.33071 0.8523-0.76735 1.2882-0.97033 0.75142-0.34989 0.95881-0.36912 3.9966-0.37056l3.204-2e-3v-16.02l0.43348-0.73739c0.48604-0.82682 1.4497-1.5642 2.3828-1.8232 0.85862-0.23837 14.608-0.23837 15.467 0 0.9331 0.25904 1.8968 0.9964 2.3828 1.8232l0.43347 0.73743v16.02l3.204 2e-3c3.0378 1e-3 3.2452 0.0207 3.9966 0.37057 0.4359 0.20297 1.0156 0.63962 1.2882 0.97033 0.97924 1.188 0.986 1.2577 0.93497 9.6595l-0.0461 7.5967 4.1418-1.4e-4v-42.667h-48.139v42.667l4.1418 1.4e-4zm18.171 7.2255c0.22254-0.22253 0.41111-0.64488 0.47101-1.055 0.055-0.37612 0.0782-3.6186 0.0516-7.2056l-0.0483-6.5217-0.41421-0.41404c-0.34714-0.34699-0.56227-0.41714-1.3285-0.43319l-0.9143-0.0191-0.0781 3.1334c-0.0685 2.7479-0.11515 3.1898-0.37891 3.5917-0.44352 0.67583-0.86627 0.97296-1.6529 1.1617-0.85134 0.20428-1.4472 0.0567-2.5004-0.61907l-0.75083-0.4818-0.75547 0.47909c-1.4089 0.89344-2.5507 0.93546-3.5728 0.13148-0.87005-0.68436-1.0095-1.3096-1.0132-4.5442l-3e-3 -2.9304-0.50796 9.4e-4c-0.80772 1e-3 -1.6507 0.29495-1.91 0.66514-0.206 0.29404-0.23905 1.321-0.23905 7.4297v7.0884l0.45687 0.45685 0.45685 0.45684h14.261zm18.695-0.0857 0.45686-0.45685v-7.0884c0-6.1086-0.0331-7.1356-0.23905-7.4297-0.2593-0.3702-1.1023-0.66376-1.91-0.66515l-0.50796-9.4e-4 -3e-3 2.9304c-4e-3 3.2346-0.14321 3.8598-1.0132 4.5442-1.0208 0.80297-2.1641 0.76186-3.5677-0.12827l-0.7504-0.47588-0.94563 0.58366c-1.1929 0.73628-2.2643 0.80643-3.141 0.20567-1.0507-0.71994-1.1195-0.97388-1.2065-4.4558l-0.0781-3.1258-0.91429 0.0191c-0.76624 0.0161-0.98137 0.0862-1.3285 0.43319l-0.41421 0.41404-0.0483 6.5217c-0.0266 3.587-3e-3 6.8295 0.0516 7.2056 0.0599 0.41007 0.24848 0.83243 0.47101 1.055l0.37111 0.37117h14.261l0.45686-0.45684zm-27.84-10.878c1.2794-0.81502 2.0645-0.76005 3.7152 0.2601l0.51197 0.31641v-5.3469l-2.6179 0.0429-2.6179 0.0428-0.0428 2.6179c-0.0236 1.4398 0.0116 2.6161 0.0781 2.6139 0.0666-2e-3 0.50457-0.24835 0.97337-0.54701zm18.574 0.0505c0.5522-0.37991 0.93556-0.51449 1.5911-0.55855 0.76817-0.0516 0.96504 4e-3 1.7812 0.50051 0.5047 0.3072 0.94597 0.55854 0.98062 0.55854 0.0346 0 0.0437-1.178 0.0201-2.6179l-0.0429-2.6178-2.6179-0.0428-2.6179-0.0429v2.6607c0 1.4634 0.0401 2.6607 0.0891 2.6607s0.41643-0.22522 0.81655-0.5005zm-0.0323-7.8307 0.37708-0.43851v-7.0897c0-3.8993-0.0437-7.2036-0.0971-7.3427-0.1552-0.40444-0.91767-0.7103-1.7707-0.7103h-0.78923l-3e-3 3.0086c-2e-3 2.8309-0.0234 3.0453-0.35485 3.6306-0.4517 0.79752-1.3692 1.3257-2.3088 1.3291-0.54002 2e-3 -0.93244-0.12986-1.621-0.54444-0.49964-0.30086-0.96173-0.54702-1.0269-0.54702-0.0651 0-0.52722 0.24616-1.0269 0.54702-0.6885 0.41458-1.0809 0.54639-1.621 0.54444-0.93957-3e-3 -1.8571-0.53156-2.3088-1.3291-0.33146-0.58523-0.35243-0.7997-0.35484-3.6306l-3e-3 -3.0086h-0.78923c-0.85301 0-1.6155 0.30586-1.7707 0.7103-0.0534 0.13916-0.0971 3.4378-0.0971 7.3304 0 6.864 0.01 7.0894 0.3157 7.4787 0.17364 0.22073 0.47255 0.433 0.66425 0.4717s3.4669 0.061 7.2782 0.0495l6.9297-0.0208zm-8.7006-11.162c0.37991-0.19537 0.8779-0.35522 1.1066-0.35522 0.4114 0 1.395 0.4409 2.2272 0.99836l0.42981 0.28791v-5.3498h-5.314v5.3498l0.42981-0.28791c0.23639-0.15835 0.74064-0.44776 1.1205-0.64314zm27.833-17.078v-2.0318h-53.453v4.0635h53.453z" />
</svg>
