<svg class="h-16 w-16" fill="currentColor" stroke="none" viewBox="0 0 80 80" xmlns="http://www.w3.org/2000/svg">
 <path d="m34.4 79.7c-1.77-0.641-3.25-2.32-3.61-4.1l-0.12-0.588-1-0.0368c-2.75-0.101-4.95-2.09-5.28-4.78l-0.111-0.905-0.823-0.102c-1.19-0.148-2.39-0.806-3.3-1.81-0.965-1.07-1.43-2.24-1.43-3.62v-1l-0.655-0.106c-2.08-0.338-4.01-2.52-4.28-4.85-0.131-1.13 0.248-2.69 0.874-3.6 0.256-0.373 0.466-0.749 0.466-0.836s-1.54-2.26-3.42-4.83l-3.42-4.67-4.08-3.56c-4.34-3.79-4.51-4-4.11-4.99 0.253-0.63 15.2-19.2 15.6-19.5 0.224-0.12 0.597-0.174 0.849-0.122 0.248 0.0502 2.47 1.4 4.94 2.99l4.49 2.9 4.4 1.22c2.42 0.674 4.53 1.22 4.7 1.22 0.169 0 2.25-0.57 4.62-1.27l4.32-1.27 11.5-5.88e-4 4.44-2.87c2.44-1.58 4.66-2.9 4.92-2.94 0.301-0.0452 0.636 0.0337 0.901 0.213 0.492 0.332 13.9 18 14.1 18.5 0.285 0.915 0.066 1.17-4.1 4.8l-4.01 3.49-5.08 10.8 0.293 0.582c1.67 3.31-0.561 7.61-4.17 8.05l-0.798 0.0958-0.159 0.914c-0.425 2.45-2.39 4.42-4.67 4.69l-0.798 0.0958-0.159 0.914c-0.425 2.45-2.39 4.42-4.67 4.69l-0.798 0.0958-0.159 0.914c-0.711 4.09-5.15 6.05-8.53 3.76-0.423-0.287-0.858-0.589-0.966-0.672-0.139-0.107-0.429 0.0705-0.993 0.605-1.59 1.51-3.89 2.07-5.74 1.4zm2.7-3.05c0.57-0.22 2.8-2.44 3.1-3.09 0.985-2.1-1.07-4.3-3.11-3.32-0.85 0.409-2.99 2.75-3.19 3.48-0.513 1.95 1.33 3.64 3.19 2.92zm8.92-0.639c1.15-0.442 1.77-1.66 1.45-2.88-0.145-0.551-0.572-1.08-2.34-2.89-1.19-1.22-2.23-2.4-2.31-2.62-0.369-0.994 0.368-2.05 1.43-2.05 0.605 0 0.734 0.101 2.99 2.36 1.94 1.94 2.47 2.38 2.94 2.47 1.88 0.358 3.39-1.18 2.91-2.97-0.152-0.576-0.731-1.24-3.99-4.57l-3.81-3.9v-0.707c0-0.979 0.583-1.56 1.57-1.56h0.691l3.83 3.95c3.33 3.43 3.91 3.97 4.42 4.06 0.942 0.17 1.68-0.0524 2.32-0.696 0.742-0.752 0.917-1.63 0.508-2.54-0.188-0.42-2.1-2.49-5.64-6.12-3.04-3.12-5.39-5.65-5.45-5.87-0.252-1.02 0.484-1.97 1.53-1.98l0.671-0.0049 5.55 5.7c6.01 6.17 5.88 6.07 7.3 5.8 0.815-0.155 1.69-1.08 1.84-1.93 0.216-1.29 0.167-1.35-9.94-11.6l-9.43-9.53-3.44-0.247c-3.08-0.221-3.46-0.222-3.62-0.0049-0.1 0.133-1.07 1.84-2.16 3.79-2.14 3.84-2.75 4.62-4.14 5.29-0.747 0.357-1.06 0.411-2.42 0.409-1.4-0.0016-1.65-0.0465-2.39-0.441-1.84-0.977-2.86-2.57-2.97-4.63-0.0377-0.697 0.0078-1.55 0.101-1.9s1.58-3.16 3.3-6.24 3.13-5.67 3.13-5.73-0.264-0.199-0.586-0.289c-0.322-0.0898-1.34-0.371-2.26-0.624l-1.67-0.461-7.2 8.9c-3.96 4.89-7.19 8.97-7.19 9.05 0.0097 0.131 5.36 7.58 5.8 8.08 0.0886 0.1 0.233 0.0864 0.406-0.0382 1.07-0.765 1.87-1.05 3.16-1.11 1.09-0.0545 1.49-5e-3 2.23 0.277 1.57 0.602 3.07 2.3 3.38 3.83l0.0932 0.461 1.41 0.0369c1.19 0.0312 1.54 0.106 2.27 0.48 0.973 0.502 1.74 1.19 2.27 2.02 0.409 0.647 0.856 2.05 0.856 2.69 0 0.398 0.0578 0.436 0.829 0.533 1.81 0.229 3.51 1.51 4.29 3.23 0.331 0.728 0.415 1.16 0.432 2.24l0.0215 1.33 0.708 0.209c1.58 0.466 3.11 1.98 3.62 3.57 0.341 1.07 0.323 2.62-0.0415 3.6-0.293 0.782-0.293 0.785 0.0391 1.1 0.802 0.761 1.79 0.996 2.71 0.644zm-15.6-4.27c0.406-0.114 1.17-0.792 2.92-2.57 1.99-2.03 2.38-2.52 2.48-3.03 0.316-1.72-1.15-3.2-2.84-2.88-0.502 0.0948-0.971 0.484-2.84 2.36-1.23 1.23-2.34 2.44-2.46 2.67-0.122 0.235-0.222 0.788-0.222 1.23 0 0.696 0.0731 0.882 0.565 1.43 0.485 0.545 1.1 0.884 1.7 0.936 0.0859 0.0074 0.404-0.0565 0.707-0.142zm-5.19-5.93c0.232-0.124 1.42-1.25 2.63-2.5 2.34-2.41 2.57-2.78 2.34-3.95-0.281-1.43-2.04-2.34-3.27-1.71-0.488 0.251-4.62 4.41-4.88 4.93-0.54 1.03-0.113 2.51 0.908 3.14 0.601 0.372 1.67 0.414 2.27 0.0912zm-5.27-6.27c0.832-0.234 3.36-2.89 3.51-3.69 0.151-0.815-0.0239-1.6-0.476-2.15-0.526-0.634-1.18-0.872-2.12-0.78-0.759 0.0739-0.859 0.143-2.27 1.56-1.67 1.69-1.95 2.25-1.64 3.31 0.249 0.844 0.746 1.39 1.5 1.67 0.762 0.273 0.799 0.275 1.49 0.0796zm46.6-13c1.14-2.43 2.08-4.47 2.08-4.54 0.0012-0.0607-3.01-3.99-6.68-8.72l-6.68-8.61h-10.8l-5.6 1.64c-3.08 0.904-5.65 1.71-5.72 1.78-0.0692 0.0763-1.45 2.49-3.07 5.37l-2.94 5.23-0.0067 1.07c-0.0064 1.02 0.0177 1.09 0.568 1.65 0.489 0.496 0.701 0.593 1.42 0.654 1 0.0843 1.64-0.191 2.19-0.954 0.207-0.283 1.38-2.31 2.6-4.5 1.84-3.29 2.31-4.02 2.69-4.18 0.377-0.158 1.33-0.134 5.04 0.13 2.52 0.179 4.71 0.399 4.87 0.49 0.161 0.0906 4.23 4.16 9.04 9.05 4.81 4.88 8.79 8.88 8.84 8.88 0.0505 0 1.03-1.99 2.17-4.42zm-50.3-14.6c3.72-4.59 6.75-8.4 6.75-8.46-4e-3 -0.0659-1.39-1-3.07-2.08-2.07-1.32-3.13-1.92-3.26-1.82-0.247 0.177-12.7 15.8-12.8 16-0.054 0.198 5.22 4.79 5.43 4.72 0.0859-0.0286 3.2-3.81 6.91-8.39zm57.3 5.17c1.46-1.28 2.66-2.38 2.66-2.45 0-0.169-11.4-15.2-11.5-15.2-0.234-0.0119-6.14 3.91-6.14 4.07 0 0.194 12.1 15.9 12.3 15.9 0.0507 0 1.29-1.05 2.75-2.32zm-42.8-18.9c-0.258-0.165-2.91-2.78-5.89-5.82-3.69-3.76-5.45-5.67-5.53-5.97-0.243-1 0.804-2.09 1.82-1.9 0.272 0.0526 2.3 2 6.17 5.92 5.71 5.8 5.76 5.85 5.76 6.5 0 0.536-0.0905 0.735-0.507 1.11-0.592 0.536-1.16 0.586-1.83 0.159zm8.53 0.0794c-0.76-0.427-0.787-0.628-0.793-5.92l-0.0055-4.95 0.453-0.514c0.375-0.425 0.566-0.514 1.11-0.514s0.735 0.0886 1.11 0.514l0.453 0.514v4.9c0 3.46-0.0548 5.02-0.187 5.32-0.342 0.761-1.38 1.07-2.14 0.646zm8.23-0.238c-0.416-0.377-0.507-0.576-0.507-1.11 0-0.647 0.0485-0.702 5.76-6.5 3.87-3.92 5.9-5.87 6.17-5.92 1.02-0.197 2.06 0.892 1.82 1.9-0.12 0.497-10.8 11.5-11.5 11.9-0.641 0.344-1.16 0.274-1.72-0.233zm-8.23-15.1c-1.35-0.761-0.788-2.95 0.764-2.95 0.792 0 1.56 0.774 1.56 1.57 0 1.19-1.3 1.96-2.33 1.38z" />
</svg>
