<svg class="h-16 w-16" fill="currentColor" stroke="none" viewBox="0 0 80 80" xmlns="http://www.w3.org/2000/svg">
<path d="m71.732 79.788c-1.8097-0.49283-1.8318-0.51251-12.297-10.944l-10.03-9.9979-1.2281 0.72024c-3.6869 2.1622-8.082 3.6521-12.319 4.1758-2.0625 0.25498-6.2662 0.21357-8.2846-0.08159-12.215-1.7863-22.116-10.06-25.936-21.674-2.0477-6.2249-2.1757-12.588-0.37934-18.857 3.2626-11.385 12.722-20.128 24.327-22.484 10.467-2.1252 21.264 1.0662 28.793 8.5105 6.1686 6.0994 9.5379 14.13 9.5379 22.732 0 5.7377-1.3265 10.879-4.0724 15.784l-0.96196 1.7184 9.9989 10.028c10.937 10.968 10.646 10.629 11.031 12.873 0.78031 4.557-3.7446 8.7039-8.1794 7.4962zm2.7946-2.6889c2.1195-0.62963 3.2982-2.9396 2.5978-5.0908-0.25647-0.78765-0.71912-1.2888-7.1293-7.7224l-6.855-6.8801-5.7095 5.7072 6.5646 6.5775c3.6105 3.6176 6.8693 6.759 7.2417 6.9808 1.1561 0.68849 2.0299 0.80213 3.2898 0.42786zm-38.669-16.044c0.77376-0.09017 2.2429-0.37358 3.2648-0.62979 8.2367-2.0651 15.101-7.5386 18.985-15.138 6.7777-13.262 2.5268-29.494-9.8907-37.766-8.6923-5.7906-19.685-6.5026-29.084-1.8837-14.551 7.1505-20.593 24.607-13.533 39.099 4.0706 8.3556 11.703 14.25 20.75 16.026 3.0346 0.59564 6.0984 0.68988 9.5084 0.29247zm-19.774-9.2568c-0.38687-0.10757-0.96336-0.32096-1.2811-0.47419-0.76361-0.36829-1.9395-1.6428-2.3643-2.5626l-0.34065-0.73762v-32.212l0.42957-0.81515c0.62123-1.1788 1.2266-1.801 2.3395-2.4047l0.98246-0.53291h32.201l0.88944 0.43692c1.148 0.56393 2.3502 1.8677 2.7317 2.9622 0.27075 0.77694 0.28671 1.702 0.28671 16.619v15.796l-0.50954 1.0353c-0.593 1.205-1.4404 2.0319-2.6761 2.6115l-0.87849 0.41205-15.553 0.03041c-12.046 0.02355-15.712-0.01369-16.257-0.16518zm31.653-2.7394c0.74371-0.34163 1.077-0.69034 1.4009-1.4657 0.21071-0.50447 0.24033-2.4271 0.23956-15.553-4.7e-4 -9.3468-0.0587-15.185-0.15478-15.531-0.17461-0.62872-0.95861-1.4567-1.613-1.7035-0.24202-0.09128-1.4526-0.16596-2.6903-0.16596h-2.2502l-0.0904 13.89-0.47544 0.67648c-0.64772 0.92162-1.4913 1.377-2.557 1.3802-0.69644 0.0021-1.432-0.23101-4.2055-1.3329l-3.3614-1.3355-3.3757 1.3511c-3.1658 1.2671-3.4344 1.3474-4.3202 1.291-1.0604-0.06741-1.6702-0.41061-2.3775-1.338l-0.4295-0.56314-0.0874-14.019-2.3791 0.0026c-2.1776 0.0024-2.4318 0.03242-3.0012 0.35501-0.34879 0.19761-0.77684 0.62581-0.97439 0.97472l-0.35232 0.62228-3e-3 15.29c-2e-3 12.64 0.0347 15.377 0.21265 15.793 0.2727 0.63757 1.0127 1.3381 1.5987 1.5135 0.24895 0.07452 7.2406 0.14 15.537 0.1455 14.318 0.0095 15.116-0.0046 15.71-0.27721zm-28.584-4.0955c-0.51235-0.40315-0.56772-1.3249-0.11334-1.8868 0.29363-0.36308 0.3511-0.36993 3.4981-0.41701 3.1935-0.04778 3.2004-0.04715 3.6406 0.33156 0.61398 0.5283 0.61861 1.4022 0.0102 1.9257-0.42185 0.36298-0.49483 0.37065-3.5272 0.37065-2.8959 0-3.1232-0.02099-3.5083-0.32408zm9.0593-18.38c2.968-1.1791 3.4745-1.3359 4.0584-1.2558 0.36694 0.05032 2.09 0.66021 3.8291 1.3553 1.739 0.69512 3.3104 1.2427 3.4919 1.2167 0.32907-0.04699 0.33009-0.06529 0.37075-6.6536l0.0408-6.6065h-15.947v6.5413c0 3.5977 0.0469 6.5882 0.10421 6.6456 0.22624 0.22632 0.78619 0.05456 4.0523-1.2431zm31.059 26.958-1.9864-1.9915-0.46716 0.58227c-0.77134 0.9614-3.5356 3.7444-4.4222 4.452l-0.82826 0.66114 3.9816 3.9918 5.7086-5.7043z" />
</svg>
