<svg class="h-16 w-16" fill="currentColor" stroke="none" viewBox="0 0 80 80" xmlns="http://www.w3.org/2000/svg">
<path d="m38.818 79.75c-8.9902-4.2595-24.387-11.705-24.611-11.901-0.39574-0.34669-0.8833-1.4227-0.88768-1.959l-4e-3 -0.4265-2.9354-0.0495c-2.6883-0.0453-2.9622-0.0762-3.2534-0.36733-0.17487-0.17484-0.3638-0.54681-0.41985-0.82662-0.0856-0.42765-0.0249-0.58561 0.38115-0.99107l0.48304-0.48233h5.7445v-12.797l-4.1709-1.96c-2.294-1.078-4.3932-2.1214-4.6649-2.3186-0.84299-0.61192-1.2083-1.7823-0.90716-2.9064 0.0572-0.21341 2.385-3.2361 5.173-6.7171l5.069-6.3291 2.6502-1.2666c4.4583-2.1307 4.6855-2.218 5.2575-2.0189 0.27381 0.09531 0.56782 0.30388 0.65336 0.46349 0.25273 0.47154 0.18323 1.3475-0.12931 1.6299-0.15667 0.14158-1.2113 0.6963-2.3436 1.2327-1.5582 0.73817-2.0008 1.0117-1.8204 1.1251 0.13109 0.08236 5.122 2.4585 11.091 5.2802l10.853 5.1305 4.3215-2.056c2.3768-1.1308 4.5972-2.1766 4.9341-2.3239l0.61253-0.26786-1.3006-1.6656c-0.8017-1.0267-1.4024-1.6562-1.5659-1.6412-0.1459 0.01339-0.77928 0.20595-1.4075 0.42789-3.5184 1.243-7.5076 1.2706-11.172 0.0775-4.5333-1.4762-8.688-5.2831-10.494-9.6159-1.0118-2.427-1.3114-3.9644-1.3211-6.7798-7e-3 -2.1004 0.051-2.777 0.33758-3.9201 1.0133-4.0416 3.076-7.3148 6.155-9.7666 1.5177-1.2086 4.5244-2.7191 6.3556-3.1931 9.3609-2.4226 18.804 3.0958 21.326 12.463 0.37881 1.407 0.42022 1.8343 0.42022 4.3373 0 2.4991-0.0418 2.9316-0.41781 4.3278-0.49667 1.8441-1.5832 4.2033-2.5748 5.5909l-0.71576 1.0016 1.7662 2.2745c0.97139 1.251 1.8214 2.3351 1.8889 2.4091 0.11001 0.12068 4.4733-1.8057 4.8285-2.1317 0.0819-0.07521-0.79451-0.57808-2.0116-1.1542-2.1877-1.0355-2.5031-1.2982-2.5031-2.0845 0-0.61677 0.24941-0.97645 0.81321-1.1727 0.44633-0.15537 0.66298-0.10346 1.9498 0.46709 0.7962 0.35303 2.4844 1.156 3.7515 1.7844l2.3039 1.1425 4.6637 5.7911c2.565 3.1851 4.871 6.1085 5.1242 6.4964 0.78086 1.1961 0.53755 2.7586-0.55494 3.5638-0.27172 0.20026-2.3709 1.2461-4.6649 2.324l-4.1709 1.96v11.517h6.1838c3.401 0 6.2995 0.0443 6.4409 0.0986 0.37623 0.14416 0.76321 0.98564 0.65369 1.4214-0.0519 0.20635-0.24992 0.51994-0.44012 0.69688-0.33523 0.31186-0.53702 0.32171-6.592 0.32171h-6.2462l-3e-3 1.1503c-4e-3 1.2178-0.32395 2.1862-0.8885 2.6866-0.16571 0.14689-5.8422 2.9235-12.615 6.1702-9.2442 4.4318-12.491 5.9187-13.028 5.9657-0.4821 0.0422-0.92204-0.0355-1.3506-0.23854zm-0.0794-18.048c0-8.9336-0.0584-14.985-0.1444-14.954-0.0794 0.0291-1.8935 2.2358-4.0313 4.9039-4.2538 5.309-4.4465 5.4859-5.8171 5.3413-0.51395-0.0542-2.4912-0.9113-6.6302-2.8739-3.2438-1.5382-5.9437-2.7966-5.9997-2.7966-0.056 0-0.0833 3.282-0.0605 7.2933l0.0413 7.2933 2.4628 1.1925c6.7463 3.2666 19.955 9.5844 20.06 9.5947 0.0655 6e-3 0.11916-6.7412 0.11916-14.995zm13.941 9.6219 11.243-5.3846 0.0413-7.3081c0.0227-4.0195 4e-3 -7.3081-0.0418-7.3081-0.0457 0-2.9525 1.3566-6.4595 3.0145-3.507 1.658-6.5727 3.0145-6.8126 3.0145-0.2399 0-0.58417-0.12494-0.76503-0.27765-0.18086-0.15272-2.1255-2.5267-4.3214-5.2754-2.1959-2.7488-4.0578-5.0216-4.1377-5.0507-0.087-0.0316-0.14516 5.9633-0.14516 14.954 0 8.2536 0.035 15.007 0.0777 15.007s5.1372-2.4231 11.321-5.3846zm-19.267-22.464c2.4048-3.0125 4.3714-5.5292 4.3703-5.5927-2e-3 -0.12828-22.708-10.895-22.783-10.803-4.0626 5.0039-8.8694 11.155-8.7531 11.201 0.0864 0.0341 5.1622 2.4418 11.279 5.3504 6.1173 2.9086 11.21 5.2961 11.318 5.3054 0.10766 9e-3 2.1633-2.4478 4.5681-5.4603zm29.1 0.14748c6.1936-2.9314 11.288-5.3564 11.322-5.3888 0.0333-0.0323-1.926-2.5425-4.354-5.578s-4.4338-5.5432-4.4573-5.5727c-0.0703-0.08822-5.9466 2.7165-5.9466 2.8383 0 0.0617 0.6887 0.99546 1.5304 2.075 1.6144 2.0705 1.8622 2.5056 2.0398 3.5832 0.28482 1.7277-1.0124 3.7134-2.7649 4.2324-0.47466 0.14057-1.0158 0.25559-1.2026 0.25559-0.63723 0-1.9702-0.48306-2.4535-0.88913-0.26532-0.22293-1.4238-1.6156-2.5745-3.0949-1.1507-1.4793-2.1445-2.6695-2.2084-2.645-0.90053 0.34574-9.2088 4.3581-9.2088 4.4473 0 0.18021 8.7497 11.067 8.8946 11.067 0.0677 0 5.1905-2.3984 11.384-5.3298zm-3.2162-6.4315c0.46721-0.21257 0.80697-0.93887 0.67547-1.444-0.0724-0.27809-4.0633-5.5137-7.9704-10.456l-0.32195-0.40726-1.0542 0.82583-1.0542 0.82583 3.8048 4.9018c2.0926 2.696 4.0515 5.1339 4.353 5.4175 0.5836 0.54893 0.93468 0.62428 1.5674 0.3364zm-17.293-10.621c5.8396-0.81104 10.497-4.9079 12.181-10.715 0.31099-1.0724 0.36324-1.6178 0.36324-3.7912 0-2.1728-0.0525-2.7214-0.36463-3.8078-1.5199-5.2906-5.5694-9.1768-10.94-10.498-1.4912-0.36701-4.9767-0.36701-6.4679 0-5.7648 1.4188-9.9887 5.7814-11.153 11.519-0.36255 1.7867-0.25011 4.9757 0.23435 6.6466 2.0712 7.1432 8.909 11.652 16.147 10.647zm-4.3774-2.7636c-4.5766-1.0268-8.1014-4.3777-9.2268-8.7716-0.41809-1.6324-0.41809-4.3096 0-5.942 1.0554-4.1206 4.3974-7.4795 8.5912-8.6345 1.4096-0.38821 4.5955-0.38566 6.0378 0.0048 3.3926 0.91851 6.1788 3.2212 7.7014 6.3649 0.91665 1.8927 1.1965 3.1173 1.1965 5.2358 0 1.0335-0.1012 2.1424-0.25248 2.7664-0.35202 1.4521-1.4825 3.7115-2.4463 4.8893-1.4419 1.762-3.8514 3.307-6.1196 3.924-1.3511 0.36755-4.1932 0.45203-5.4817 0.16294zm4.5914-2.7049c3.0474-0.7173 5.6116-3.1124 6.703-6.2611 0.50924-1.4691 0.50924-4.084 0-5.5531-0.5401-1.5581-1.234-2.6668-2.3868-3.8137-3.6664-3.6475-9.4485-3.6134-13.118 0.07725-1.8862 1.897-2.6849 3.8344-2.6849 6.513 0 2.6792 0.7994 4.6179 2.6849 6.5114 1.827 1.8347 3.9404 2.74 6.4351 2.7566 0.74281 0.0049 1.808-0.0987 2.367-0.23028zm-41.38 38.806c-0.44829-0.18145-0.69054-0.50804-0.80659-1.0874-0.0822-0.41036-0.0171-0.57597 0.38406-0.9765 0.44771-0.44705 0.56585-0.48234 1.6147-0.48234 0.98968 0 1.1806 0.0488 1.5217 0.38944 0.69601 0.69499 0.45669 1.792-0.46746 2.1429-0.50947 0.19341-1.7834 0.20132-2.2464 0.0139z" />
</svg>
