<svg class="h-16 w-16" fill="currentColor" stroke="none" viewBox="0 0 80 80" xmlns="http://www.w3.org/2000/svg">
<path d="m30.392 79.709c-4.5898-2.0896-20.631-9.8149-20.909-10.069-0.82192-0.75318-0.81441-0.67776-0.81457-8.1836l-1.501e-4 -7.0002-3.5151-1.6283c-1.9333-0.89558-3.7483-1.764-4.0334-1.9299-1.001-0.58227-1.4251-2.085-0.88182-3.1241 0.27023-0.51683 8.1723-10.311 8.6879-10.768 0.37695-0.33419 22.256-10.598 22.592-10.598 0.45026 0 7.6542 3.4796 7.8883 3.8101 0.57771 0.81575-0.05137 1.9713-1.0732 1.9713-0.33647 0-1.6042-0.50971-3.5224-1.4162-1.6482-0.7789-3.1055-1.4255-3.2385-1.437-0.36475-0.03136-18.503 8.518-18.363 8.6557 0.16996 0.16793 18.145 8.573 18.334 8.573 0.08528 0 1.5861-0.66799 3.3351-1.4844 1.749-0.81644 3.3601-1.4844 3.5802-1.4844 0.91434 0 1.5155 1.3294 0.95586 2.1137-0.12096 0.16952-1.4362 0.86849-2.9228 1.5533-1.4866 0.68478-2.7028 1.3006-2.7028 1.3685 0 0.06793 1.6458 2.1581 3.6574 4.6448l3.6574 4.5213 0.56872-0.2835c3.5386-1.7639 14.566-6.7825 14.903-6.7825 0.65468 0 1.2274 0.60758 1.2274 1.3021 0 0.73986-0.35562 1.0581-2.0143 1.8024l-1.3034 0.5849-0.0035 6.8926c-0.0032 6.3838-0.02518 6.9398-0.29756 7.533-0.16175 0.35226-0.49789 0.78152-0.74697 0.95391-0.24908 0.17238-5.1503 2.5386-10.892 5.2582-7.5131 3.5589-10.591 4.9438-10.98 4.9413-0.29769-0.0019-0.82564-0.1329-1.1732-0.29114zm-0.23698-15.44c0-6.8821-0.05988-12.232-0.13598-12.149-0.07479 0.08165-1.5336 1.8814-3.2418 3.9994-3.3649 4.1721-3.6858 4.4546-4.8994 4.3116-0.38383-0.0452-2.6411-1.0103-5.5236-2.3617-2.681-1.2569-4.9027-2.2852-4.9371-2.2852-0.03442 0-0.06259 2.6905-0.06259 5.9788v5.9788l9.2817 4.4056c5.105 2.4231 9.335 4.4086 9.4002 4.4122 0.06517 0.0036 0.11849-5.5272 0.11849-12.291zm12.394 7.844 9.2428-4.3752 0.0035-5.9768c0.0019-3.2872-0.033-5.9768-0.07761-5.9768-0.0446 0-2.4989 1.1303-5.4539 2.5118-4.5331 2.1192-5.4477 2.4955-5.852 2.4077-0.39143-0.08503-1.1148-0.88853-3.9492-4.3868-1.9085-2.3555-3.5043-4.2827-3.5461-4.2827-0.04182 0-0.07604 5.5249-0.07604 12.278 0 10.737 0.02923 12.271 0.23292 12.227 0.1281-0.02778 4.3922-2.0193 9.4757-4.4257zm-13.315-23.552c-0.17457-0.17266-18.785-8.8709-18.98-8.8709-0.15211 0-7.4397 8.8963-7.4236 9.0623 0.0042 0.04327 0.73292 0.41381 1.6194 0.82342 0.88645 0.40961 5.1997 2.4209 9.585 4.4696l7.9732 3.7248 3.6745-4.5436c2.021-2.499 3.619-4.5985 3.5512-4.6656zm15.833-0.79655c-1.2389-0.46215-2.262-1.5604-2.5958-2.7864-0.10017-0.36792-0.14129-7.0839-0.11434-18.674l0.04209-18.099 0.34403-0.63568c0.18922-0.34962 0.62932-0.8906 0.97801-1.2022 0.9895-0.88416 1.8203-1.0529 5.1841-1.0529h2.8941v-0.57569c0-1.1962 0.47617-1.7789 2.5723-3.1479 1.0617-0.69343 2.1305-1.3346 2.3751-1.4249 0.59524-0.21968 8.3105-0.21968 8.9057 0 0.24461 0.09028 1.3037 0.72514 2.3536 1.4108 2.1087 1.3772 2.5938 1.956 2.5938 3.0949v0.64281h2.8941c3.3638 0 4.1946 0.16873 5.1841 1.0529 0.34869 0.31156 0.78879 0.85254 0.978 1.2022l0.34403 0.63568v36.876l-0.45994 0.82102c-0.25297 0.45156-0.69617 0.99922-0.9849 1.217-1.1744 0.88595-0.50609 0.85369-17.415 0.84079-11.516-0.0088-15.71-0.05975-16.073-0.19532zm31.708-2.6494c0.62365-0.47358 0.61826-0.31164 0.61826-18.552v-17.679l-0.92362-0.91349h-5.8434l-0.05273 1.8488c-0.05016 1.7586-0.07494 1.8776-0.50802 2.4385-0.80125 1.0379-0.69278 1.0254-8.8765 1.0254-8.2032 0-8.0495 0.01841-8.8851-1.0639-0.39744-0.51479-0.42903-0.67329-0.47827-2.4l-0.05273-1.8488h-5.8434l-0.92362 0.91349v17.679c0 18.24-0.0054 18.079 0.61826 18.552 0.36442 0.27672 30.786 0.27672 31.151 0zm-27.334-6.9304c-0.31095-0.39098-0.32744-0.60379-0.32744-4.226v-3.8143l0.77557-0.76707h3.8566c3.6623 0 3.8775 0.01631 4.2728 0.32385l0.41627 0.32385v3.9459c0 3.9226-0.0022 3.9479-0.36565 4.2857-0.35539 0.33021-0.47707 0.33975-4.3332 0.33975h-3.9675zm6.308-4.1978v-1.9532h-3.9497v3.9064h3.9497zm6.2113 3.2021c-0.76114-0.30331-0.92609-1.4903-0.29398-2.1155l0.38778-0.38354h10.456l0.38778 0.38354c0.23726 0.23466 0.38779 0.56329 0.38779 0.84662 0 1.3915-0.15557 1.4281-6.0352 1.4163-2.7197-0.0054-5.1002-0.07179-5.2901-0.14744zm0.02917-5.3358c-0.51301-0.27752-0.71094-0.62397-0.71094-1.2444 0-0.44459 0.09927-0.66104 0.41627-0.90767 0.40198-0.31273 0.5948-0.32385 5.6157-0.32385h5.1994l0.38778 0.38354c0.65189 0.64475 0.48231 1.6514-0.35226 2.091-0.46679 0.24589-10.102 0.24712-10.556 0.0014zm-11.928-5.2385c-0.13034-0.04937-0.39694-0.2337-0.59245-0.40962-0.35044-0.31533-0.35547-0.37487-0.35547-4.2061v-3.8863l0.77557-0.76707h7.7701l0.77557 0.76707v7.7725l-0.40737 0.37881c-0.40474 0.37637-0.43097 0.37901-4.0682 0.40962-2.0134 0.01695-3.7674-0.0096-3.8978-0.05895zm5.6875-4.5814v-2.0313h-3.9497v4.0626h3.9497zm5.9173 2.8978c-0.47749-0.47226-0.51644-1.2997-0.08594-1.8258l0.30184-0.36888 5.0302-0.04585c2.7666-0.02522 5.192-0.0059 5.3897 0.04304 0.98997 0.24479 1.324 1.4771 0.59561 2.1975l-0.38778 0.38354h-10.456zm0-5.3127c-0.26774-0.2648-0.38779-0.55724-0.38779-0.94464 0-0.38739 0.12005-0.67983 0.38779-0.94463l0.38778-0.38354h10.456l0.38778 0.38354c0.23726 0.23466 0.38779 0.56329 0.38779 0.84662 0 1.3934-0.14156 1.4262-6.1608 1.4262h-5.0706zm6.2477-11.958v-2.9665l-3.0783-2.036h-7.2722l-3.0783 2.036v5.933h13.429zm-8.905-0.01367c-0.5179-0.40292-0.57381-1.3241-0.11444-1.8855 0.27264-0.3332 0.44943-0.37416 1.8274-0.42339 0.83904-0.02998 1.7702-0.0091 2.0692 0.04637 1.0489 0.19463 1.4256 1.5502 0.62088 2.2348-0.37586 0.31978-0.57482 0.35157-2.2 0.35157-1.5684 0-1.8376-0.03958-2.203-0.32385z" />
</svg>
