<svg class="h-16 w-16" fill="currentColor" stroke="none" viewBox="0 0 80 80" xmlns="http://www.w3.org/2000/svg">
<path d="m0.45677 79.543c-0.27536-0.2756-0.45677-0.62201-0.45677-0.87223 0-0.25022 0.18141-0.59663 0.45677-0.87223l0.45677-0.45717 7.134-0.0084-0.49973-0.42589c-0.67607-0.57618-1.5241-1.8854-1.8423-2.8443l-0.26146-0.78785h-1.4226c-1.6548 0-2.4885-0.30979-3.2183-1.1958-0.78084-0.94812-0.80334-1.2004-0.8017-8.9883l2e-3 -7.2545 0.37232-0.80031c0.52444-1.1273 1.1791-1.5598 3.3296-2.1993 1.0133-0.30138 1.9225-0.62951 2.0204-0.72917 0.13541-0.13786 3.3586-6.892 3.7559-7.8703 0.0538-0.13256-0.61756-0.19615-2.4769-0.2346-2.7962-0.05783-3.2451-0.18542-3.9408-1.1202-0.30454-0.40918-0.32886-0.6414-0.32886-3.1405v-2.6987l0.46955-0.76949c0.35255-0.57774 0.68078-0.87667 1.3172-1.1996l0.84765-0.4301h28.408l0.45677 0.45717c0.59271 0.59322 0.59271 1.1512 0 1.7445l-0.4568 0.45717h-13.986c-12.507 0-14.012 0.026-14.232 0.24577-0.19453 0.19469-0.24556 0.61644-0.24556 2.0292v1.7834l16.537 0.08622 0.66891 0.47063c0.40485 0.28485 0.82649 0.77706 1.0681 1.2469l0.3992 0.77626 0.0433 13.337 0.0433 13.337h18.714l0.24705-0.72569c0.7985-2.3455 2.7508-4.0072 5.2561-4.4735 1.7232-0.32074 3.7958 0.24654 5.3226 1.4568 0.75304 0.59694 1.8249 2.1953 2.0586 3.0698l0.17973 0.67257h1.2088c1.7612 0 1.6954 0.17942 1.6954-4.6214 0-3.9017 2e-3 -3.9283 0.36167-4.2662 0.49561-0.46601 1.3506-0.45559 1.7988 0.02192 0.33198 0.35368 0.33977 0.46139 0.33977 4.697 0 4.708-0.03705 4.9529-0.87664 5.7941-0.76514 0.76664-1.5394 1.026-3.0739 1.0299-1.1661 0.0029-1.3859 0.04455-1.4635 0.27714-0.34868 1.0455-1.083 2.3387-1.7072 3.0065l-0.73473 0.78617h4.0769c4.3213 0 4.7058 0.05589 5.0119 0.72841 0.27731 0.60917 0.20517 0.98436-0.28328 1.4732l-0.45677 0.45717h-60.835zm44.14-2.9305c-0.69951-0.72037-1.482-2.0722-1.6834-2.9084l-0.10384-0.43106-24.249 0.0801-0.31702 0.8602c-0.37629 1.0211-0.72724 1.5682-1.5801 2.4633l-0.63331 0.6647h29.275zm-31.093-0.89816c0.7584-0.31716 1.741-1.2611 2.1127-2.0295 0.21895-0.45268 0.32166-0.97549 0.32166-1.6373 0-1.613-0.66622-2.784-1.996-3.5084-1.6675-0.90834-3.4047-0.66525-4.7308 0.66198-2.5322 2.5345-0.80016 6.7327 2.7778 6.7327 0.54453 0 1.2261-0.09873 1.5147-0.2194zm-2.3646-2.7913c-0.47017-0.51414-0.56318-0.97603-0.29937-1.4866 0.62594-1.2115 2.4419-0.80731 2.4419 0.54351 0 1.1173-1.414 1.7397-2.1425 0.94313zm39.885 2.6792c2.2986-1.0814 2.9901-4.0884 1.4154-6.1547-0.47157-0.61879-1.7396-1.3086-2.6301-1.4307-1.526-0.20935-3.3241 0.75492-4.045 2.1693-0.68219 1.3384-0.47531 3.2075 0.48312 4.3651 1.0796 1.3039 3.2322 1.7776 4.7765 1.0511zm-2.4405-2.5278c-1.0254-0.78799-0.54524-2.3645 0.72022-2.3645 1.1768 0 1.763 1.3585 0.94119 2.1811-0.42159 0.42196-1.2342 0.51168-1.6614 0.18342zm-42.898-3.184c0.38428-1.1288 0.95117-1.987 1.8488-2.7991 2.5011-2.2627 6.0523-2.3401 8.7632-0.1912 0.75943 0.60201 1.7834 2.1435 2.0268 3.0513l0.17826 0.6647h2.9042v-12.893c0-7.9986-0.0579-13.045-0.1524-13.294l-0.15239-0.40118h-4.1988c-3.8046 0-4.221 0.0257-4.4353 0.2737-0.24768 0.28659-1.062 2.01-1.062 2.2476 0 0.07563 1.2482 0.13776 2.7737 0.13809 2.492 4.69e-4 2.8254 0.03214 3.283 0.31137 0.99417 0.60668 1.1303 1.0495 1.1303 3.6763 0 2.7282-0.15283 3.1638-1.2912 3.6811-0.60618 0.27541-1.0671 0.30056-5.5671 0.30371l-4.9062 0.0034-1.8913 0.56007c-1.0402 0.30804-1.9792 0.67339-2.0866 0.8119-0.13103 0.16893-0.19533 0.85979-0.19533 2.0987v1.8469h2.1198c1.3119 0 2.2499 0.06935 2.4612 0.18195 0.48552 0.25881 0.72128 0.61409 0.72701 1.0956 0.0139 1.1682-0.47827 1.3813-3.1907 1.3813h-2.1173v3.8005c0 2.7474 0.052 3.8525 0.18752 3.9882 0.1134 0.1135 0.66346 0.18768 1.3917 0.18768h1.2042zm9.6838-10.092c-0.60499-0.2932-0.87751-1.3478-0.48165-1.8638 0.37691-0.49134 0.87708-0.61205 2.5361-0.61205 1.6298 0 1.6722 0.0091 2.1198 0.45717 0.27537 0.2756 0.45677 0.62201 0.45677 0.87223 0 0.25022-0.1814 0.59663-0.45677 0.87223-0.45024 0.45064-0.48094 0.45702-2.1486 0.44658-0.93052-0.0058-1.842-0.08337-2.0256-0.17234zm0.56817-9.1229v-1.3294h-5.9033l-0.56427 1.1892c-0.31035 0.65408-0.56427 1.2523-0.56427 1.3294 0 0.07847 1.5476 0.14017 3.5159 0.14017h3.5159zm24.448 7.5143c-0.49673-0.49716-0.49926-1.1844-6e-3 -1.7579l0.37709-0.43882 14.82-0.04697c10.354-0.03282 14.996 0.0043 15.405 0.12331 1.0257 0.29852 1.3307 1.447 0.58292 2.1955-0.303 0.30327-0.58235 0.30882-15.551 0.30882h-15.243zm34.691 0c-0.49241-0.49284-0.49916-1.1846-0.01703-1.7456 0.33456-0.38929 0.4837-0.43265 1.7097-0.49705 0.73875-0.0388 1.6013-0.0221 1.9168 0.03713 1.2159 0.2283 1.7217 1.4196 0.93641 2.2055-0.36494 0.36526-0.47528 0.38389-2.2729 0.38389-1.7976 0-1.908-0.01864-2.2729-0.38389zm-38.393-6.4297c-0.74306-0.40353-0.83626-1.4712-0.18002-2.0621l0.39079-0.3519h30.312l0.38356 0.38389c0.53764 0.53811 0.50959 1.2344-0.07321 1.8177l-0.45677 0.45717-14.974-0.0063c-12.94-0.0054-15.032-0.03782-15.402-0.23855zm34.731 0.04393c-0.8152-0.41283-0.94374-1.3909-0.27678-2.106 0.3047-0.32673 0.46089-0.3519 2.1832-0.3519 1.7612 0 1.8744 0.01942 2.2386 0.38389 0.64478 0.64535 0.47705 1.6529-0.34842 2.093-0.46341 0.24703-3.2993 0.23288-3.7966-0.01895zm-16.489-6.6217c-3.1043-0.47197-5.4528-1.1798-7.7576-2.338-6.2286-3.13-10.462-8.6607-12.036-15.726-0.51231-2.2992-0.51452-6.6493-5e-3 -9.0038 0.97171-4.4865 3.0671-8.368 6.2217-11.525 3.168-3.1707 6.9797-5.2213 11.57-6.2243 2.0958-0.45791 6.3075-0.48974 8.491-0.064159 4.6853 0.91319 8.4988 2.9463 11.887 6.3372 4.4764 4.4803 6.6418 9.7251 6.6231 16.042-0.01145 3.8696-0.72312 6.8729-2.4206 10.216-3.1016 6.1074-8.8117 10.475-15.589 11.923-1.4756 0.31536-5.8165 0.54152-6.9848 0.36389zm1.0157-6.6491v-3.9313l-1.7932 0.11052c-1.8574 0.11448-4.7374 0.47294-4.8706 0.60622-0.11152 0.11162 0.82634 1.9172 1.5589 3.0012 1.4149 2.0937 3.3067 3.6374 5.0658 4.1336 0.0215 0.0061 0.0391-1.7581 0.0391-3.9203zm4.8213 2.9471c1.437-0.8617 3.1541-2.9524 4.3104-5.2483 0.23176-0.46016 0.38499-0.87307 0.34052-0.91758-0.12985-0.12996-3.1474-0.49348-5.0578-0.6093l-1.758-0.10658v3.8287c0 2.1058 0.0441 3.8728 0.098 3.9268 0.12916 0.12928 1.0278-0.25058 2.0669-0.87366zm-12.402-2.0633c-0.53743-0.81586-1.1776-1.9439-1.4226-2.5068-0.43217-0.99288-0.45949-1.0204-0.91663-0.92158-0.25915 0.056-0.94975 0.291-1.5346 0.52224l-1.0635 0.42042 0.75094 0.69659c1.0785 1.0004 2.1554 1.7548 3.6563 2.5613 0.72257 0.38826 1.3573 0.70711 1.4105 0.70854 0.0532 0.0014-0.34297-0.66491-0.8804-1.4808zm18.094 0.99236c1.7009-0.85907 4.6444-3.0228 4.6444-3.4141 0-0.18698-2.7617-1.2197-2.878-1.0762-0.02438 0.03008-0.2957 0.58254-0.60294 1.2277s-0.9476 1.7536-1.423 2.4633c-0.47542 0.70967-0.83024 1.2903-0.7885 1.2903 0.04174 0 0.51338-0.22096 1.0481-0.49102zm8.0712-7.628c1.3824-2.3068 2.6675-6.2623 2.6675-8.2103v-0.56194h-6.5261l-0.1068 1.3685c-0.15952 2.0441-0.50986 4.3056-0.9468 6.1117-0.21436 0.88604-0.38974 1.6711-0.38974 1.7446 0 0.07347 0.54497 0.31865 1.211 0.54483 0.66607 0.22618 1.5275 0.57794 1.9142 0.7817l0.70319 0.37047 0.34257-0.41696c0.18842-0.22933 0.69733-1.009 1.1309-1.7325zm-31.945 1.6524c0.42973-0.20016 1.256-0.52192 1.8361-0.71502 1.0822-0.36023 1.1698-0.47175 0.90909-1.158-0.3196-0.84133-0.95164-4.4326-1.1321-6.4327l-0.19122-2.1189h-6.637l0.0807 0.5865c0.38434 2.7935 1.0088 4.9309 2.0392 6.9797 0.69628 1.3845 1.9195 3.2258 2.1416 3.2239 0.0948-7.82e-4 0.524-0.1653 0.95372-0.36546zm8.0476-2.0485c0.90242-0.12309 2.467-0.27294 3.4769-0.33302l1.8361-0.10922v-7.9339h-9.2196l1e-3 0.5083c4e-3 1.5317 0.52858 4.8009 1.1307 7.0447 0.31388 1.1696 0.3433 1.2153 0.73044 1.1329 0.22187-0.04724 1.1417-0.1866 2.0442-0.30968zm15.954-0.04781c0.46474-1.2187 1.143-4.8357 1.3198-7.038l0.10358-1.2903h-9.4084v7.9107l2.6174 0.2005c1.4396 0.11028 3.1448 0.29215 3.7894 0.40417s1.2265 0.21253 1.293 0.22336c0.06659 0.01084 0.19487-0.17386 0.28508-0.41041zm-22.458-12.512c0.13807-1.993 0.49804-4.2854 0.96838-6.1671 0.20817-0.83278 0.37848-1.5861 0.37848-1.674 0-0.0879-0.22899-0.22309-0.50887-0.30044-0.27988-0.07735-1.1679-0.40452-1.9733-0.72706-0.80545-0.32254-1.5085-0.52649-1.5624-0.45322-1.3838 1.8813-2.5746 4.2272-3.2074 6.3185-0.40782 1.3478-0.90544 4.1935-0.77133 4.4108 0.0398 0.06452 1.5345 0.1173 3.3216 0.1173h3.2492zm11.817-2.5186v-4.0435l-1.8361-0.10839c-1.6699-0.09859-4.5076-0.43112-5.5219-0.64709-0.3902-0.08308-0.41621-0.04079-0.74805 1.2165-0.49254 1.8661-0.91561 4.3367-1.0447 6.101l-0.1116 1.5249h9.2624zm12.032 3.6124c0-1.6025-0.88476-6.7539-1.379-8.029l-0.15714-0.40539-1.2243 0.19415c-1.087 0.17237-4.1844 0.47583-5.9122 0.57924l-0.62506 0.03741-0.0419 3.8289c-0.0231 2.1059-8e-3 3.9182 0.0342 4.0273 0.0591 0.15414 1.1065 0.19846 4.6908 0.19846h4.6147zm9.2196-0.20908c0-1.0482-0.60417-3.6967-1.1895-5.2145-0.84297-2.1858-2.5502-5.0874-2.9957-5.0915-0.11029-1e-3 -0.5322 0.16505-0.93758 0.36905-0.40538 0.204-1.2117 0.53021-1.7918 0.72491s-1.0548 0.40926-1.0548 0.47678c0 0.06753 0.17405 0.8498 0.38678 1.7384 0.44972 1.8785 0.79763 4.1424 0.95133 6.1903l0.10858 1.4467h6.5228zm-21.252-14.064v-3.9121l-0.58599 0.24332c-2.2485 0.93366-4.1973 2.9468-5.6564 5.8431-0.37243 0.73929-0.45355 1.03-0.31186 1.1177 0.10533 0.06516 1.0078 0.20156 2.0056 0.30313s1.9547 0.20486 2.1266 0.22953c0.17189 0.02468 0.78718 0.05446 1.3673 0.06617l1.0548 0.0213zm6.5904 3.6818c2.2483-0.23883 2.9432-0.36399 2.9395-0.52952-0.0012-0.05519-0.28929-0.6282-0.64018-1.2733-0.85881-1.579-2.032-3.1382-3.0073-3.9966-0.8435-0.74244-2.8499-1.8479-3.0873-1.7011-0.0762 0.047162-0.13862 1.8059-0.13862 3.9083v3.8226l0.89852-0.0017c0.49418-9.22e-4 1.8601-0.10382 3.0354-0.22866zm-15.456-2.2743c0.32379-0.68471 0.97239-1.8089 1.4413-2.4982 0.46893-0.68928 0.81696-1.2532 0.77339-1.2532-0.50893 0-3.9148 2.175-5.0602 3.2314l-0.85034 0.7843 1.3191 0.48628c0.72552 0.26745 1.4246 0.48809 1.5535 0.49031 0.14114 0.00243 0.46861-0.49125 0.82312-1.2409zm23.046 0.67061c0.53716-0.21387 0.97665-0.44918 0.97665-0.52292 0-0.19759-1.7998-1.6648-2.969-2.4203-0.93961-0.60717-2.5444-1.4788-2.7227-1.4788-0.04215 0 0.28953 0.5487 0.73706 1.2193 0.44753 0.67063 1.0942 1.7986 1.437 2.5066 0.71314 1.4727 0.64034 1.4528 2.541 0.69604z" stroke-width=".15633"/>
</svg>
