<svg class="h-16 w-16" fill="currentColor" stroke="none" viewBox="0 0 80 80" xmlns="http://www.w3.org/2000/svg">
<path d="m21.41 79.423-0.55495-0.57698 0.0962-1.2968c0.18201-2.454 1.1875-4.6825 2.9304-6.4945 1.7738-1.8442 3.9114-2.8725 6.3418-3.0508l1.3228-0.09705v-6.4538l-27.632-0.08988-0.7385-0.35471c-1.0354-0.49734-2.233-1.7193-2.743-2.799l-0.43243-0.91549v-53.225l0.34118-0.76781c0.47835-1.0765 1.6537-2.3216 2.6922-2.8518l0.88055-0.44959h72.172l0.73851 0.35471c1.0354 0.49734 2.233 1.7193 2.743 2.799l0.43243 0.91549v53.225l-0.43243 0.91549c-0.50997 1.0796-1.7075 2.3016-2.743 2.799l-0.73851 0.35471-27.632 0.08988v6.4538l1.3228 0.09705c2.4304 0.17832 4.568 1.2066 6.3418 3.0508 1.7386 1.8075 2.7204 3.9928 2.9217 6.5029l0.10346 1.2898-1.1085 1.1525h-36.07zm34.257-3.1275c-0.51085-1.8519-1.9027-3.4946-3.7295-4.4015l-1.2128-0.60211h-21.448l-1.2128 0.60211c-1.8268 0.90692-3.2186 2.5496-3.7295 4.4015l-0.12389 0.44911h31.581zm-10.343-11.596v-3.2553h-10.646v6.5107h10.646zm30.491-6.8353c0.28064-0.17789 0.65023-0.56215 0.82134-0.85392 0.30696-0.52344 0.31109-0.8727 0.31109-26.329s-4e-3 -25.806-0.31109-26.329c-0.17111-0.29176-0.5407-0.67603-0.82134-0.85392-0.50515-0.32022-0.86205-0.32344-35.814-0.32344s-35.308 0.0032-35.814 0.32344c-0.28063 0.17789-0.65023 0.56216-0.82134 0.85392-0.30632 0.52234-0.3111 0.86454-0.31168 22.301l-5.8e-4 21.77h63.436l0.53229 0.55341c0.72225 0.75091 0.72225 1.3976 0 2.1485l-0.53229 0.55341h-63.436l5.8e-4 2.4008c7.1e-4 2.6888 0.14054 3.1561 1.133 3.7852 0.50515 0.32022 0.86205 0.32344 35.814 0.32344s35.308-0.0032 35.814-0.32344zm-36.847-2.0192c-0.58575-0.60899-0.67274-1.1336-0.3092-1.8645 0.23178-0.46598 0.82725-0.83744 1.3425-0.83744 0.79325 0 1.5656 0.79518 1.5656 1.6119 0 0.55034-0.35241 1.1679-0.80549 1.4115-0.70302 0.37797-1.2076 0.28753-1.7933-0.32147zm32.25-4.7202c-0.38356-0.39878-0.53229-0.69894-0.53229-1.0743s0.14873-0.67548 0.53229-1.0743c0.38356-0.39878 0.67227-0.55341 1.0333-0.55341s0.64971 0.15463 1.0333 0.55341c0.38356 0.39878 0.53229 0.69894 0.53229 1.0743s-0.14873 0.67548-0.53229 1.0743c-0.38356 0.39878-0.67227 0.55341-1.0333 0.55341s-0.64971-0.15463-1.0333-0.55341zm-35.914-8.8362c-0.12916-0.04741-3.4204-3.3899-7.3139-7.4278-4.6279-4.7995-7.11-7.4879-7.1684-7.7643-0.0491-0.23252-0.0309-0.58699 0.0405-0.78771 0.19064-0.53579 7.6865-8.3111 8.1219-8.4247 0.78124-0.20386 1.2281 0.13182 4.0448 3.0383l2.8229 2.9128 6.9667-7.2281c4.6416-4.8157 7.1104-7.2645 7.3973-7.3372 0.23679-0.06005 0.58905-0.06739 0.78278-0.0163 0.19374 0.05108 2.0959 1.9118 4.227 4.135l3.8748 4.0421v1.4446l-11.076 11.529c-6.092 6.3412-11.267 11.634-11.499 11.763-0.43151 0.23806-0.80264 0.27493-1.2211 0.12131zm17.692-26.662-2.4235-2.5236-14.102 14.649h-0.6831c-0.6761 0-0.71265-0.03042-3.5619-2.9654l-2.8788-2.9654-4.7649 4.954 11.27 11.72 19.568-20.345z" />
</svg>
