<svg class="h-16 w-16" fill="currentColor" stroke="none" viewBox="0 0 80 80" xmlns="http://www.w3.org/2000/svg">
<path d="m5.1283 76.773v-3.2268l-0.97311-2.4386c-0.5352-1.3412-1.1526-3.0585-1.3721-3.8161-0.21943-0.75763-0.94968-4.6562-1.6228-8.6635-1.1387-6.7794-1.2178-7.4039-1.1377-8.9813 0.13721-2.701 0.88777-5.0545 2.3019-7.2179 0.3363-0.5145 1.6839-2.0283 2.9947-3.364l2.3832-2.4286 0.0884-31.81 0.60871-1.2322c0.71889-1.4553 1.6467-2.3565 3.1833-3.0922l1.0488-0.50218h44.391l1.2316 0.60906c1.4546 0.71929 2.3552 1.6475 3.0906 3.1851l0.5019 1.0494 0.0445 14.688 0.0445 14.688 4.728 4.7669c3.3426 3.3702 4.9073 5.0661 5.3399 5.7882 0.33654 0.56171 1.0598 2.1389 1.6072 3.505l0.99531 2.4837 5.3938 4.0543v24.885l-0.52442-0.3219c-0.28844-0.17704-4.0461-2.4352-8.3504-5.0182l-7.826-4.6963-38.595-1.19e-4 -0.2039 0.68618c-0.11215 0.3774-0.4504 1.2997-0.75167 2.0495l-0.54777 1.3634v6.2339h-18.072zm15.491-0.64804v-1.2916h-12.909v2.5832h12.909zm56.799-10.492v-9.5232l-3.7345-2.8067-12.24 12.247 7.947 4.7894c4.3709 2.6342 7.9652 4.7955 7.9874 4.803 0.0222 0.0075 0.0403-4.2718 0.0403-9.5096zm-55.783 5.1154c1.0269-2.6845 1.5677-5.3931 1.564-7.834-9.7e-4 -0.68177-0.24862-4.4107-0.55021-8.2866-0.58435-7.5096-0.60609-7.6279-1.4748-8.0239-0.68248-0.31114-1.3163-0.22279-1.8484 0.25766-0.4366 0.39423-0.58022 0.78781-1.2814 3.5116-1.1403 4.4294-2.6128 8.4257-3.6773 9.9799-0.92566 1.3515-2.8478 1.908-4.3278 1.2529-1.0373-0.45912-1.4826-0.88685-1.9453-1.8686l-0.38047-0.80727-0.02-18.729-1.4126 1.4975c-2.0273 2.1491-2.9867 3.8767-3.5007 6.303-0.38202 1.8035-0.27863 2.9621 0.89827 10.066 1.2929 7.8041 1.4682 8.5734 2.5972 11.397 0.45254 1.132 0.88587 2.2216 0.96297 2.4214l0.14017 0.36327h13.681zm36.985-3.7515c-0.0887-0.03365-1.4902-0.24575-3.1144-0.47134-1.6242-0.22559-3.2942-0.49079-3.7113-0.58933-1.525-0.36033-3.5918-1.5252-5.4378-3.0647-2.1289-1.7756-3.1076-2.441-4.2357-2.8803l-0.84715-0.32983v4.8389h-12.909v-7.7497h6.6006l-0.0939-0.79293c-0.0516-0.43611-0.0157-1.0173 0.0799-1.2916l0.17375-0.49869h-9.9914l0.0815 0.60545c0.0448 0.333 0.19948 2.1675 0.34372 4.0767 0.24585 3.2539 0.23482 5.5001-0.0367 7.4672l-0.10584 0.7669 16.682-0.01276c9.1754-7e-3 16.61-0.04027 16.521-0.07392zm6.8168-9.1558c3.5725-3.5738 6.4955-6.5791 6.4955-6.6786 0-0.37453-1.74-4.4197-2.2245-5.1717-0.27789-0.43127-2.8526-3.1272-5.7216-5.991-4.7316-4.723-5.2657-5.2069-5.7474-5.2069-0.7233 0-1.4744 0.74623-1.4744 1.4648 0 0.44527 0.25106 0.77583 1.7291 2.2766l1.7291 1.7557-1.8407 1.8418-3.0371-3.0236c-2.6987-2.6867-3.0958-3.0236-3.5643-3.0236-0.72281 0-1.4705 0.74814-1.4705 1.4714 0 0.46871 0.33666 0.86603 3.0218 3.5663l3.0219 3.0388-1.8445 1.8455-3.0371-3.0236c-2.6987-2.6867-3.0958-3.0236-3.5643-3.0236-0.72281 0-1.4705 0.74814-1.4705 1.4714 0 0.46871 0.33667 0.86603 3.0219 3.5663l3.0218 3.0388-1.8479 1.849-8.193-8.1918c-7.5089-7.5078-8.2375-8.1918-8.7261-8.1918-0.73241 0-1.4765 0.74475-1.4765 1.4778 0 0.49053 0.77056 1.3054 9.4782 10.023l9.4782 9.4886-0.91986 0.92038-0.91987 0.92038-1.0967-1.0594c-2.6912-2.5996-6.0685-3.107-9.2802-1.3942-1.5656 0.83494-1.9709 1.6856-1.1801 2.4768 0.36471 0.36492 0.51697 0.3963 1.9229 0.3963 0.83976 0 1.551 0.05808 1.5806 0.12907 0.0296 0.07099 0.56208 0.29308 1.1833 0.49354 1.5272 0.49278 2.897 1.3381 4.9444 3.0511 2.1063 1.7623 3.0449 2.3747 4.273 2.788 0.91384 0.30753 5.517 1.072 6.676 1.1088 0.5347 0.01694 0.90178-0.32 7.0596-6.4799zm-26.745 2.7843v-1.2916h-7.7454v2.5832h7.7454zm-26.776-1.4585c0.17137-0.09177 0.45705-0.45214 0.63483-0.80083 0.31909-0.62582 0.32325-0.9397 0.32325-24.374v-23.74h43.89v22.264l0.49841-0.17385c0.27413-0.09561 0.85503-0.13158 1.2909-0.07993l0.79248 0.09391v-13.253c0-9.7718-0.0504-13.421-0.19182-13.894-0.10551-0.35234-0.50573-0.98995-0.88939-1.4169-1.2494-1.3904 0.57928-1.2897-23.415-1.2897-15.92 0-21.372 0.047879-21.852 0.19194-0.35214 0.10556-0.98939 0.50601-1.4161 0.88989-1.4004 1.2598-1.289-1.2129-1.289 28.604v26.399l0.35085 0.37368c0.37961 0.40431 0.78197 0.46968 1.2728 0.20682zm11.681-51.894c-0.80038-0.80084-0.23323-2.187 0.89482-2.187 0.66338 0 1.2909 0.62788 1.2909 1.2916 0 0.66375-0.62751 1.2916-1.2909 1.2916-0.31439 0-0.64515-0.14649-0.89482-0.39629zm4.7675-0.89533v-1.2916h18.072v2.5832h-18.072zm10.973 44.604c0.8047-0.3017 1.891-0.56693 2.6283-0.64173l1.2567-0.1275-0.97433-0.96366c-0.82452-0.8155-0.97432-0.90859-0.97432-0.60545v0.35822h-7.7454v-7.7497h0.35928c0.29446 0 0.12775-0.23303-0.92404-1.2916l-1.2833-1.2916h-13.643v-2.5832h11.764l-0.0939-0.79293c-0.0516-0.43611-0.0157-1.0173 0.0799-1.2916l0.17374-0.49869h-11.924v-18.083h18.072v16.241l3.957 3.9479c2.1764 2.1714 4.0098 3.9659 4.0744 3.9878 0.0645 0.02192 0.26259-0.18377 0.44009-0.4571 0.43515-0.6701 1.4894-1.3832 2.3746-1.6062 0.70833-0.17846 0.73301-0.20645 0.98645-1.1185 0.32023-1.1525 1.3211-2.2607 2.3794-2.6347 0.67123-0.23718 0.34411-0.25307-5.458-0.26505l-6.1721-0.01274v-2.5832h12.909v2.5407l0.64787 0.08695c0.35632 0.04782 0.93722 0.23786 1.2909 0.4223l0.64302 0.33535v-21.468h-38.727l0.0121 18.527 0.0122 18.527 0.47502-1.7727c0.26126-0.97499 0.65656-2.0472 0.87845-2.3827 1.1912-1.8011 3.655-2.3826 5.6339-1.3298l0.7337 0.39033v-3.5429h7.7454v7.7497h-6.1317l1e-3 0.444c8.1e-4 0.2442 0.0474 0.82701 0.10357 1.2951l0.10217 0.85115 12.944-0.09594 1.3716-0.51423zm-0.64544-23.938v-1.2916h12.909v2.5832h-12.909zm0-5.1665v-1.2916h7.7453v2.5832h-7.7453zm10.327 0v-1.2916h2.5818v2.5832h-2.5818zm-10.327-5.1665v-1.2916h12.909v2.5832h-12.909zm-10.327 28.416v-1.2916h-2.5818v2.5832h2.5818zm10.327 0.93304c0-0.49135-1.7248-2.2247-2.2137-2.2247-0.35257 0-0.36812 0.05454-0.36812 1.2916v1.2916h1.2909c1.2261 0 1.2909-0.01799 1.2909-0.35859zm-5.1636-21.599v-6.4581h-2.5818v5.1665h-7.7454v-5.1665h-2.5818v12.916h12.909zm-5.1636-5.1665v-1.2916h-2.5818v2.5832h2.5818z" />
</svg>
