<svg class="h-16 w-16" fill="currentColor" stroke="none" viewBox="0 0 80 80" xmlns="http://www.w3.org/2000/svg">
<path d="m56.739 79.894c-8.4391-1.1706-15.321-7.3163-17.347-15.492-0.18709-0.75494-0.39541-1.8813-0.46292-2.503l-0.12274-1.1304-38.806-0.08204v-51.673h61.917l0.10624-0.92853c0.49618-4.3367 3.995-7.7173 8.3433-8.0615 2.3566-0.18655 5.0532 0.76023 6.7252 2.3611 3.7042 3.5469 3.8932 9.0792 0.43545 12.747-1.2093 1.2827-2.6397 2.1651-4.1348 2.5505l-1.104 0.28463v25.278l1.3096 1.2522c3.1731 3.034 5.3651 7.0902 6.1318 11.347 0.31893 1.7707 0.2785 5.7347-0.07577 7.4282-0.91382 4.3683-2.8632 7.9362-5.983 10.95-2.9301 2.831-6.3107 4.6103-10.338 5.4411-1.5529 0.32036-5.0625 0.44319-6.5939 0.23078zm5.3837-2.6467c4.0207-0.61108 8.1459-2.8422 10.69-5.7819 0.90694-1.0478 1.4114-1.7311 1.4114-1.9118 0-0.058-0.97564-0.66458-2.1681-1.348l-2.1681-1.2425-1.1709 1.2336c-2.8971 3.0522-6.8435 4.4986-10.882 3.9881-3.029-0.38288-5.6425-1.7215-7.8012-3.9959l-1.1635-1.2258-2.1681 1.2425c-1.1924 0.68338-2.1681 1.29-2.1681 1.348 0 0.4509 2.0919 2.766 3.5655 3.946 3.9113 3.1319 9.0456 4.5041 14.022 3.7477zm-0.56475-7.7585c2.9299-0.6135 5.68-2.742 6.9968-5.4153 2.0376-4.1365 1.3036-8.7436-1.9043-11.954-4.0683-4.0715-10.464-4.0688-14.535 0.0063-4.0765 4.0797-4.0741 10.448 0.0055 14.552 2.4944 2.5092 5.9553 3.54 9.4374 2.8108zm-3.9899-2.5927c-1.4102-0.3421-2.5144-0.98025-3.6324-2.0991-4.4226-4.426-2.0164-11.898 4.1887-13.008 5.0707-0.90689 9.7305 3.7062 8.8668 8.778-0.76894 4.5158-5.0488 7.3905-9.4231 6.3294zm3.9899-2.8299c1.0207-0.48475 1.9925-1.4523 2.5009-2.4901 0.56795-1.1593 0.56795-3.2008 0-4.3601-0.50437-1.0295-1.4722-1.9981-2.5009-2.5029-1.1584-0.56839-3.1983-0.56839-4.3566 0-4.1944 2.0581-3.8447 7.987 0.56562 9.5908 1.0183 0.3703 2.7378 0.26247 3.791-0.23774zm-15.439 1.5065c1.1884-0.69524 1.4795-0.93556 1.3884-1.1463-0.8255-1.9083-1.1902-4.7166-0.88434-6.81 0.69034-4.7249 3.9169-8.7039 8.38-10.334 0.72217-0.26376 1.7119-0.52648 2.1993-0.58382l0.88631-0.10425v-5.2261l-1.1147 0.13324c-3.9804 0.47576-8.5241 2.9061-11.157 5.9678-4.6387 5.3938-5.7677 12.534-3.016 19.075l0.3239 0.77 0.74531-0.43114c0.40992-0.23712 1.422-0.82698 2.249-1.3108zm30.309-0.26641c0.60719-1.7711 0.87791-3.2389 0.97097-5.2643 0.28364-6.1732-2.7608-12.142-7.9822-15.649-2.1486-1.4433-5.2046-2.601-7.6318-2.8911l-1.1147-0.13324v5.2261l0.88631 0.10425c0.48747 0.05733 1.4772 0.32006 2.1993 0.58382 6.3784 2.3297 9.9059 9.2797 7.9614 15.686-0.22582 0.744-0.42578 1.4487-0.44436 1.566-0.01905 0.12026 0.9163 0.7676 2.1445 1.4842l2.1783 1.2709 0.21956-0.41846c0.12076-0.23015 0.39643-0.93438 0.6126-1.5649zm-37.652-7.3232c0.0382-0.06661 0.11944-0.64795 0.18065-1.2919l0.1113-1.1708h-2.924v-15.502h7.7451v5.6871l1.3661-1.2941c2.8682-2.7171 6.2293-4.4566 10.252-5.3056 1.8945-0.39988 5.8506-0.39988 7.7451 0 2.0959 0.44238 4.0187 1.1501 6.3333 2.3312 0.06656 0.03397 0.12102-5.2329 0.12102-11.704v-11.766l-1.1139-0.28717c-0.61263-0.15794-1.5346-0.54069-2.0487-0.85055l-0.93486-0.56338-3.9273 3.9233c-3.1329 3.1297-3.909 3.9887-3.8367 4.2463 0.04985 0.17763 0.13513 0.66764 0.18952 1.0889 0.26206 2.0297-1.6916 4.1562-3.8184 4.1562-1.5073 0-3.2579-1.2917-3.6853-2.7192-0.23286-0.77783-0.23576-1.3757-0.0106-2.1872l0.17486-0.63029-2.5423-2.5443-0.84088 0.19425c-0.65507 0.15133-1.0266 0.15134-1.6815 4.8e-5l-0.84067-0.1942-3.1992 3.1943c-2.5415 2.5376-3.1805 3.2607-3.1084 3.5173 0.0499 0.17763 0.13523 0.66764 0.18962 1.0889 0.26205 2.0297-1.6916 4.1562-3.8184 4.1562-1.5073 0-3.258-1.2917-3.6853-2.7192-0.4392-1.4671-0.11333-2.6915 1.0174-3.8232 1.12-1.1209 2.2446-1.4336 3.7008-1.0289l0.62959 0.17494 3.2086-3.2037c2.5405-2.5366 3.1901-3.2709 3.1198-3.5266-0.47288-1.7202-0.19493-2.8961 0.95548-4.0426 0.83889-0.83599 1.658-1.2057 2.6713-1.2057 1.4294 0 2.8443 0.94576 3.4896 2.3325 0.4165 0.89514 0.47394 1.6125 0.20635 2.5771l-0.17486 0.63029 2.5423 2.5443 0.84088-0.19425c0.65528-0.15138 1.0266-0.15134 1.6824 1.53e-4l0.84154 0.1944 7.8523-7.8585-0.56289-0.93551c-0.30959-0.51453-0.60925-1.1467-0.66591-1.4049l-0.10302-0.4694h-59.838v46.507h18.062c9.9344 0 18.094-0.0545 18.132-0.12111zm-33.613-8.922v-6.4593h7.7451v12.919h-7.7451zm5.1634 0v-3.8756h-2.5817v7.7512h2.5817zm5.1634 1.2919v-5.1675h7.7451v10.335h-7.7451zm5.1634 0v-2.5837h-2.5817v5.1675h2.5817zm5.1634-5.1675v-10.335h7.7451v20.67h-7.7451zm5.1634 0v-7.7512h-2.5817v15.502h2.5817zm-25.817-14.211v-1.2919h2.5817v2.5837h-2.5817zm5.1634 0v-1.2919h18.072v2.5837h-18.072zm-5.1634-5.1675v-1.2919h2.5817v2.5837h-2.5817zm5.1634 0v-1.2919h18.072v2.5837h-18.072zm-5.1634-5.1675v-1.2919h2.5817v2.5837h-2.5817zm5.1634 0v-1.2919h18.072v2.5837h-18.072zm-5.1634-5.1675v-1.2919h2.5817v2.5837h-2.5817zm5.1634 0v-1.2919h18.072v2.5837h-18.072zm29.529 37.262c4.8e-4 -0.11102 0.32717-0.92622 0.7261-1.8115l0.72533-1.6097v-6.7119h-2.5817v10.335h0.56475c0.34381 0 0.56505-0.07897 0.56553-0.20185zm-4.1081-22.156c0.80037-0.80099 0.23323-2.1874-0.89479-2.1874-0.31439 0-0.64514 0.14652-0.8948 0.39637-0.24966 0.24985-0.39606 0.58087-0.39606 0.8955s0.1464 0.64565 0.39606 0.8955c0.24966 0.24985 0.58041 0.39637 0.8948 0.39637 0.31438 0 0.64514-0.14652 0.89479-0.39637zm19.363-3.8756c0.80036-0.80099 0.23323-2.1874-0.8948-2.1874-0.66336 0-1.2909 0.62799-1.2909 1.2919 0 0.66388 0.6275 1.2919 1.2909 1.2919 0.31438 0 0.64514-0.14652 0.8948-0.39637zm-7.7451-7.7512c0.80036-0.80099 0.23323-2.1874-0.8948-2.1874-0.66336 0-1.2909 0.62799-1.2909 1.2919 0 0.66388 0.6275 1.2919 1.2909 1.2919 0.31438 0 0.64514-0.14652 0.8948-0.39637zm26.282-4.0961c1.456-0.68188 2.398-1.6091 3.1201-3.0714 0.56945-1.1531 0.60262-1.3056 0.60262-2.7711 0-1.4655-0.03317-1.618-0.60262-2.7711-0.72581-1.4697-1.6602-2.3852-3.1603-3.0965-0.97473-0.46215-1.2244-0.51102-2.6107-0.51102s-1.636 0.048872-2.6107 0.51102c-1.5001 0.71125-2.4345 1.6267-3.1603 3.0965-0.56876 1.1517-0.60262 1.3069-0.60262 2.7628 0 1.3968 0.04823 1.6443 0.51062 2.6211 0.6484 1.3697 1.5716 2.3724 2.7755 3.0146 1.271 0.67797 1.9666 0.8313 3.4504 0.76063 0.96849-0.04613 1.4843-0.1691 2.288-0.54547z" />
</svg>
