<svg class="h-16 w-16" fill="currentColor" stroke="none" viewBox="0 0 80 80" xmlns="http://www.w3.org/2000/svg">
<path d="m15.309 79.904c-7.8052-0.74212-13.308-2.899-14.87-5.8283l-0.37559-0.70433-0.0441-13.062c-0.0492-14.599-0.0924-13.977 1.0855-15.623 1.5763-2.2026 5.3335-4.1178 10.01-5.1024 1.4129-0.29749 3.064-0.51364 5.8483-0.7656l1.089-0.09855v-7.8842l-0.52433-0.0011c-0.93512-2e-3 -3.1999-0.6354-4.5713-1.2785-3.3885-1.5888-5.8489-3.9633-7.4556-7.1952-3.0224-6.0797-1.7213-13.418 3.2034-18.066 1.3262-1.2518 2.134-1.8158 3.7917-2.6473 4.3109-2.1624 9.3553-2.1614 13.704 0.0028 3.23 1.6076 5.6032 4.0695 7.1911 7.46 0.6427 1.3723 1.2757 3.6383 1.2777 4.574l0.0011 0.52463h11.777v-2.8466c0-1.7631 0.07468-3.0995 0.1962-3.511 0.26183-0.88669 1.5983-2.224 2.4845-2.4859 0.46685-0.13802 2.3698-0.19631 6.408-0.19631h5.7439l1.4466-1.9168c1.6479-2.1836 2.3419-2.8234 3.3329-3.0731 0.9773-0.24623 10.398-0.23644 11.225 0.01166 0.88515 0.26535 1.8926 1.1898 2.3369 2.1444l0.3798 0.81611-2e-3 11.058c-0.0019 10.777-0.01031 11.076-0.3306 11.784-0.44132 0.97551-1.0341 1.5781-2.0036 2.0367-0.80404 0.38033-0.82668 0.38158-6.979 0.38315l-6.1723 0.0016 0.04168 9.0795 0.04168 9.0795 0.95432 0.11926c3.525 0.44052 7.1209 2.297 9.7264 5.0216 2.0983 2.1942 3.4108 4.53 4.1872 7.4517 0.36624 1.3782 0.43061 1.9565 0.44025 3.9549 0.0065 1.3512-0.07683 2.7501-0.19716 3.3092-0.70768 3.2883-2.0972 5.9675-4.3017 8.2941-1.4286 1.5078-2.6278 2.4316-4.3384 3.3421-2.6983 1.4362-4.7959 1.9311-8.0842 1.9071-1.8947-0.0138-2.5186-0.08537-3.872-0.44407-2.9159-0.77285-5.253-2.0871-7.4474-4.188-1.5403-1.4747-2.7274-3.1267-3.6271-5.0478-0.69889-1.4923-1.4287-4.0949-1.4287-5.0949v-0.62504h-7.9053l-0.0071 4.1567c-0.0052 3.0743-0.06406 4.3165-0.22587 4.7705-1.0571 2.9652-5.7123 5.1733-12.996 6.1646-2.2353 0.30419-8.0406 0.44045-10.164 0.23857zm10.616-2.8859c4.6994-0.71194 8.3088-2.0725 9.698-3.6556l0.49783-0.56733v-4.1797l-1.0295 0.56622c-2.1255 1.169-5.2097 2.0726-9.1344 2.676-1.9774 0.30404-3.0008 0.3597-6.6146 0.3597-3.6138 0-4.6372-0.05565-6.6146-0.3597-3.9247-0.60346-7.0089-1.507-9.1344-2.676l-1.0295-0.56622v4.1797l0.49783 0.56733c1.7007 1.9381 6.2054 3.3544 12.812 4.0283 1.6979 0.17318 7.9877-0.06001 10.051-0.37265zm40.93-0.0026c0.70986-0.18788 1.8715-0.6307 2.5813-0.98403 1.3599-0.6769 3.4355-2.1436 3.585-2.5334 0.04855-0.12658-0.18651-0.7718-0.52234-1.4338-1.1504-2.2678-3.4463-4.0802-5.9026-4.6596-1.394-0.3288-5.3486-0.3288-6.7427 0-2.3032 0.54323-4.5861 2.2654-5.7312 4.3235-0.87468 1.572-0.87891 1.7317-0.0635 2.3992 1.8631 1.5253 3.979 2.5592 6.2564 3.0572 1.8112 0.396 4.6854 0.32168 6.5396-0.1691zm-14.858-6.8324c0.25776-0.46602 1.0927-1.4662 1.8553-2.2226 1.0817-1.0728 1.6953-1.5311 2.7897-2.0835l1.4031-0.7082-0.65928-0.74143c-2.663-2.9948-2.4362-7.7585 0.50275-10.563 4.5223-4.316 11.891-1.8267 12.947 4.3739 0.36378 2.136-0.33186 4.5454-1.7913 6.2044l-0.63918 0.72657 1.3806 0.70042c1.6856 0.85518 3.5575 2.5604 4.4909 4.0909 0.35493 0.58202 0.71793 1.0388 0.80666 1.0152 0.08873-0.02367 0.4714-0.66898 0.85038-1.434 2.7-5.4506 1.622-11.95-2.6995-16.274-6.3964-6.4001-16.958-5.2846-21.916 2.3149-2.4575 3.7667-2.9598 8.709-1.3063 12.853 0.52432 1.3139 1.2172 2.5958 1.4029 2.5955 0.06281-9e-5 0.32509-0.38146 0.58286-0.84748zm-26.072-0.91339c4.6994-0.71194 8.3088-2.0725 9.698-3.6556l0.49783-0.56733v-4.1797l-1.0295 0.56622c-2.1255 1.169-5.2097 2.0726-9.1344 2.676-1.9774 0.30404-3.0008 0.3597-6.6146 0.3597-3.6138 0-4.6372-0.05565-6.6146-0.3597-3.9247-0.60346-7.0089-1.507-9.1344-2.676l-1.0295-0.56622v4.1797l0.49783 0.56733c1.7007 1.9381 6.2054 3.3544 12.812 4.0283 1.6979 0.17318 7.9877-0.06001 10.051-0.37265zm39.478-5.1931c1.0206-0.48458 1.9921-1.4518 2.5005-2.4893 0.56786-1.1589 0.56786-3.1996 0-4.3585-0.50429-1.0291-1.472-1.9974-2.5005-2.502-1.1582-0.56819-3.1978-0.56819-4.356 0-4.1937 2.0574-3.8441 7.9842 0.56553 9.5874 1.0181 0.37017 2.7373 0.26238 3.7904-0.23765zm-39.478-2.5553c4.6994-0.71194 8.3088-2.0725 9.698-3.6556l0.49783-0.56733v-4.847l-0.68566 0.4709c-1.8451 1.2672-4.7877 2.4146-7.8649 3.0668-2.7957 0.5925-4.5106 0.74851-8.2279 0.74851-3.7174 0-5.4323-0.15601-8.2279-0.74851-3.0772-0.65218-6.0198-1.7996-7.8649-3.0668l-0.68566-0.4709v2.4168c0 2.3934 4e-3 2.4218 0.43804 2.9376 1.5613 1.8566 6.243 3.4145 12.065 4.015 2.3524 0.24262 8.3768 0.07651 10.858-0.29939zm20.682-0.15538c0-1 0.72982-3.6026 1.4287-5.0948 1.6885-3.6052 4.5687-6.4921 8.1543-8.1734 1.4642-0.68654 3.2691-1.2251 4.7085-1.405l0.95432-0.11926 0.04168-9.0795 0.04167-9.0795-6.1723-0.0016c-6.1417-0.0016-6.1763-0.0035-6.9879-0.3816-0.95395-0.44447-1.8779-1.4525-2.1431-2.3382-0.12097-0.40396-0.18724-2.0898-0.18724-4.7632v-4.138h-11.777l-0.0011 0.52463c-2e-3 0.93283-0.63424 3.2-1.2722 4.5623-1.6379 3.4971-4.1835 6.0442-7.6786 7.683-1.3614 0.63836-3.6273 1.271-4.5596 1.273l-0.52433 0.0011v7.8842l1.089 0.09897c2.9862 0.27139 4.449 0.46161 5.8483 0.76051 4.7061 1.0052 8.4354 2.9071 10.007 5.1034 1.1187 1.5632 1.1247 1.616 1.1247 9.9118v7.3963h7.9053zm-21.538-7.5237c6.4101-1.0001 11.051-3.5437 11.051-6.0568 0-2.5338-4.6072-5.047-11.132-6.0722-2.5957-0.40787-8.6838-0.41025-11.262-0.0044-4.4777 0.70492-8.0271 2.047-9.8459 3.7228-1.7451 1.608-1.7208 3.1784 0.0737 4.7588 2.2945 2.0209 6.4915 3.3771 12.242 3.9557 1.3926 0.14013 7.3306-0.06327 8.8733-0.30394zm-13.722-2.5658c-1.8379-0.85631-2.7033-2.7554-2.1341-4.683 0.26182-0.88669 1.5983-2.224 2.4845-2.4859 0.91466-0.2704 14.352-0.2783 15.25-9e-3 1.4262 0.42754 2.7167 2.1789 2.7167 3.6869 0 0.86962-0.57096 2.1612-1.2268 2.7751-0.25524 0.23892-0.79076 0.58237-1.1901 0.76323-0.69525 0.3149-1.03 0.3289-7.9053 0.33079l-7.1793 2e-3zm15.343-2.5959c0.24962-0.24976 0.396-0.58066 0.396-0.89518s-0.14638-0.64542-0.396-0.89518l-0.396-0.39623h-13.904l-0.39599 0.39623c-0.24962 0.24976-0.396 0.58066-0.396 0.89518s0.14638 0.64542 0.396 0.89518l0.39599 0.39623h13.904zm-11.638-21.975c-0.80966-1.2081-1.6261-2.7706-2.0803-3.9814l-0.28766-0.76677h-4.4917l0.29145 0.51734c0.50669 0.8994 2.7925 3.1667 3.9023 3.8706 0.93837 0.59524 3.2488 1.6355 3.3679 1.5164 0.02399-0.02401-0.29189-0.54429-0.70197-1.1562zm4.8197 0.63643c0.9969-1.1289 2.0598-2.696 2.7098-3.9951l0.65479-1.3088-3.8262-0.04334c-2.1044-0.02383-3.8564-0.01313-3.8933 0.02381-0.109 0.10906 0.99024 2.1966 1.7669 3.3555 0.62982 0.93978 1.8959 2.5359 2.0233 2.5508 0.02489 0.0029 0.27899-0.25938 0.56466-0.58286zm6.3493-0.95386c1.1673-0.728 3.4229-2.951 3.9801-3.9225l0.29145-0.50822h-4.4917l-0.28767 0.76677c-0.45389 1.2098-1.2704 2.773-2.0781 3.9781-0.40886 0.61007-0.74338 1.1353-0.74338 1.1672 0 0.17642 2.3421-0.86563 3.3293-1.4813zm50.805-0.95275 0.396-0.39623v-12.122h-28.394v12.122l0.396 0.39623 0.396 0.39623h26.81zm-25.417-3.478v-1.2914h2.5813v2.5828h-2.5813zm5.1626 0v-1.2914h2.5813v2.5828h-2.5813zm5.1626 0v-1.2914h2.5813v2.5828h-2.5813zm-50.129-3.6724c-0.16119-1.3996-0.16098-4.1713 4.3e-4 -5.5734l0.12593-1.0939-4.9305 0.08918-0.20712 0.80713c-0.33458 1.3038-0.4252 3.487-0.20217 4.8704 0.34829 2.1603 0.0996 1.9902 2.9104 1.9902h2.4285zm12.438 0.36321c0.20197-0.83735 0.20192-5.4585-5.8e-5 -6.2956l-0.1558-0.6457h-9.4909l-0.12476 0.56499c-0.25958 1.1755-0.33284 3.9686-0.14163 5.3994 0.10617 0.79448 0.22967 1.5038 0.27445 1.5763 0.0448 0.07249 2.1968 0.11255 4.7822 0.08903l4.7008-0.04277zm-8.7727-3.1478v-1.2914h2.5813v2.5828h-2.5813zm5.1626 0v-1.2914h2.5813v2.5828h-2.5813zm11.277 2.9864c0.30336-1.0842 0.30336-4.8886 0-5.9728l-0.22584-0.80713-4.9472-0.08928 0.1343 1.0939c0.07386 0.60164 0.1343 1.8566 0.1343 2.7889s-0.06043 2.1872-0.1343 2.7889l-0.1343 1.0939 4.9472-0.08928zm45.512-11.63c0-3.4774-6.1e-5 -3.478-0.396-3.8742l-0.396-0.39623h-4.9908c-4.5228 0-5.021 0.02649-5.313 0.2825-0.17724 0.15537-1.0947 1.3176-2.0388 2.5828l-1.7166 2.3003h-12.751l-0.396 0.39623c-0.32523 0.32542-0.396 0.5562-0.396 1.2914v0.89518h28.394zm-10.325-0.39623v-1.2914h2.5813v2.5828h-2.5813zm5.1626 0v-1.2914h2.5813v2.5828h-2.5813zm-59.288 1.816c0.45389-1.2098 1.2704-2.773 2.0781-3.9781 0.40886-0.61007 0.74338-1.1353 0.74338-1.1672 0-0.14068-2.2594 0.80821-3.0419 1.2775-1.5358 0.92115-3.5004 2.8254-4.2675 4.1364l-0.29145 0.49812h4.4917zm10.243 0.68146c0-0.50389-2.2675-4.1474-3.2973-5.2983l-0.55614-0.62152-0.53359 0.6039c-1.2924 1.4626-2.4849 3.3026-3.1086 4.7962l-0.25264 0.60499h3.8741c2.1308 0 3.8741-0.03839 3.8741-0.08532zm6.9867-0.43202c-0.52965-0.94015-2.8206-3.1903-3.9917-3.9206-0.97837-0.61014-3.3177-1.6495-3.3177-1.4741 0 0.03187 0.33452 0.5571 0.74338 1.1672 0.80765 1.2051 1.6242 2.7682 2.0781 3.9781l0.28767 0.76677h4.4917z" />
</svg>
