<svg class="h-16 w-16" fill="currentColor" stroke="none" viewBox="0 0 80 80" xmlns="http://www.w3.org/2000/svg">
<path d="m73.399 79.896c-1.5416-0.31738-1.9748-0.66777-7.015-5.6741l-4.8822-4.8494-1.0777 0.49643c-8.8216 4.0637-18.882 2.2987-25.692-4.5074-3.2682-3.2662-5.286-7.0412-6.2694-11.729-0.45095-2.1497-0.49258-5.9255-0.0896-8.1309 1.5746-8.6179 7.6549-15.389 16.083-17.91 4.2874-1.2825 9.6965-1.0973 14.059 0.48142 6.3448 2.296 11.565 7.6517 13.689 14.043 0.81229 2.4449 1.0287 3.6991 1.1239 6.5127 0.10165 3.0054-0.20474 5.2844-1.0512 7.819-0.46771 1.4005-1.5096 3.6646-2.2175 4.8187l-0.31874 0.51964 4.7698 4.7967c4.4136 4.4385 4.7963 4.8668 5.1241 5.7349 0.44384 1.1751 0.4886 2.8024 0.10754 3.9091-0.88783 2.5784-3.71 4.2109-6.3427 3.6689zm2.7076-2.9805c0.7131-0.48833 1.1642-1.2096 1.2787-2.0448 0.19255-1.4039 0.0761-1.561-4.7614-6.4192l-4.4728-4.492-1.157 1.179c-0.63635 0.64846-1.6136 1.5376-2.1716 1.9759l-1.0146 0.79687 4.4332 4.4477c2.7638 2.7728 4.6689 4.5617 5.0591 4.7505 0.8073 0.39067 2.0813 0.30262 2.8065-0.19396zm-21.38-7.9524c8.1712-1.6642 14.377-8.1277 15.764-16.419 0.38046-2.274 0.25254-5.7415-0.28864-7.8239-1.5502-5.9649-5.2637-10.634-10.565-13.282-6.4344-3.2147-14.59-2.5859-20.422 1.5747-3.4387 2.4531-6.165 6.0966-7.4485 9.9544-0.7745 2.3279-0.98821 3.6525-1.0018 6.2094-0.014 2.6224 0.17798 3.9778 0.87477 6.1763 0.99061 3.1256 2.6091 5.7747 4.9689 8.1331 2.7456 2.7439 5.6975 4.3902 9.6629 5.389 2.4409 0.6148 5.7025 0.64888 8.4548 0.08833zm-11.857-6.0402c-0.336-0.14466-2.0693-1.7829-4.4856-4.2396-3.4546-3.5123-3.9592-4.0881-4.1111-4.6908-0.28878-1.1462-0.0206-1.7553 1.4446-3.2805 1.7083-1.7784 2.4222-2.1155 3.7361-1.7645 0.55647 0.14868 1.0485 0.54734 2.7442 2.2235 1.8756 1.8539 2.0917 2.022 2.343 1.822 0.15223-0.12116 3.9748-3.3845 8.4947-7.2518s8.4616-7.1568 8.7594-7.31c1.2917-0.66411 2.4443-0.18309 4.0075 1.6725 1.1467 1.3612 1.4745 1.9811 1.4745 2.7885 0 1.1843-0.26573 1.4403-11.282 10.868-5.987 5.1235-10.801 9.1301-11.093 9.2316-0.68859 0.2399-1.3691 0.21689-2.0325-0.06873zm11.734-11.481c5.4643-4.6704 9.9627-8.5139 9.9965-8.541 0.0338-0.02719-0.33971-0.50611-0.83004-1.0643l-0.89152-1.0148-8.7921 7.5239c-4.8356 4.1381-8.9188 7.6328-9.0737 7.766s-0.5272 0.24211-0.8274 0.24211c-0.49583 0-0.77125-0.22496-3.0074-2.4565l-2.4616-2.4565-1.8646 1.8831 3.5899 3.5903c3.5412 3.5416 3.5942 3.5864 3.9083 3.3048 0.17515-0.15701 4.7892-4.1067 10.253-8.7771zm-45.003 25.788c-0.9561-0.27693-1.9784-1.1148-2.4373-1.9976-0.4049-0.77892-0.43601-0.97024-0.43601-2.6816v-1.8428l-1.9948-0.0548c-1.8474-0.05074-2.0494-0.08685-2.733-0.48846-0.8277-0.48625-1.5659-1.4504-1.8252-2.3839-0.12274-0.44185-0.17316-7.5403-0.17378-24.466l-9.4e-4 -23.844 19.482-19.47h19.254c21.187 0 20.013-0.052925 21.24 0.95766 1.0181 0.83867 1.2607 1.5083 1.3529 3.7332l0.081 1.9545 1.9557 0.078182c1.7805 0.071176 2.0218 0.11702 2.6936 0.51166 0.83341 0.48961 1.4681 1.2422 1.7769 2.1071 0.16571 0.46406 0.21093 2.5157 0.21636 9.8164 7e-3 10.069 0.0358 9.7431-0.87692 10.09-0.53428 0.20301-1.4199-0.1878-1.6205-0.71509-0.0964-0.25348-0.15547-3.8214-0.15547-9.3964v-8.9878l-0.38403-0.3838c-0.35918-0.35896-0.49079-0.3838-2.0339-0.3838h-1.6499v15.582l-0.36211 0.33998c-0.49622 0.46589-1.3523 0.45548-1.801-0.02192l-0.34018-0.36189-9.4e-4 -10.31c-6.3e-4 -6.6808-0.0584-10.517-0.16422-10.898-0.31594-1.137 1.1375-1.0597-19.092-1.0155l-18.215 0.039745-0.0782 7.9745c-0.0856 8.7265-0.0315 8.2555-1.0746 9.3556-1.1153 1.1762-0.60687 1.1119-9.4863 1.1989l-7.9793 0.07818-0.0428 22.673c-0.0236 12.47-4e-3 22.833 0.0431 23.028 0.0473 0.19569 0.22497 0.49473 0.39488 0.66454 0.30326 0.30307 0.58313 0.30879 15.211 0.31105 11.606 0.0018 14.988 0.04553 15.289 0.19772 0.8456 0.42762 0.99717 1.4663 0.31366 2.1494-0.30229 0.30211-0.56961 0.30875-12.434 0.30875h-12.125v1.5508c0 0.85296 0.0437 1.6647 0.0972 1.804 0.28345 0.73822-0.77556 0.71064 27.282 0.71064h26.3l0.38403 0.3838c0.64558 0.64519 0.47763 1.6525-0.34886 2.0925-0.42384 0.2256-52.723 0.23695-53.501 0.01161zm8.662-58.977 0.43365-0.4334 0.0456-6.5638c0.0251-3.6101-0.01-6.5638-0.0776-6.5638-0.16186 0-13.971 13.799-13.971 13.961 0 0.06842 2.9555 0.10389 6.5678 0.07884l6.5678-0.04555zm-12.486 46.651-0.45734-0.45706v-3.5982c0-2.002 0.0689-3.7792 0.15527-4.0063 0.17863-0.46954 0.94676-0.84835 1.5043-0.74184 0.2098 0.04009 0.52068 0.24977 0.69084 0.46597 0.28271 0.35919 0.3094 0.64075 0.3094 3.2647v2.8716h5.813l0.45733 0.45706c0.27571 0.27554 0.45734 0.62186 0.45734 0.87202s-0.18163 0.59648-0.45734 0.87202l-0.45733 0.45706h-7.5581zm1.3348-14.625c-0.42211-0.42186-0.51186-1.235-0.18348-1.6625 0.45975-0.59845 0.66175-0.6119 9.1886-0.6119h8.3146l0.45734 0.45706c0.58353 0.58318 0.61161 1.2793 0.0733 1.8173l-0.38403 0.3838h-17.082zm0-5.3163c-0.72141-0.72097-0.3898-1.9565 0.58985-2.1977 0.1958-0.04821 4.217-0.0676 8.9359-0.04306l8.5799 0.04459 0.29902 0.36914c0.45504 0.56175 0.39973 1.4835-0.11322 1.8868-0.4059 0.31908-0.54704 0.32407-9.1599 0.32407h-8.7476zm0.29114-5.09c-0.75377-0.30352-0.91713-1.4913-0.29114-2.1169l0.38403-0.3838h19.273l0.38403 0.3838c0.37792 0.3777 0.4957 1.0198 0.28684 1.5637-0.26844 0.69911-0.44685 0.7112-10.339 0.70072-5.1458-0.0055-9.5099-0.07185-9.6979-0.14754zm0.0289-5.3394c-0.80902-0.44223-0.96321-1.451-0.32003-2.0938l0.38403-0.3838h22.402l0.38403 0.3838c0.53831 0.53798 0.51022 1.2341-0.0733 1.8173l-0.45734 0.45706-11.003-0.0048c-7.6618-0.0033-11.098-0.0567-11.316-0.1758zm0.23468-5.2448c-0.95399-0.3544-1.242-1.4785-0.55471-2.1654l0.38403-0.3838h25.062l0.38404 0.3838c0.52701 0.52669 0.51851 1.3118-0.0197 1.8171l-0.4037 0.37907-12.308 0.02819c-6.7696 0.01551-12.414-0.01104-12.543-0.05899zm46.515-14.747c-0.70302-0.28294-0.82959-0.86597-0.82959-3.8213v-2.7441h-2.9016c-2.8721 0-2.9055-0.0039-3.2856-0.3838-0.23497-0.23482-0.38404-0.56368-0.38404-0.84721 0-1.3316 0.30909-1.4272 4.6155-1.4272 3.6855 0 4.2814 0.09373 4.5183 0.71064 0.0534 0.13921 0.0972 1.9303 0.0972 3.9802 0 2.0499-0.0437 3.841-0.0972 3.9802-0.10502 0.27349-0.85528 0.71684-1.1858 0.70073-0.11184-0.0054-0.35807-0.07218-0.54718-0.1483z" />
</svg>
