<svg class="h-16 w-16" fill="currentColor" stroke="none" viewBox="0 0 80 80" xmlns="http://www.w3.org/2000/svg">
<path d="m23.007 79.616c-0.93574-0.93414-5e-3 -3.9499 1.7457-5.6562 1.4303-1.394 3.8793-2.2613 5.6408-1.9976l0.68323 0.10228v-6.4347l-13.19-0.04334c-13.134-0.04315-13.193-0.04477-14.02-0.38314-1.6034-0.65622-2.8686-1.9193-3.526-3.5199l-0.34039-0.82886v-56.107l0.34039-0.82886c0.72297-1.7605 2.173-3.0935 3.949-3.6302 1.0218-0.3088 1.4294-0.31185 36.024-0.27009 27.806 0.033571 35.108 0.083028 35.566 0.24089 1.6196 0.55906 3.1712 2.0873 3.843 3.785 0.26301 0.66471 0.27827 2.2421 0.27827 28.757 0 26.515-0.0153 28.092-0.27827 28.757-0.67123 1.6964-2.0146 3.0374-3.7139 3.7075-0.65215 0.25715-1.6847 0.28101-13.894 0.32113l-13.19 0.04334v6.4347l0.68323-0.10228c1.014-0.15181 2.705 0.16603 3.8569 0.72496 2.065 1.002 3.6524 3.252 3.86 5.4709 0.0903 0.96494 0.0702 1.058-0.30907 1.4366l-0.40559 0.40489h-33.218zm31.71-2.1068c0-0.67462-1.116-2.0338-2.1028-2.5611l-0.6369-0.34033h-11.977c-13.299 0-12.269-0.07933-13.549 1.0431-0.52305 0.45846-1.167 1.4749-1.167 1.842 0 0.11134 4.6339 0.16251 14.716 0.16251 9.0233 0 14.716-0.05652 14.716-0.14611zm-8.1409-8.6841v-3.2039h-13.151v6.4077h13.151zm28.179-5.7188c1.0287-0.22024 1.9956-0.96328 2.4824-1.9076 0.33071-0.64154 0.39566-1.0218 0.46021-2.6945l0.0751-1.9475h-75.346l4e-3 1.9927c4e-3 1.7564 0.0464 2.0746 0.35849 2.6838 0.45095 0.88018 1.2984 1.5652 2.2537 1.8216 1.0034 0.26937 68.461 0.31929 69.711 0.05159zm-65.752-14.293v-5.2427l0.38427-0.38361c0.46962-0.46881 1.0044-0.48939 1.5516-0.0597l0.4125 0.32392v10.605h6.0982l0.0429-8.9222 0.0429-8.9222 0.36959-0.2987c0.51457-0.41587 1.2063-0.38075 1.6728 0.08491l0.38427 0.38361v17.675h6.1057v-13.105l0.4125-0.32392c0.5472-0.42969 1.0819-0.40912 1.5516 0.0597l0.38427 0.38361v12.986h6.1057v-7.637c0-7.4895 6e-3 -7.6449 0.32447-8.0488 0.39685-0.50364 1.1856-0.55514 1.7326-0.11313l0.36959 0.29866 0.0894 15.5h6.0945v-10.134c0-9.4561 0.0183-10.15 0.27397-10.375 0.15068-0.13209 0.42896-0.28727 0.6184-0.34485 0.40286-0.12244 1.2156 0.24946 1.3587 0.62172 0.0535 0.13915 0.0973 4.7483 0.0973 10.243v9.9896h6.1057l5e-3 -8.8693c4e-3 -6.7256 0.0511-8.9292 0.19569-9.1172 0.31069-0.40397 0.86113-0.6261 1.287-0.51938 0.88101 0.22074 0.86061-0.0075 0.86061 9.6323v8.8736h6.1057v-24.874l0.45762-0.45684c0.57884-0.57784 1.0108-0.57784 1.5896 0l0.45762 0.45684v24.874h6.1057v-14.378c0-14.17 5e-3 -14.383 0.31311-14.691 0.41888-0.41816 1.2117-0.40524 1.6729 0.02724l0.36234 0.33982v28.702h6.7319v-23.891c0-15.541-0.0556-24.183-0.15923-24.729-0.21478-1.1306-0.77213-1.9171-1.7588-2.482l-0.82171-0.47044-69.866-0.00294-0.8398 0.43658c-0.6478 0.33677-0.95612 0.62996-1.3486 1.2824l-0.50881 0.84587v49.01h6.5754zm0.78751-11.056c-0.61695-0.30986-0.88433-0.91186-0.64739-1.4576 0.29671-0.68341 9.0066-8.0311 9.52-8.0311 0.22852 0 2.1726 1.0115 4.537 2.3607l4.1371 2.3607 0.7228-0.18169c0.39754-0.09993 2.1726-0.60331 3.9445-1.1186l3.2217-0.93694 4.0571-2.2827c2.2314-1.2555 4.2481-2.3779 4.4815-2.4941 0.38737-0.19291 0.76431-0.11518 4.3186 0.8906 2.1418 0.60608 4.0105 1.1368 4.1526 1.1795 0.17319 0.05197 1.5994-1.0739 4.327-3.4158 3.8323-3.2904 4.1516-3.528 5.4951-4.0904 0.78451-0.32841 1.4264-0.6558 1.4264-0.72752 0-0.07173-0.17613-0.52798-0.39139-1.0139-0.21527-0.48591-0.39139-0.9311-0.39139-0.98932 0-0.10418 6.8434 0.67277 6.9611 0.79032 0.0752 0.07505-4.0272 5.5908-4.1646 5.5995-0.0549 0.0035-0.29442-0.4508-0.5323-1.0095-0.23787-0.55872-0.45156-1.0159-0.47488-1.0159-0.0233 0-0.60729 0.23783-1.2977 0.52852-1.1288 0.47523-1.6906 0.9007-5.5728 4.2197-3.4643 2.9618-4.4065 3.6912-4.7676 3.6912-0.24751 0-2.2428-0.51595-4.4341-1.1466l-3.984-1.1466-8.279 4.7155-4.3004 1.2171c-2.3652 0.66939-4.4634 1.2144-4.6627 1.2112-0.19925-0.0032-2.1552-1.0308-4.3465-2.2835l-3.9842-2.2776-3.7944 3.2398c-2.0869 1.7819-3.9 3.326-4.0292 3.4313-0.39445 0.32166-0.84188 0.38754-1.2477 0.18372zm-0.31785-12.771c-0.43051-0.42977-0.41553-1.2991 0.0295-1.7131 0.32128-0.2988 0.53897-0.31866 3.493-0.31866s3.1717 0.01986 3.493 0.31866c0.51254 0.47668 0.51386 1.3167 3e-3 1.7521-0.28295 0.24106-0.69971 0.2735-3.5131 0.2735-2.9833 0-3.2125-0.02045-3.5052-0.31257zm11.44-0.09922c-0.43043-0.54626-0.40982-1.0801 0.0598-1.5489l0.38427-0.38361h6.1737c5.7988 0 6.1957 0.01776 6.5355 0.29244 0.50268 0.40635 0.50268 1.3531 0 1.7594-0.33993 0.27478-0.7381 0.29244-6.5953 0.29244h-6.2335zm-11.31-7.1701c-0.58058-0.31827-0.73268-1.0743-0.32563-1.6186l0.30739-0.41106 14.589-0.08122 0.32065 0.34358c0.40203 0.43078 0.41093 1.0764 0.0215 1.5567l-0.29918 0.36896-7.0981 0.03534c-5.9877 0.02982-7.1634-4.7e-4 -7.5158-0.19365zm19.489 0.0813c-0.70307-0.28737-0.86787-1.1216-0.35112-1.7774l0.32447-0.41179h15.767l0.32448 0.41179c0.4045 0.51336 0.41291 1.0074 0.0253 1.4854l-0.2992 0.36896-7.7243 0.03139c-4.2661 0.01734-7.8774-0.03119-8.0663-0.1084zm-19.776-7.7739c-0.24698-0.31345-0.31166-0.55236-0.2427-0.89655 0.19942-0.99535-0.42908-0.93816 10.82-0.98465l10.253-0.04238 0.38758 0.38692c0.47584 0.47502 0.50449 1.1546 0.0684 1.6219l-0.31921 0.34204h-20.63zm25.519 0.11475c-0.43783-0.43708-0.40322-1.1745 0.0777-1.6546l0.39077-0.3901 9.5792 0.09112 0.2991 0.36896c0.38754 0.47805 0.3791 0.97208-0.0254 1.4854l-0.32448 0.41179h-4.8419c-4.6331 0-4.8554-0.01348-5.155-0.31257z" />
</svg>
