<svg class="h-16 w-16" fill="currentColor" stroke="none" viewBox="0 0 80 80" xmlns="http://www.w3.org/2000/svg">
<path d="m37.45 79.812c-1.2325-0.44215-2.1909-1.3948-2.593-2.5776-0.13292-0.39099-0.18085-5.6618-0.18085-19.887 0-21.772-0.0847-20.24 1.1898-21.514 1.2736-1.2731-0.27355-1.1916 21.753-1.1456 18.851 0.03944 19.585 0.05174 20.161 0.33788 0.76125 0.37792 1.4331 1.0495 1.8737 1.873l0.34621 0.64705v19.797c0 19.008-0.0116 19.819-0.29151 20.345-0.40691 0.76461-1.1621 1.5319-1.9003 1.9309l-0.62624 0.33842-19.57 0.0335c-16.15 0.02765-19.673-0.0036-20.162-0.17893zm39.509-2.8943 0.45763-0.45746v-19.037c0-14.173-0.0465-19.125-0.18212-19.379-0.38184-0.71667-0.42941-0.72289-5.5714-0.72812l-4.8925-5e-3v8.8513c0 9.0457-0.0446 9.8097-0.61296 10.504-0.79973 0.97625-2.4006 1.2995-3.4046 0.68756-0.27223-0.16593-1.5756-1.569-2.8963-3.118-1.3208-1.549-2.4444-2.8039-2.4969-2.7886-0.0525 0.01523-1.1985 1.3117-2.5466 2.8811-1.3481 1.5694-2.6578 2.9603-2.9104 3.0909-0.60454 0.3125-1.7786 0.30213-2.4613-0.02176-0.30055-0.14257-0.73391-0.5423-0.96302-0.8883l-0.41656-0.62909-0.0878-18.569h-9.811l-0.8255 0.82519 5e-3 19.189c5e-3 20.219-0.0219 19.447 0.69954 19.861 0.23067 0.13224 5.3353 0.18076 19.386 0.18427l19.073 0.0048zm-26.862-2.3856c-0.67749-0.40234-0.69435-0.51458-0.69954-4.6555l-5e-3 -3.9773-1.0807 1.0429c-1.2247 1.1819-1.7157 1.3158-2.4645 0.67196-0.32497-0.27944-0.43143-0.51259-0.43143-0.94489 0-0.53076 0.17583-0.74998 2.3386-2.9156 3.1335-3.1376 2.7888-3.1359 5.8984-0.02747 2.1611 2.1603 2.315 2.3533 2.315 2.9024 0 0.75565-0.55836 1.3565-1.2606 1.3565-0.39397 0-0.70586-0.20637-1.5651-1.0356l-1.073-1.0356-0.0468 4.005c-0.0439 3.7648-0.0656 4.0238-0.36044 4.3183-0.39493 0.39444-1.1559 0.53778-1.565 0.2948zm13.061-0.27489-0.45763-0.45746v-7.9005l-1.0807 1.0429c-0.8661 0.83584-1.1784 1.0429-1.5727 1.0429-0.7022 0-1.2606-0.60086-1.2606-1.3565 0-0.54911 0.15395-0.74211 2.315-2.9024 3.0981-3.097 2.747-3.0973 5.8705 0.0059 2.2115 2.1971 2.3352 2.3524 2.3352 2.929 0 0.46498-0.0983 0.69346-0.41578 0.96645-0.73171 0.62916-1.2316 0.48922-2.4488-0.68542l-1.0807-1.0429v7.9005l-0.45763 0.45746c-0.27588 0.27578-0.62265 0.45747-0.87312 0.45747s-0.59723-0.18168-0.87312-0.45747zm-9.9872-22.082c2.7097-3.1756 3.2118-3.5547 4.4782-3.3812 0.39474 0.05408 0.90875 0.22139 1.1422 0.37179 0.23351 0.1504 1.496 1.5235 2.8054 3.0514 1.3095 1.5278 2.4106 2.7779 2.4468 2.7779 0.0363 0 0.0659-3.9791 0.0659-8.8423v-8.8423h-13.464v8.8423c0 4.8633 0.0268 8.8423 0.0596 8.8423s1.1424-1.2689 2.4658-2.8198zm-24.762 19.023c-3.74-0.81546-8.489-2.7503-11.58-4.7182-4.476-2.8492-8.7526-7.1666-11.541-11.652-2.4269-3.9032-4.2492-8.9233-4.9974-13.767-0.38773-2.51-0.38613-7.5264 3e-3 -10.089 2.1532-14.171 11.953-25.474 25.654-29.589 3.273-0.98292 6.2579-1.3872 10.216-1.3836 3.5956 0.003272 5.748 0.26342 8.916 1.0776 2.7286 0.70126 4.3667 1.3121 6.9673 2.5981 9.5691 4.732 16.407 13.275 18.96 23.688 0.25203 1.0278 0.50316 2.3072 0.55807 2.843 0.0927 0.90505 0.0711 1.0029-0.3047 1.3786-0.50786 0.50767-1.198 0.52833-1.7461 0.05228-0.33971-0.29506-0.46914-0.66916-0.79873-2.3084-1.0567-5.2557-3.5529-10.554-6.8292-14.495-0.54244-0.65245-1.176-1.4083-1.4079-1.6796l-0.4216-0.4933-0.90915 0.51929c-0.50003 0.28561-1.4969 0.80264-2.2153 1.149-1.007 0.48547-1.2869 0.68911-1.2222 0.88923 0.0461 0.14275 0.44536 1.1399 0.88718 2.2158 1.4342 3.4927 2.5814 7.9763 2.9972 11.714 0.22249 2.0002 0.10984 2.4071-0.74439 2.6889-0.65574 0.21633-1.3567-0.10996-1.5915-0.74084-0.0896-0.24077-0.27932-1.3266-0.42159-2.4129-0.33105-2.5276-0.99921-5.4258-1.8098-7.85-0.6407-1.9163-1.6573-4.4527-1.8879-4.7103-0.0688-0.07687-0.98267 0.10862-2.0759 0.42133-1.0741 0.30725-2.7525 0.71505-3.7296 0.90621-0.97716 0.19116-1.825 0.38891-1.8841 0.43943-0.0591 0.05053 0.0255 1.0426 0.18793 2.2046 0.32914 2.3542 0.709 6.3352 0.86713 9.0877 0.10065 1.7518 0.092 1.824-0.26523 2.2303-0.20309 0.23094-0.5954 0.46327-0.87179 0.51629-0.41651 0.07989-0.5802 0.01877-0.95613-0.35702-0.43122-0.43106-0.45881-0.54188-0.55985-2.2485-0.21694-3.6645-0.83867-9.5687-1.1296-10.728-0.0902-0.35954-0.11852-0.36482-1.3683-0.25582-1.4615 0.12745-8.7615 0.14989-10.746 0.03304l-1.3292-0.07825-0.26861 1.9563c-0.52136 3.7971-1.0499 10.777-1.0638 14.046-1e-3 0.34474 0.0361 0.35213 1.7902 0.35213 1.6593 0 1.8236 0.02741 2.2231 0.37097 0.60457 0.51984 0.60457 1.3987 0 1.9186-0.39957 0.34356-0.56383 0.37097-2.2231 0.37097-0.98544 0-1.7905 0.05282-1.789 0.11738 0.0389 1.7106 0.34698 7.6497 0.46872 9.038 0.18037 2.0568 0.7431 6.5746 0.87085 6.9914 0.0663 0.21646 0.22315 0.24713 0.90406 0.17688 0.72029-0.07431 0.88076-0.03602 1.277 0.30472 0.34604 0.29754 0.45325 0.5249 0.45325 0.96123 0 0.74861-0.4724 1.218-1.3471 1.3386l-0.6725 0.09269 0.0497 0.61432c0.0682 0.84321 0.86491 3.8853 1.5426 5.8903 0.51341 1.519 0.54244 1.6972 0.34388 2.1113-0.41595 0.86752-1.5028 1.0578-2.1396 0.37454-0.35837-0.38452-1.6136-4.3008-2.1553-6.7245-0.22091-0.98838-0.42358-1.819-0.45039-1.8458-0.18249-0.18242-6.8192 1.4592-6.8192 1.6867 0 0.06657 0.53317 0.91875 1.1848 1.8937 1.4414 2.1566 1.5277 2.4612 0.88081 3.1079-0.58416 0.58394-1.2321 0.62545-1.7839 0.11428-0.41422-0.38375-2.0924-2.8147-2.5325-3.6684-0.14422-0.27975-0.33411-0.50863-0.422-0.50863-0.25206 0-3.433 1.6178-3.433 1.746 0 0.06329 0.58123 0.56771 1.2916 1.1209 4.1055 3.1972 8.9213 5.4237 13.927 6.4389 2.1639 0.4389 2.5355 0.67158 2.5355 1.5879 0 0.42968-0.10708 0.66358-0.43144 0.94249-0.53096 0.45653-0.92493 0.45456-3.0804-0.01542zm-12.077-14.257c0.0281-0.02153-0.17607-0.55612-0.45364-1.188-2.1694-4.9385-3.3855-10.301-3.8361-16.916l-0.10393-1.5259h-9.3755l0.0825 0.66513c0.0454 0.36582 0.12483 1.1581 0.17656 1.7606 0.14587 1.6992 0.78581 4.6784 1.4079 6.5544 1.4653 4.4186 3.6123 8.1677 6.7122 11.721l1.0357 1.1871 2.1516-1.1093c1.1834-0.61013 2.1745-1.1269 2.2026-1.1485zm4.6148-1.5546c1.0515-0.30142 2.7438-0.71694 3.7608-0.92338 1.0169-0.20644 1.8703-0.39998 1.8963-0.4301 0.026-0.03011-0.0822-0.97029-0.24071-2.0893-0.51593-3.6436-1.0228-10.436-1.0774-14.437-2e-3 -0.15262-1.1764-0.19563-5.3426-0.19563h-5.3399l0.10511 1.6041c0.26733 4.0796 0.89515 7.7169 1.9092 11.061 0.72877 2.4034 2.1245 5.9584 2.3393 5.9584 0.0429 0 0.93838-0.24662 1.9899-0.54804zm-8.9026-22.419c0.38434-6.103 1.5742-11.432 3.6335-16.275 0.37488-0.88149 0.68159-1.6307 0.68159-1.665 0-0.03427-0.52751-0.31273-1.1722-0.6188-0.64474-0.30607-1.6011-0.80776-2.1253-1.1149-0.52418-0.3071-1.0157-0.51968-1.0922-0.47239-0.0765 0.04729-0.71456 0.77004-1.4178 1.6061-4.6019 5.4711-7.237 11.907-7.8792 19.244l-0.0856 0.97814h9.3513zm13.242 1.4868c0.0548-4.0148 0.56304-10.815 1.0791-14.437 0.15941-1.119 0.24541-2.0759 0.19111-2.1264-0.0543-0.05053-0.87369-0.24335-1.8209-0.42851-0.94719-0.18515-2.5985-0.58641-3.6696-0.89168-1.0711-0.30527-2.0283-0.524-2.1272-0.48607-0.41076 0.15757-2.1778 5.0354-2.9609 8.1734-0.6559 2.6283-1.3404 7.6998-1.3404 9.9312v0.46098h5.323c4.1526 0 5.3236-0.04301 5.3257-0.19563zm15.542-18.729c0.67055-0.07032 1.2594-0.16806 1.3086-0.21721 0.13762-0.13756-1.1521-5.1318-1.7615-6.821-1.3669-3.7892-3.0728-6.1197-4.4796-6.1197-0.94474 0-2.2927 1.5538-3.3699 3.8843-1.0629 2.2996-2.9294 8.7726-2.6193 9.0838 0.28731 0.2883 8.6041 0.43284 10.922 0.18981zm-13.508-1.3812c0.70806-3.5409 1.5838-6.2782 2.904-9.0771 0.45676-0.96835 0.79859-1.7606 0.7596-1.7606-0.17694 0-2.7197 1.342-3.3516 1.7689-1.4487 0.97867-3.2098 2.5805-4.3948 3.9974-1.1865 1.4187-2.9634 3.9419-2.9634 4.2081 0 0.20027 5.6224 1.6726 6.6818 1.7498 0.10314 0.0075 0.264-0.38368 0.36454-0.88644zm19.96 0.41201c1.8885-0.39769 4.4619-1.1186 4.4619-1.25 0-0.14848-1.7316-2.749-2.3339-3.5049-0.88362-1.1091-3.1948-3.3662-4.2416-4.1422-1.0433-0.77347-2.6071-1.6818-3.6277-2.107l-0.57476-0.23949 0.76398 1.619c1.0003 2.1199 2.0656 5.2527 2.5703 7.5588 0.22262 1.0172 0.43943 2.0059 0.48179 2.1973 0.0864 0.39044 4e-5 0.39498 2.4999-0.13146zm-28.992-3.2002c0.86973-1.4866 2.7201-3.8765 4.0911-5.284 1.3772-1.4138 1.2906-1.4187-1.3571-0.076318-2.122 1.0759-3.7327 2.0964-5.5843 3.5381-1.2324 0.9596-1.2951 1.0364-1.0176 1.2483 0.31296 0.23903 3.0281 1.6035 3.1806 1.5984 0.0493-0.0016 0.35858-0.4627 0.68728-1.0246zm37.717 0.30241c0.57947-0.29018 1.2654-0.65639 1.5244-0.81381l0.4708-0.28621-1.0536-0.84397c-2.271-1.8192-5.5513-3.7744-7.8562-4.6825l-0.84965-0.33478 1.5578 1.6167c1.5529 1.6116 2.9818 3.4631 3.9894 5.1689 0.60493 1.0241 0.53391 1.0185 2.217 0.17563z" />
</svg>
