<svg class="h-16 w-16" fill="currentColor" stroke="none" version="1.1" viewBox="0 0 80 80" xmlns="http://www.w3.org/2000/svg">
<path d="m5.3453 79.847c-1.6529-0.32371-3.3642-1.4782-4.3151-2.9112-0.83148-1.253-1.0301-2.2136-1.0301-4.9813v-2.5428l0.41292-0.3239c0.2271-0.17814 0.53494-0.3239 0.68408-0.3239 0.14913 0 0.45697 0.14576 0.68407 0.3239 0.40197 0.31531 0.41295 0.37023 0.41383 2.0707 1e-3 1.99 0.17837 3.293 0.55625 4.0871 0.40785 0.85708 1.4111 1.7528 2.3594 2.1067 0.85005 0.31716 1.0494 0.31951 27.159 0.31951 23.29 0 26.381-0.02758 26.988-0.24082 1.6024-0.56275 2.645-1.7737 2.9456-3.4213 0.10698-0.58633 0.1692-3.9049 0.1692-9.0251 0-7.8894 8e-3 -8.1058 0.31343-8.4103 0.17412-0.17364 0.52237-0.31256 0.78356-0.31256 0.83475 0 1.097 0.44832 1.097 1.8753 0 0.68762 0.0556 1.2502 0.12349 1.2502 0.29357 0 2.7512-2.1286 4.2645-3.6937 3.3081-3.4211 5.616-7.1279 7.0936-11.393 0.92091-2.6582 0.93264-2.6144-0.38569-1.4404-2.3292 2.0742-6.31 4.3872-9.5177 5.5301-0.65251 0.23249-1.2745 0.48976-1.3823 0.57172-0.1362 0.10361-0.19589 0.68346-0.19589 1.9029 0 1.9924-0.13795 2.2711-1.1242 2.2711-1.1244 0-1.0698 0.50104-1.0698-9.8161v-9.2445l-17.305-0.04174c-17.186-0.04146-17.308-0.04396-17.748-0.36332-0.24332-0.17686-1.1679-1.3905-2.0547-2.6969l-1.6123-2.3753-21.379 0.0803-0.0784 18.161c-0.0774 17.931-0.0823 18.164-0.39178 18.397-0.44101 0.33228-1.0564 0.30168-1.4592-0.07255l-0.34298-0.31864v-37.158l0.42365-0.50208c0.76791-0.91008 0.90599-0.92841 6.9929-0.92841h5.5461l0.36581-1.3674c3.479-13.005 14.904-22.949 28.408-24.726 1.909-0.25124 7.5456-0.20203 9.4889 0.08284 7.2239 1.059 13.733 4.3492 18.985 9.5956 4.8504 4.8461 7.8791 10.445 9.3534 17.29 0.41762 1.939 0.43436 2.1899 0.43668 6.5483 0.0022 4.0974-0.03164 4.6996-0.35276 6.2789-0.86991 4.2785-2.4341 8.3399-4.4702 11.607-2.3765 3.813-6.1399 7.7627-9.7098 10.19l-0.9011 0.61277v6.0259c0 6.7734-0.0321 7.0251-1.0977 8.6165-1.0018 1.496-2.5483 2.5014-4.381 2.848-1.0372 0.19615-52.738 0.18504-53.742-0.01155zm60.714-33.956c4.8671-2.0479 8.3616-4.5662 10.256-7.3906 0.64557-0.96252 1.4144-2.7848 1.4144-3.3524 0-0.08002-2.8151-0.13982-6.582-0.13982h-6.582v5.7042c0 3.1373 0.055 5.7042 0.12229 5.7042 0.0673 0 0.68432-0.23649 1.3712-0.52552zm11.6-13.813c-0.13252-0.73788-0.86107-2.3214-1.4823-3.2219-1.6495-2.3908-4.8449-4.7851-8.7307-6.542-1.9243-0.87002-3.9534-1.6034-4.0818-1.4753-0.0533 0.0531 0.023 0.6984 0.16953 1.434 0.57764 2.9005 1.0318 6.8534 1.0318 8.9805 0 0.66126 0.047 1.2492 0.10448 1.3065 0.0575 0.0573 3.0272 0.10419 6.5994 0.10419h6.4949zm-32.683-7.135v-6.7833l-1.2929 0.06641c-3.6851 0.18927-6.6885 0.56545-10.008 1.2536l-1.9767 0.40972-0.33279 1.5036c-0.64856 2.9303-1.2698 7.6779-1.2755 9.7473l-2e-3 0.58604h14.888zm17.238 6.041c-1e-3 -2.0493-0.62791-6.8487-1.2615-9.6651l-0.31977-1.4214-1.5206-0.3301c-0.83634-0.18155-2.1819-0.44753-2.9902-0.59106-1.6615-0.29506-2.0565-0.55803-2.0565-1.3691 0-0.65699 0.43598-1.0714 1.1267-1.0709 0.54628 2.93e-4 3.9865 0.5835 4.4191 0.74904 0.33233 0.12717 0.33817 0.15818-0.30286-1.609-1.6228-4.4735-3.7779-8.0143-6.3236-10.389-1.3954-1.3018-2.5431-2.0355-4.0209-2.5704-1.8191-0.65847-1.637-1.3625-1.637 6.3296v6.7004l0.48973 0.09768c0.26935 0.05372 0.89453 0.09768 1.3893 0.09768 1.5844 0 2.2711 1.0328 1.3184 1.9829-0.39518 0.39408-0.44772 0.40303-1.8022 0.30716l-1.3952-0.09875v13.593h14.888l-4.4e-4 -0.74232zm-34.265-2.6712c0.11247-1.6295 0.45579-4.1292 0.83562-6.0843 0.13818-0.71125 0.21035-1.334 0.16037-1.3838-0.15526-0.15483-2.8676 0.88751-4.9894 1.9174-1.9535 0.94822-4.4885 2.5387-5.0733 3.1832-0.28104 0.30969-0.26886 0.31127 2.3957 0.31127 1.5113 0 2.8704 0.07243 3.1194 0.16622 0.66103 0.24906 1.1929 0.82373 2.27 2.4526 1.1191 1.6924 1.1262 1.6893 1.2817-0.56256zm-9.4494-5.0196c2.4597-1.8238 5.4637-3.3276 9.0961-4.5535 1.0693-0.36086 2-0.70482 2.0682-0.76434 0.0682-0.05953 0.4446-1.0483 0.83643-2.1972 1.671-4.8999 3.7219-8.5411 6.4128-11.386 0.57692-0.60986 1.0173-1.1088 0.97869-1.1088-0.0386 0-0.73477 0.2202-1.547 0.48934-9.4611 3.1352-16.903 10.402-20.097 19.623-0.8998 2.5976-0.90183 2.577 0.15874 1.6069 0.50055-0.45782 1.4426-1.2273 2.0935-1.7099zm57.739 0.58771c-2.7154-8.1685-8.7224-14.916-16.61-18.657-1.3996-0.66378-4.813-1.9405-5.188-1.9405-0.0496 0 0.47931 0.60695 1.1753 1.3488 2.7293 2.909 4.6802 6.5606 6.7039 12.548 0.28203 0.8344 0.30083 0.852 1.2267 1.1482 5.0146 1.6044 9.3234 3.8956 12.067 6.4167 0.60335 0.55443 1.123 0.98405 1.1547 0.95473 0.03173-0.02933-0.20644-0.8479-0.52927-1.819zm-41.528-6.9922c2.5031-0.46188 5.1998-0.78431 7.3571-0.87965 1.039-0.04591 2.1182-0.11809 2.3983-0.16039l0.50932-0.07691v-6.7129c0-7.6596 0.16266-6.9669-1.5019-6.3958-2.3716 0.81368-5.0919 3.138-6.9451 5.9341-1.1909 1.7968-2.7752 4.9856-3.5328 7.1107-0.30644 0.85953-0.55719 1.5851-0.55721 1.6124-3e-5 0.02728 0.12336 0.01292 0.2742-0.03188 0.15083-0.04481 1.05-0.22462 1.9981-0.39957zm33.903 57.215c-2.5125-2.5055-2.5127-2.3899 0.0104-4.906 1.7869-1.7819 1.89-1.8581 2.4527-1.8108 0.41866 0.03522 0.67641 0.16892 0.89756 0.46557 0.41574 0.5577 0.27332 1.0574-0.55866 1.9602l-0.66072 0.71694 1.4293-0.08029c1.6419-0.09222 2.7401-0.5636 3.4375-1.4755 0.84165-1.1004 0.85322-1.195 0.85322-6.9789 0-3.5201 0.05974-5.5442 0.1732-5.8688 0.29323-0.83883 1.0476-1.0399 1.7714-0.47215l0.41976 0.32926-0.04602 6.0391-0.04602 6.0391-0.48728 1.0255c-1.1672 2.4564-3.4062 3.737-6.539 3.7401l-0.91442 8.79e-4 0.64017 0.72526c0.75396 0.85416 0.8552 1.5633 0.2972 2.0817-0.72049 0.66938-1.1192 0.47436-3.1303-1.5312zm-51.298-11.464c-0.17239-0.09748-0.36524-0.25357-0.42856-0.34687-0.0633-0.0933-0.11622-3.4464-0.11754-7.4514-2e-3 -7.2052 1e-3 -7.2849 0.32739-7.5795 0.30739-0.27748 0.62092-0.29771 4.6151-0.29771 2.9741 0 4.3395 0.05398 4.4623 0.17642 0.32013 0.31906 0.37396 1.4205 0.0905 1.8519l-0.25888 0.39399h-6.418v4.3758h1.8022c1.5932 0 1.8385 0.03624 2.1156 0.31256 0.37494 0.3739 0.40565 1.0494 0.0695 1.528-0.22894 0.32595-0.35915 0.34733-2.1156 0.34733h-1.8717l-2e-3 3.0865c-1e-3 1.6976-0.0542 3.1639-0.11753 3.2585-0.33606 0.50189-1.5348 0.69379-2.1524 0.34455zm13.959-0.17808-0.40348-0.40236v-12.673h-1.783c-2.0028 0-2.1084-0.05056-2.2463-1.0759-0.0702-0.52163-0.0186-0.6839 0.32681-1.0283l0.41011-0.40898 4.8716 0.04546c4.613 0.04306 4.8834 0.06157 5.0939 0.34883 0.29437 0.40176 0.28291 1.338-0.0217 1.7716-0.22793 0.32451-0.36177 0.34733-2.0373 0.34733h-1.7933v6.4664c0 7.2856 0.0855 6.8099-1.2472 6.9376-0.66788 0.064-0.81867 0.02162-1.1702-0.32889zm8.4625 0-0.40348-0.40236v-7.1786c0-6.832 0.0144-7.1964 0.29922-7.5475 0.28505-0.35147 0.40488-0.37137 2.5306-0.42022 4.6088-0.10593 6.1713 0.46371 7.1664 2.6127 0.32326 0.69815 0.39091 1.086 0.39522 2.266 9e-3 2.4275-0.63368 3.6545-2.3571 4.501-1.0046 0.49344-1.1481 0.51962-3.1331 0.57153l-2.0803 0.0544v2.7004c0 3.0735 9e-3 3.0512-1.2472 3.1716-0.66789 0.064-0.81867 0.02162-1.1702-0.32889zm6.2851-8.1664c0.65582-0.48473 0.90411-1.1041 0.90271-2.252-1e-3 -1.1493-0.30396-1.8706-0.96627-2.3036-0.33425-0.21853-0.75973-0.27496-2.0732-0.27496h-1.6526l-0.043 2.6316-0.043 2.6316 1.7168-0.053c1.4437-0.04457 1.7871-0.10495 2.1587-0.37961zm-41.259-32.43c-0.28198-0.31093-0.29854-0.64249-0.29854-5.9776 0-6.053 0.0443-6.4737 0.828-7.872 0.57482-1.0256 1.7242-2.0745 2.8543-2.6049 0.89648-0.42072 1.2218-0.48545 2.7038-0.53798 0.92657-0.03285 1.6847-0.09739 1.6847-0.14343 0-0.04604-0.31734-0.42204-0.70521-0.83555-0.38786-0.41351-0.70521-0.87985-0.70521-1.0363 0-0.39234 0.43533-0.97637 0.8387-1.1252 0.60102-0.22171 1.1407 0.13864 2.9067 1.941 2.3209 2.3685 2.3242 2.2191-0.10184 4.6335-1.1313 1.1259-2.0128 1.8748-2.286 1.9419-0.62264 0.15311-1.2625-0.33937-1.33-1.0237-0.043-0.43628 0.0632-0.62981 0.69932-1.2738l0.75007-0.75941-1.4045 0.0034c-2.0957 0.0051-3.2918 0.69511-4.0548 2.339-0.30795 0.66343-0.33187 1.0445-0.4056 6.4611-0.0745 5.4689-0.0935 5.7671-0.38256 5.9776-0.45344 0.33029-1.2425 0.27693-1.5912-0.1076z" />
</svg>
