<svg class="h-16 w-16" fill="currentColor" stroke="none" viewBox="0 0 80 80" xmlns="http://www.w3.org/2000/svg">
<path d="m3.6741 79.588c-1.7677-0.79679-2.8552-2.0794-3.4195-4.033-0.74369-2.5748 0.18026-5.4026 2.2682-6.942 1.6376-1.2074 4.0435-1.4097 5.7975-0.48747 1.1636 0.61181 2.2818 1.8335 2.7567 3.0119l0.38058 0.94436 13.484 0.0058 0.0884-0.92064c0.1054-1.0975 0.76472-2.486 1.4454-3.044 1.0068-0.82529 1.4306-0.90938 4.5829-0.90938h2.9553l0.079-2.0589c0.0953-2.4855 0.33008-3.2063 1.3723-4.2133 0.76635-0.74048 1.6108-1.1229 2.4797-1.1229h0.49012v-6.1982l-2.9592-0.05221c-2.8676-0.05059-2.9714-0.06457-3.3543-0.45147-0.21728-0.2196-0.43876-0.61312-0.49218-0.87449-0.11187-0.54734 0.2771-1.5667 0.67944-1.7805 0.14388-0.07647 8.1788-0.17687 17.855-0.22309l17.594-0.08403 0.64953-0.37328c0.7975-0.45832 1.5148-1.3665 1.7524-2.2187 0.12714-0.45606 0.17851-4.4189 0.17851-13.772v-13.132h-60.679v13.132c0 9.3534 0.0514 13.316 0.1785 13.772 0.23759 0.85223 0.95489 1.7604 1.7524 2.2187 0.60602 0.34827 0.90453 0.37891 4.4559 0.45732l3.8064 0.08403 0.37704 0.47156c0.40429 0.50565 0.50214 1.4002 0.21601 1.9748-0.36714 0.73724-0.87394 0.83104-4.49 0.83104-4.5154 0-5.5835-0.29212-7.278-1.9904-0.96131-0.96351-1.4144-1.7156-1.8274-3.0332-0.31409-1.002-0.31859-1.3273-0.31859-23.009 0-24.732-0.0875-22.94 1.1879-24.311 1.2518-1.3453 0.67081-1.2883 12.574-1.2346l10.556 0.04764 0.79508 0.47371c0.52172 0.31085 1.6943 1.4799 3.4104 3.4002l2.6154 2.9265 30.885 0.0904 1.1916 0.63293c1.799 0.95558 2.8965 2.3816 3.4729 4.5123 0.22647 0.83722 0.24808 2.7405 0.20985 18.483l-0.04262 17.549-0.50067 1.1359c-0.59126 1.3414-1.7765 2.751-2.8326 3.3688-1.6601 0.97103-1.4424 0.95762-15.544 0.95762h-12.947v6.2186l0.58646 0.0017c0.73164 2e-3 2.0151 0.64078 2.5712 1.2796 0.84036 0.96536 1.0576 1.7955 1.0614 4.0549l0.0034 2.0588h2.9142c3.3234 0 3.8422 0.11185 4.8233 1.0399 0.87963 0.83211 1.3332 1.84 1.3332 2.9628v0.87132l13.684-0.0058 0.38058-0.94436c0.47735-1.1845 1.5936-2.3998 2.7784-3.025 0.8136-0.42935 1.0685-0.47873 2.4711-0.47873 1.3706 0 1.6748 0.05583 2.4609 0.4518 0.49336 0.24849 1.2353 0.81572 1.6488 1.2605 2.824 3.038 2.0649 8.1201-1.4945 10.004-1.4027 0.74258-3.2273 0.85964-4.6238 0.29665-1.4018-0.56508-2.4255-1.5562-3.074-2.9763l-0.54736-1.1984-13.684-0.02342-0.0034 0.54623c-0.0077 1.2202-1.0392 2.7447-2.2607 3.341-0.59177 0.2889-1.3422 0.30708-12.671 0.30686l-12.042-1.68e-4 -0.77579-0.45827c-1.0003-0.59088-1.7278-1.6256-1.9739-2.8074l-0.19329-0.92826-13.478 0.0058-0.3788 0.94002c-0.48926 1.2141-1.6441 2.4796-2.785 3.0518-1.3101 0.65708-3.3381 0.7192-4.6197 0.14152zm3.3155-3.2087c1.094-0.60798 1.7283-2.0463 1.4292-3.2404-0.34284-1.3683-1.3739-2.2279-2.6721-2.2279-1.4305 0-2.6559 1.3902-2.6559 3.0131 0 0.75891 0.6161 1.8357 1.3038 2.2787 0.75598 0.48698 1.8968 0.56458 2.5951 0.17652zm68.598-0.17173c0.70087-0.44141 1.319-1.5115 1.319-2.2835 0-1.6229-1.2254-3.0131-2.6559-3.0131-1.7999 0-3.1544 1.811-2.6712 3.5715 0.52246 1.904 2.4244 2.7225 4.0082 1.7251zm-24.047-0.12002c0.27425-0.29473 0.26146-5.0696-0.01423-5.3155-0.12794-0.11412-1.6161-0.19861-4.0629-0.23067l-3.861-0.05059-0.86668-0.93112-0.0782-3.0284c-0.0631-2.444-0.12346-3.0591-0.31278-3.1874-0.35662-0.24164-4.5877-0.20862-4.8168 0.03759-0.12925 0.13891-0.18794 0.989-0.18854 2.7311-1e-3 2.9976-0.13821 3.6811-0.82977 4.1342-0.45677 0.29932-0.80993 0.32682-4.204 0.3274-4.5376 8.4e-4 -4.1923-0.24005-4.1923 2.924 0 1.7892 0.046 2.231 0.25882 2.4837 0.24622 0.29239 0.81208 0.30736 11.62 0.30736 8.6277 0 11.406-0.04852 11.549-0.20168zm18.798-60.873c0-1.9516-0.0273-2.138-0.43686-2.9832-0.33699-0.69544-0.63038-1.0264-1.2833-1.4478l-0.84643-0.54623h-15.427c-10.515 0-15.579-0.05703-15.905-0.1791-0.29708-0.1113-1.4726-1.3042-3.1054-3.1513-1.4451-1.6347-2.8063-3.1041-3.025-3.2652-0.36767-0.27098-1.1376-0.2931-10.238-0.29412-8.9379-1e-3 -9.8664 0.0244-10.126 0.27705-0.26795 0.2606-0.28599 0.70065-0.28599 6.9749v6.6967h60.679zm-44.806 38.226c-0.57939-0.25485-0.93123-0.84139-0.93123-1.5524 0-0.55027 0.0944-0.76667 0.50718-1.1631 0.69427-0.66666 1.4553-0.6651 2.0782 0.0043 0.75899 0.81568 0.60062 2.1037-0.32168 2.6163-0.50199 0.27898-0.85662 0.30425-1.3324 0.09496zm-2.2797-10.921-0.45714-0.49128v-6.4079c0-6.9505 0.0199-7.1257 0.85577-7.535 0.27079-0.1326 1.3943-0.20079 3.3079-0.20079h2.8979l0.45714 0.49128c0.48887 0.52538 0.58333 1.1249 0.27521 1.7467-0.34891 0.70402-0.59616 0.77637-2.6722 0.78194l-1.994 0.0054v3.0253h1.7772c1.7116 0 1.7924 0.01633 2.1894 0.44309 0.43689 0.46952 0.53813 1.1751 0.25128 1.7511-0.30793 0.61834-0.98233 0.83104-2.635 0.83104h-1.5604l-0.1008 5.0705-0.51073 0.49001c-0.69805 0.66972-1.4578 0.66926-2.0817-0.0014zm14.619-0.08015-0.53173-0.57144v-10.958h-1.3154c-1.2769 0-1.3273-0.01514-1.7203-0.51711-0.46174-0.58974-0.50264-0.9771-0.17504-1.6579 0.36526-0.7591 0.88872-0.85023 4.8839-0.85023 3.877 0 4.3628 0.08526 4.7341 0.83104 0.25173 0.5055 0.18974 1.2785-0.13742 1.7134-0.26197 0.34829-0.46742 0.40704-1.6812 0.48081l-1.3827 0.08404-0.07819 5.4623c-0.08133 5.6812-0.12082 6.0064-0.77525 6.3828-0.60182 0.34614-1.2617 0.20135-1.8208-0.39952zm9.7533 0.08117-0.51073-0.49027-0.04453-6.3136c-0.04927-6.9851-0.04072-7.0546 0.9333-7.5959 0.41372-0.22992 0.90733-0.26258 3.086-0.20413 2.9393 0.07885 3.6451 0.29349 4.7572 1.4468 0.92226 0.95648 1.2426 1.7606 1.3191 3.3111 0.08758 1.7746-0.30204 2.9498-1.3085 3.9468-1.0513 1.0414-1.58 1.2251-3.7772 1.3121l-1.9158 0.07589v1.8206c0 2.0183-0.15353 2.5796-0.80463 2.9414-0.65536 0.36421-1.1713 0.2896-1.7342-0.25077zm5.5359-7.8071c0.99796-0.70404 1.1324-2.1695 0.29171-3.1809-0.43252-0.52036-0.49646-0.54081-1.8683-0.59754l-1.4204-0.05874v4.2773l1.2902-0.07317c0.87111-0.04939 1.4255-0.16863 1.7068-0.36706z" />
</svg>
