<svg class="h-16 w-16" fill="currentColor" stroke="none" viewBox="0 0 80 80" xmlns="http://www.w3.org/2000/svg">
<path d="m33.689 76.328c-9.6679-5.6685-11.217-6.7557-15.099-10.6-7.4305-7.3575-11.92-16.225-13.696-27.049-0.31385-1.9134-0.33663-2.728-0.39143-14.002l-0.0582-11.971 1.8668-0.08507c3.1957-0.14564 5.2618-1.0261 7.3979-3.1526 2.1638-2.1541 3.0677-4.4445 3.0732-7.7875l3e-3 -1.68h46.448l0.0028 1.68c0.0035 2.1399 0.30205 3.5184 1.1126 5.1369 1.2239 2.444 3.5274 4.4166 6.1676 5.2816 1.0304 0.3376 1.7425 0.45399 3.1836 0.52033l1.8563 0.08547v10.978c0 6.3434-0.06839 11.661-0.162 12.596-0.81797 8.1717-3.7273 16.129-8.3336 22.794-1.6817 2.4331-3.2826 4.3254-5.6339 6.6595-2.4627 2.4447-4.5763 4.1641-7.2434 5.8928-1.6042 1.0397-14.101 8.4067-14.208 8.3756-0.02462-0.0071-2.853-1.6596-6.2852-3.672zm11.914-5.0161c7.565-4.4364 9.1511-5.559 12.424-8.7943 2.335-2.3079 3.6171-3.8613 5.5269-6.6962 2.8483-4.228 4.9204-8.9834 6.1423-14.096 1.0591-4.4312 1.2689-7.2835 1.2734-17.305l0.0033-7.381-0.43446-0.09429c-5.5983-1.215-10.156-5.5716-11.563-11.053l-0.28919-1.1264h-37.356l-0.28918 1.1264c-1.0741 4.1836-4.0617 7.8513-7.9691 9.7831-1.0888 0.53828-2.516 1.0543-3.518 1.272l-0.51066 0.11094 3e-3 7.4497c8.9e-4 4.0973 0.0739 8.5046 0.16126 9.7939 0.6199 9.1499 3.7681 17.324 9.4801 24.613 2.1792 2.7811 5.8138 6.1439 8.997 8.3241 2.0714 1.4187 12.236 7.3037 12.469 7.2188 0.1229-0.04486 2.5756-1.461 5.4505-3.1469zm-7.6488-14.211c-4.9563-0.61441-9.225-2.6483-12.577-5.9927-2.9522-2.9454-4.7774-6.31-5.6876-10.484-0.40069-1.8377-0.40465-5.9487-7e-3 -7.8055 0.87248-4.0795 2.8065-7.6575 5.6905-10.528 3.7127-3.6953 8.5031-5.7689 13.845-5.9931 5.7797-0.24258 11.262 1.8871 15.413 5.9876 2.8375 2.803 4.7335 6.2503 5.6215 10.221 0.48274 2.1586 0.51838 6.0808 0.0738 8.12-1.8132 8.3168-8.1223 14.552-16.372 16.182-1.191 0.23523-4.9757 0.42032-5.9995 0.2934zm6.0053-5.108c2.9681-0.75999 5.1518-2.0276 7.4235-4.3092 2.9924-3.0055 4.5816-6.8067 4.5816-10.959 0-6.5775-4.2277-12.573-10.463-14.838-2.0327-0.73842-2.7986-0.85796-5.4933-0.85739-3.1139 6.25e-4 -4.387 0.27293-6.8724 1.4697-8.5482 4.1162-11.643 14.334-6.7763 22.377 1.5067 2.4902 4.3655 5.0147 7.0335 6.2114 3.2148 1.4419 7.1535 1.7794 10.567 0.90551zm-6.3212-9.1731v-3.7506h-7.5833v-4.6883h7.5833v-7.5012h4.7396v7.5012h7.5833v4.6883h-7.5833v7.5012h-4.7396z" />
</svg>
