<svg class="h-16 w-16" fill="currentColor" stroke="none" viewBox="0 0 80 80" xmlns="http://www.w3.org/2000/svg">
<path d="m9.7381 72.448c-2.3575-0.27929-4.5695-2.1737-5.3596-4.5901-0.26331-0.80534-0.28816-0.82853-1.0016-0.93482-0.90344-0.13459-1.9906-0.7793-2.5117-1.4895-0.88899-1.2116-0.8681-0.86585-0.86437-14.3 3e-3 -11.707 0.0189-12.4 0.29432-13.031 0.15998-0.36619 0.52761-0.8413 0.81694-1.0558 0.48882-0.3624 0.70305-0.39577 3.0262-0.47124l2.5002-0.0812 0.0402-10.355 0.0402-10.355h-1.3383c-2.1735 0-2.9752-0.32441-3.6515-1.4776-0.28605-0.48775-0.32428-0.81282-0.32479-2.7622-4.7e-4 -2.0297 0.0283-2.254 0.35472-2.7575 0.19542-0.30144 0.59257-0.71427 0.88255-0.91741l0.52724-0.36934h13.477c13.002 0 13.512 0.0113 14.481 0.32247 1.2219 0.3923 2.6414 1.3263 3.482 2.2909 0.34377 0.39451 3.4729 4.4234 6.9536 8.953l6.3286 8.2357 0.0835-2.0636c0.0878-2.1703 0.16474-2.4458 0.87969-3.1497 0.68945-0.67885 1.1593-0.78189 3.5657-0.78189h2.2427l0.0543-2.802c0.0488-2.5167 0.0915-2.888 0.41957-3.6469 0.43897-1.0155 1.7378-2.3447 2.788-2.8533 0.7406-0.35866 0.83721-0.36304 9.02-0.40996 7.9599-0.0456 8.311-0.0349 9.3252 0.2853 1.3301 0.41998 2.5787 1.5445 3.2185 2.8987l0.43664 0.92427v18.03l-0.42518 0.89908c-0.23385 0.49449-0.63586 1.1089-0.89335 1.3653l-0.46818 0.46626 0.4869 0.57645c0.2678 0.31705 0.66981 0.9818 0.89336 1.4772l0.40645 0.90079v17.897l-0.49301 0.99363c-0.44052 0.88783-0.467 1.016-0.2487 1.2038 0.13438 0.11557 0.37227 0.5025 0.52865 0.85986 0.23593 0.53914 0.28491 1.0861 0.28776 3.2133 2e-3 1.7928-0.06 2.7214-0.20768 3.0888-0.31816 0.79154-1.2229 1.5367-2.009 1.6547-0.36889 0.0554-6.2977 0.0786-13.175 0.0516l-12.504-0.0491-1.0122-0.51839c-0.55674-0.28511-1.2481-0.77155-1.5364-1.081l-0.52411-0.56258-0.56973 0.35003c-0.52207 0.32074-0.84936 0.35682-3.9124 0.43124l-3.3427 0.0812-0.19415 0.68449c-0.6834 2.4094-3.0055 4.4438-5.3948 4.7264-3.3343 0.3943-6.0777-1.3384-7.2043-4.5501l-0.3304-0.94196h-10.823l-0.28626 0.85278c-1.0761 3.2056-3.9278 5.0362-7.2351 4.6444zm3.0147-3.308c2.2311-1.3592 2.5576-4.4794 0.67362-6.4378-2.4619-2.5592-6.7098-0.78447-6.7098 2.8032 0 1.6064 0.68125 2.9022 1.9564 3.7214 1.1102 0.71327 2.8263 0.67673 4.0798-0.0869zm-2.9962-2.5879c-0.68611-0.71321-0.32293-2.0178 0.63103-2.2666 0.85676-0.22354 1.7848 0.75159 1.5684 1.6479-0.24727 1.0241-1.4768 1.37-2.1995 0.61872zm26.572 2.8562c0.79023-0.37521 1.8531-1.5685 2.1057-2.3641 0.10885-0.34284 0.16753-1.0927 0.13391-1.7113-0.0791-1.4545-0.66094-2.4747-1.8254-3.2006-1.6837-1.0496-3.5122-0.82923-4.8751 0.58755-2.543 2.6434-0.78962 7.0013 2.8118 6.9888 0.65307-2e-3 1.2506-0.11109 1.6491-0.30034zm-2.5278-2.8229c-0.46984-0.54258-0.54029-0.8922-0.30017-1.4896 0.52598-1.3086 2.4373-0.90855 2.4373 0.5101 0 1.1592-1.4185 1.8094-2.1371 0.9795zm43.547-3.0456v-2.1116h-21.891l-0.7671-0.7974v-36.562h-4.0628v19.578c0 17.251 0.0286 19.649 0.24036 20.176 0.32376 0.80548 0.65693 1.1677 1.4004 1.5226 0.5894 0.28135 1.3224 0.29857 12.853 0.30193l12.227 3e-3zm-73.131 0.35082c0-0.1644 0.21858-0.75361 0.48573-1.3093 1.2747-2.6516 4.2092-4.2573 6.9253-3.7895 2.5264 0.43517 4.5334 2.1803 5.341 4.6441l0.24704 0.75368h4.2121l-0.1126-16.812-0.42016-1.2995c-1.0298-3.1848-3.5594-5.6574-6.6356-6.486-0.7702-0.20746-1.9397-0.25498-6.276-0.25498h-5.3294v24.055l0.38355 0.3987c0.46442 0.48276 1.1791 0.54324 1.1791 0.0998zm24.217-0.62226c0.79153-2.3383 2.7967-4.054 5.2272-4.4727 2.771-0.4773 5.7646 1.1583 6.9708 3.8085 0.25451 0.55924 0.4628 1.1447 0.46287 1.301 1e-4 0.2328 0.14155 0.28426 0.78143 0.28426h0.78131v-11.045h-18.595v11.055l4.0872-0.0906zm19.156 0.5193 0.38661-0.40187-0.0421-15.557-0.0421-15.557-0.38398-0.77425c-0.21119-0.42583-3.6919-5.0674-7.735-10.314-7.5685-9.8226-7.9648-10.276-9.4328-10.788-0.43179-0.15059-3.7695-0.214-13.427-0.25508l-12.853-0.05468v2.9379h12.673c11.313 0 12.729 0.028 13.202 0.26087 0.38807 0.19142 2.4318 2.7321 7.6761 9.5429 3.931 5.1051 7.2722 9.5351 7.425 9.8443 0.26049 0.52722 0.27779 1.5265 0.27779 16.04v15.478h0.94468c0.79666 0 1.0052-0.063 1.3313-0.40188zm28.44-5.5246c0.44197-0.26924 0.77198-0.63814 0.99037-1.1071 0.31918-0.68538 0.32753-0.91095 0.32753-8.8443 0-5.3722-0.0567-8.2965-0.16667-8.5983-0.40759-1.1182-1.5686-1.8287-2.9976-1.8344l-0.89851-3e-3v4.5642c0 5.1154-0.0425 5.3563-1.0743 6.0851-0.89536 0.63244-1.7669 0.54771-3.4604-0.33641l-1.4032-0.73258-1.4032 0.73258c-1.6123 0.84173-2.5407 0.95524-3.3933 0.41485-1.0453-0.66253-1.055-0.71298-1.1414-5.9284l-0.0781-4.7181-0.54278-0.0536c-1.0137-0.1001-1.8663 0.13288-2.4561 0.67118-1.0064 0.91856-0.98609 0.71551-0.98326 9.8135l3e-3 8.2487 0.35221 0.64642c0.19748 0.36244 0.62539 0.80726 0.97406 1.0125l0.62187 0.36611 16.068 6e-3 0.66284-0.40378zm-48.061-10.988c0-3.5517-0.0991-4.0661-0.9841-5.1113-1.0237-1.2089-1.576-1.416-3.9905-1.496l-2.0838-0.0691 0.71709 1.0126c1.4468 2.043 2.1632 4.2004 2.3618 7.113l0.11314 1.6588h3.8663zm14.689-0.68292v-3.7909l-4.6089-3.1934c-2.5349-1.7564-4.6779-3.2118-4.7623-3.2343-0.0844-0.0225-0.49278 0.54385-0.90748 1.2586-0.79671 1.3731-1.3321 1.8099-2.0034 1.6348-0.5885-0.15355-1.0002-0.67615-1-1.2693 3.1e-4 -0.7564 4.131-7.9091 4.7457-8.2175 0.52637-0.26408 1.0752-0.14282 1.5003 0.33145 0.47592 0.53102 0.39087 1.1997-0.30819 2.4228-0.34378 0.60152-0.62505 1.1716-0.62505 1.2667 0 0.0952 1.7931 1.4171 3.9847 2.9376l3.9847 2.7645v-5.6905l-13.829-18.011-19.455-0.016v8.4091l0.9823-0.0819c1.2545-0.10467 2.3424 0.34788 3.2227 1.3406 1.0144 1.144 1.1079 1.7249 1.108 6.8893l1.1e-4 4.478 1.2109 0.47152c1.1887 0.46287 1.287 0.47353 5.3518 0.58104 4.2635 0.11276 4.5645 0.15835 5.9448 0.90029 0.67866 0.36481 1.9774 1.6362 2.4307 2.3794 0.84693 1.3889 1.0003 2.2928 1.0003 5.8959v3.335h12.032zm22.833-1.2445c0.77481-0.38949 1.5182-0.64974 1.856-0.64974 0.33776 0 1.0812 0.26025 1.856 0.64974 0.71089 0.35736 1.3224 0.64973 1.359 0.64973 0.0366 0 0.0665-1.8274 0.0665-4.0608v-4.0608h-6.563v4.0608c0 2.2335 0.0299 4.0608 0.0665 4.0608s0.64815-0.29237 1.359-0.64973zm-53.461-13.17v-4.3982l-0.45677-0.47481c-0.5828-0.60582-1.2785-0.63496-1.8161-0.0761l-0.38355 0.3987v8.9486h2.6565zm64 2.5325c0.44197-0.26924 0.77198-0.63813 0.99037-1.1071 0.31918-0.68537 0.32753-0.91094 0.32753-8.8443 0-5.3571-0.0568-8.2974-0.1662-8.5983-0.22618-0.62226-0.9005-1.3438-1.5086-1.6143-0.27656-0.12301-0.927-0.22364-1.4454-0.22364h-0.94259v4.5642c0 3.8746-0.0383 4.6481-0.25365 5.1198-0.35914 0.78672-1.0517 1.2448-2.0065 1.3271-0.71357 0.0615-0.96639-0.0153-2.241-0.68075l-1.4367-0.75006-1.4032 0.73257c-1.5801 0.82491-2.3842 0.93054-3.2871 0.43181-0.29946-0.16541-0.70269-0.5417-0.89606-0.83617-0.34459-0.52476-0.35159-0.62879-0.35159-5.222v-4.6865h-0.94259c-0.51843 0-1.1689 0.10062-1.4454 0.22364-0.60809 0.27046-1.2824 0.99204-1.5086 1.6143-0.10958 0.3015-0.16532 3.2617-0.16363 8.6902l3e-3 8.2329 0.35221 0.64643c0.19748 0.36244 0.62539 0.80725 0.97406 1.0125l0.62187 0.36612 16.068 6e-3 0.66284-0.40379zm-10.539-12.916c0.77481-0.38948 1.5182-0.64973 1.856-0.64973 0.33776 0 1.0812 0.26025 1.856 0.64973 0.71089 0.35736 1.3224 0.64974 1.359 0.64974 0.0366 0 0.0665-1.8274 0.0665-4.0608v-4.0608h-6.563v4.0608c0 2.2334 0.0299 4.0608 0.0665 4.0608s0.64815-0.29238 1.359-0.64974z" />
</svg>
