<svg class="h-16 w-16" fill="currentColor" stroke="none" viewBox="0 0 80 80" xmlns="http://www.w3.org/2000/svg">
<path d="m2.6003 72.772c0.0623-6.7795 0.0879-7.3066 0.41322-8.4912 0.44392-1.6165 1.439-3.7386 2.3476-5.0065 0.91003-1.2698 2.8228-3.1182 4.0158-3.8807l0.92809-0.59311v-3.638l-0.76669-0.37118c-2.766-1.3391-5.0811-3.936-6.1709-6.922-0.72583-1.9888-0.84252-3.2924-0.77616-8.6713 0.0584-4.7341 0.0688-4.8638 0.47296-5.9182 0.49198-1.2834 1.2056-2.4342 1.9668-3.172l0.55478-0.53764-1.3931-1.4114c-7.7844-7.8866-4.2252-20.879 6.5158-23.786 1.8342-0.49638 5.1064-0.49638 6.9405 0 5.9548 1.6115 10.113 6.5191 10.672 12.594l0.10765 1.1702h18.147l0.0981-0.92807c0.20793-1.9681 1.3035-4.4941 2.7986-6.4527 1.9339-2.5334 4.593-4.2649 7.8966-5.1419 1.7019-0.45179 5.037-0.41785 6.8436 0.06966 3.9008 1.0526 7.2794 3.7837 9.0588 7.3227 0.69839 1.389 1.4353 3.744 1.4353 4.5869 0 0.45011 0.0808 0.58234 0.44387 0.72619 2.3218 0.91995 3.4448 1.8748 4.2809 3.64l0.52101 1.1v36.639l-0.5154 1.088c-0.66707 1.4082-1.8306 2.5717-3.2388 3.2387l-1.088 0.51538-7.9897 0.10554v0.88264c0 0.72192 0.0721 0.95478 0.39618 1.2788l0.39618 0.39617h4.387c4.8644 0 5.2709 0.06094 6.3038 0.94501 2.1981 1.8815 1.7316 5.1685-0.91093 6.4177l-0.80704 0.38152-10.198 0.0016c-10.164 0.0016-10.198 0.0027-10.304 0.33499-0.16875 0.53166-1.039 1.4306-1.7568 1.8147-0.60501 0.32374-0.93335 0.35812-3.8817 0.40651-2.7885 0.04577-3.276 0.0919-3.6317 0.34366-0.59276 0.41954-11 5.1377-12.436 5.6379l-1.2106 0.42169-30.933 0.09152 0.0664-7.2282zm20.971 3.5933c-0.58145-0.62156-1.2057-1.5166-1.5478-2.2193-0.49549-1.0177-2.5175-7.2968-2.5182-7.8198-1.6e-4 -0.16602 2.2225-0.9561 2.3423-0.83257 0.0268 0.0276 0.49681 1.5342 1.0446 3.348 0.54776 1.8138 1.2172 3.736 1.4876 4.2717 1.0306 2.0416 3.2502 3.6872 5.586 4.1414 1.1572 0.22503 3.014 0.11991 3.995-0.22618 0.75088-0.26492 5.0974-2.2105 5.2783-2.3626 0.10389-0.08739-1.1326-3.0838-1.3709-3.322-0.0442-0.04414-1.7655 0.68463-3.8253 1.6195-2.0598 0.93487-3.7657 1.6998-3.791 1.6998-0.0776 0-1.1004-2.2769-1.0391-2.313 0.0316-0.01861 0.40252-0.19485 0.8242-0.39167 0.42168-0.19681 0.76669-0.46099 0.76669-0.58706 0-0.44889-0.80632-5.763-0.98852-6.5149-0.65398-2.699-2.6784-5.5329-5.1983-7.2771-2.7776-1.9225-6.8521-2.6056-10.196-1.7094-3.3584 0.90009-6.4408 3.4528-7.9781 6.6071-1.1614 2.3829-1.1847 2.551-1.26 9.0789l-0.0675 5.8509h19.431zm20.251-3.7532c1.5831-0.71557 2.1049-1.0308 2.3375-1.4123 0.75766-1.2424-0.12604-2.8314-1.5746-2.8314-0.24128 0-1.3266 0.40577-2.4117 0.90171l-1.973 0.90171 0.7389 1.6807c0.4064 0.92441 0.76275 1.6807 0.7919 1.6807 0.0292 0 0.97012-0.41453 2.091-0.92118zm9.9896-2.0574c0.76972-0.7697 0.4138-2.3393-0.8089-3.5671-1.0739-1.0785-1.715-1.2527-4.3359-1.1782-2.0459 0.05812-2.5448 0.18417-1.9631 0.49599 0.17681 0.09479 0.66231 0.52056 1.0789 0.94616 0.81078 0.82834 1.2602 1.9278 1.2602 3.0831v0.61632h2.1863c2.1061 0 2.2009-0.01454 2.5825-0.39617zm-17.641-1.3861 2.5422-1.1675v-7.38h-3.8738c-2.1306 0-3.8738 0.02627-3.8738 0.05838s0.21611 0.53498 0.48024 1.1175c0.7063 1.5577 1.0549 2.9741 1.473 5.9852 0.23238 1.6734 0.43758 2.6668 0.54196 2.6235 0.0924-0.03827 1.312-0.59496 2.7102-1.2371zm40.884-1.1964c0.24973-0.24973 0.39618-0.58058 0.39618-0.89506 0-0.31447-0.14645-0.64533-0.39618-0.89506l-0.39618-0.39617-4.4864-0.0016c-4.371-0.0016-4.5074-0.01135-5.3024-0.38155-0.95439-0.44441-1.8788-1.4523-2.1441-2.3379-0.10303-0.34383-0.18732-1.0344-0.18732-1.5345v-0.90936h-10.33v3.8159l0.74251 0.77491c0.67901 0.70864 1.6782 2.4675 1.6785 2.9548 1e-4 0.15924 2.1107 0.20176 10.015 0.20176h10.015zm-33.258-3.6383c1.4665-0.83902 3.1316-1.1637 5.6542-1.1025l2.1755 0.05279-1.6e-4 -1.3316-3.2e-4 -1.3316h-10.33v5.679l0.81881-0.73616c0.45035-0.40489 1.2072-0.9584 1.682-1.23zm31.122-6.5519c0.91308-0.31111 2.0594-1.5106 2.3406-2.4492 0.10754-0.35892 0.19188-1.6077 0.19188-2.841v-2.2006h-27.535c-27.161 0-27.542 0.0043-27.983 0.31879-0.24624 0.17533-0.63878 0.39143-0.87231 0.48022-0.39187 0.14898-0.4246 0.23436-0.4246 1.1074v0.94595l1.0088 0.28011c2.292 0.63643 4.8811 2.1421 6.4966 3.7782l0.80704 0.81729 22.609 0.0097c20.258 0.0087 22.687-0.01695 23.362-0.2469zm-12.963-3.617v-1.2912h2.5825v2.5825h-2.5825zm5.165 0v-1.2912h2.5825v2.5825h-2.5825zm5.165 0v-1.2912h2.5825v2.5825h-2.5825zm-57.865-0.8973c0.53265-0.12647 1.5677-0.27756 2.3001-0.33575l1.3316-0.1058v-1.2436h-2.5825v-2.5581l2.2326-0.05255c2.1681-0.05103 2.2499-0.06581 2.8343-0.512 0.33096-0.2527 0.75405-0.77295 0.94021-1.1561l0.33847-0.69665-0.51198-5.1386c-0.28158-2.8262-0.51088-5.1931-0.50955-5.2597 1e-3 -0.06658-1.9436-0.12105-4.322-0.12105h-4.3244l-0.67159 0.68596c-0.80127 0.81842-1.1724 1.6376-1.1676 2.5773 5e-3 0.99316 0.46618 1.8461 1.5924 2.9457l0.98663 0.96337v5.2276c0 4.9125 0.017 5.221 0.28246 5.1187 0.15536-0.05987 0.71827-0.21232 1.2509-0.33879zm-4.1159-6.9452v-1.8706l-0.80147-0.89921c-1.8244-2.0468-2.2598-4.6218-1.158-6.8485l0.30494-0.61633h-3.543l0.0706 2.7035c0.0572 2.1923 0.13578 2.9019 0.41552 3.7526 0.44482 1.3529 1.3293 2.8346 2.2987 3.8509 0.77576 0.81332 2.0221 1.7982 2.2756 1.7982 0.0754 0 0.13719-0.84178 0.13719-1.8706zm67.146-12.435c0-10.022-0.0515-13.993-0.18732-14.447-0.30031-1.0023-1.6777-2.3982-2.3664-2.3982-0.0817 0-0.19583 0.35582-0.25352 0.7907-0.3637 2.7417-2.3378 6.2769-4.5916 8.2228-7.979 6.8888-20.087 3.2926-23.023-6.8379-0.22389-0.77257-0.40707-1.6508-0.40707-1.9515v-0.54686h-18.49l-0.29023 1.1266c-0.67337 2.6139-2.5928 5.5863-4.6794 7.2467-0.59064 0.46998-1.0739 0.88282-1.0739 0.91741 0 0.0346 0.14616 0.30071 0.32479 0.59137 0.17864 0.29065 0.39934 0.80083 0.49044 1.1337l0.16566 0.60526h1.6295c1.9532 0 2.6633 0.18921 3.5463 0.94501 1.3496 1.1552 1.7665 2.9355 1.0448 4.462-0.79929 1.6907-1.9885 2.3315-4.3365 2.3368-1.0827 0.0024-1.5737 0.06187-1.5737 0.19045 0 0.1028 0.22519 2.4089 0.50041 5.1246 0.37757 3.7255 0.46231 5.106 0.34521 5.6236l-0.15521 0.68596h53.381zm-45.194 6.0743v-5.1649h12.913v10.33h-12.913zm10.33 0v-2.5825h-7.7476v5.1649h7.7476zm5.165 3.8737v-1.2912h2.5825v2.5825h-2.5825zm5.165 0v-1.2912h21.951v2.5825h-21.951zm-5.165-5.1649v-1.2912h27.116v2.5825h-27.116zm0-5.1649v-1.2912h27.116v2.5825h-27.116zm-15.495-2.5825v-1.2912h12.913v2.5825h-12.913zm0-5.1649v-1.2912h12.913v2.5825h-12.913zm0-5.1649v-1.2912h12.913v2.5825h-12.913zm-18.013 11.177c1.3834-2.7451 2.3413-3.4298 4.7978-3.4298 1.5706 0 1.6199-0.15703 0.42358-1.351-1.1984-1.1961-1.5638-1.2711-5.8753-1.205l-3.5447 0.05431-1.2191 0.6028c-2.2692 1.1221-3.5 3.0191-3.6485 5.6235l-0.0821 1.4403h8.2739zm12.452 1.3389c0.24974-0.24973 0.39618-0.58058 0.39618-0.89506 0-0.31447-0.14644-0.64533-0.39618-0.89506l-0.39618-0.39617h-4.1338c-2.5506 0-4.2538 0.06423-4.4472 0.16769-0.17234 0.09223-0.56796 0.67328-0.87916 1.2912l-0.56582 1.1235h10.026zm37.385-6.5862c1.905-0.61479 3.2855-1.4665 4.7488-2.9297 1.4523-1.4523 2.299-2.8182 2.9436-4.7487 0.3618-1.0835 0.41319-1.5084 0.41319-3.4164s-0.0514-2.3328-0.41319-3.4164c-0.64462-1.9305-1.4913-3.2964-2.9436-4.7487-1.4523-1.4523-2.8183-2.299-4.7488-2.9436-1.0836-0.3618-1.5084-0.41318-3.4164-0.41318-1.908 0-2.3329 0.05139-3.4165 0.41318-1.9305 0.6446-3.2965 1.4913-4.7488 2.9436-1.4523 1.4523-2.299 2.8182-2.9436 4.7487-0.36181 1.0835-0.41319 1.5084-0.41319 3.4164s0.0514 2.3328 0.41319 3.4164c0.64462 1.9305 1.4913 3.2964 2.9436 4.7487 2.4625 2.4624 5.1088 3.5095 8.5688 3.3903 1.3196-0.04546 2.0932-0.16371 3.0129-0.46052zm-11.164-5.9299v-1.2912h2.5825v2.5825h-2.5825zm5.165 0v-1.2912h10.33v2.5825h-10.33zm-5.165-5.1649v-1.2912h2.5825v2.5825h-2.5825zm5.165 0v-1.2912h10.33v2.5825h-10.33zm-5.165-5.1649v-1.2912h2.5825v2.5825h-2.5825zm5.165 0v-1.2912h10.33v2.5825h-10.33zm-35.755 12.025c1.4751-1.4662 2.3212-2.8115 2.9439-4.6807 0.38076-1.1431 0.43015-1.5413 0.43048-3.4702 3.2e-4 -1.9086-0.0509-2.3325-0.41283-3.4164-0.64462-1.9305-1.4913-3.2964-2.9436-4.7487-1.4523-1.4523-2.8183-2.299-4.7488-2.9436-1.0836-0.3618-1.5084-0.41318-3.4165-0.41318s-2.3329 0.05139-3.4165 0.41318c-1.9305 0.6446-3.2965 1.4913-4.7488 2.9436-1.4523 1.4523-2.299 2.8182-2.9436 4.7487-0.36192 1.0839-0.41315 1.5078-0.41283 3.4164 3.3e-4 1.927 0.05 2.3286 0.42996 3.4736 0.72699 2.1909 2.1584 4.2374 3.9442 5.6389l0.88007 0.69072 0.9951-0.34015c0.91119-0.31147 1.349-0.3403 5.1917-0.34197 4.1909-0.0018 4.1978-0.0013 5.0843 0.41943 0.84605 0.40146 0.91022 0.40904 1.3662 0.1614 0.26316-0.14291 1.0631-0.8409 1.7776-1.5511zm-12.344-3.3088-1.7769-3.5509h-3.0653v-2.5825h4.6777l1.5406 3.0688 2.0131-6.0537c1.1072-3.3295 2.0514-6.0537 2.0981-6.0537 0.0468 0 0.85235 2.3061 1.7902 5.1246l1.7052 5.1246 4.2527 0.09008v2.5731h-6.1107l-0.77392-2.3403c-0.42566-1.2872-0.81295-2.3404-0.86065-2.3404s-0.87234 2.3605-1.8325 5.2456-1.7762 5.2456-1.8133 5.2456c-0.0371 0-0.86708-1.5979-1.8444-3.5509z" />
</svg>
