<svg class="h-16 w-16" fill="currentColor" stroke="none" viewBox="0 0 80 80" xmlns="http://www.w3.org/2000/svg">
<path d="m24.033 77.176c-0.31358-0.17357-0.81802-0.61898-1.121-0.98977-1.1025-1.3494-1.1026-3.2162-3.2e-4 -4.5654 0.84703-1.0367 1.3044-1.2268 3.1764-1.3202l1.6413-0.0819 0.49334-2.9477c0.27133-1.6212 0.53069-3.1872 0.57634-3.4799l0.083-0.53224h-3.7343c-3.9621 0-4.3667-0.0662-4.6696-0.76266-0.24389-0.5608-0.21914-0.77004 0.14907-1.2605l0.32263-0.42967 54.924-0.0854 0.59103-0.38496c0.80615-0.52508 1.2066-1.4005 1.2066-2.6381v-0.98909h-75.342v1.0012c0 1.2114 0.42502 2.1166 1.2445 2.6506 0.54 0.35186 0.70177 0.3623 6.8574 0.44224 6.0117 0.0781 6.3146 0.0966 6.526 0.39976 0.33036 0.47372 0.27706 1.2984-0.10747 1.6628-0.31235 0.29604-0.65444 0.31196-6.6983 0.31196h-6.3691l-1.0723-0.57315c-0.77631-0.41494-1.2367-0.7992-1.6677-1.392-1.1387-1.5661-1.067 0.45431-1.0209-28.749l0.0414-26.274 0.36791-0.77561c0.45969-0.96913 1.3685-1.9622 2.2439-2.4519l0.67078-0.37524 51.792-0.0856 0.3254 0.43339c0.41011 0.54621 0.41045 0.88678 1e-3 1.4316l-0.32394 0.4315-25.116 9e-4c-17.602 6.4e-4 -25.303 0.0541-25.741 0.17903-0.7412 0.21113-1.4402 0.84445-1.7387 1.5752-0.17942 0.43933-0.21522 4.4498-0.21522 24.114v23.587h75.342v-23.587c0-19.759-0.0352-23.675-0.21713-24.131-0.30477-0.76419-0.96631-1.3536-1.7518-1.5608-0.4353-0.11484-3.3878-0.17687-8.4168-0.17687-7.538 0-7.7548-8e-3 -8.059-0.32754-0.40432-0.42357-0.40186-1.2166 5e-3 -1.6429 0.31277-0.32768 0.45061-0.33212 8.8707-0.28658 8.5374 0.0461 8.5542 0.0469 9.2132 0.41584 0.89083 0.49869 1.6741 1.3485 2.1925 2.3789l0.42985 0.85427 0.0414 26.274c0.046 29.204 0.11778 27.183-1.0209 28.749-0.43102 0.59278-0.89138 0.97701-1.6677 1.392l-1.0724 0.57315-25.099 0.0911 0.0823 0.52756c0.0452 0.29016 0.30428 1.854 0.57562 3.4752l0.49333 2.9477 1.6413 0.0819c1.8702 0.0933 2.3296 0.28378 3.1724 1.3154 1.442 1.7649 0.88022 4.4826-1.151 5.5682-0.5869 0.31368-0.99337 0.32169-15.966 0.31463-14.862-7e-3 -15.382-0.0176-15.934-0.32281zm31.221-2.5039c0.47609-0.57992 0.47613-0.95744 1.6e-4 -1.5375l-0.37702-0.45947-4.3725-0.0481c-4.1191-0.0453-4.3886-0.0669-4.651-0.37059-0.35954-0.41621-0.35652-1.2062 6e-3 -1.6262 0.25483-0.29498 0.4793-0.32962 2.1363-0.32962 1.3787 0 1.8515-0.0524 1.8515-0.20506 0-0.11277-0.24577-1.6787-0.54616-3.4799-0.30038-1.8012-0.54657-3.2933-0.54709-3.3158-4.7e-4 -0.0225-3.9344-0.041-8.742-0.041h-8.741l-0.0904 0.45035c-0.16746 0.8343-1.0283 6.18-1.0285 6.3866-1.3e-4 0.16007 1.2607 0.2047 5.7834 0.2047 5.5751 0 5.7948 0.0119 6.0962 0.32753 0.36483 0.38221 0.40719 1.1119 0.0909 1.5654-0.21348 0.30601-0.53495 0.32094-8.6108 0.39975l-8.389 0.082-0.37713 0.45946c-0.20742 0.25272-0.37712 0.59282-0.37712 0.75578 0 0.42209 0.56909 1.1244 0.98006 1.2095 0.19172 0.0397 6.9139 0.0631 14.938 0.0519l14.59-0.0203zm0.97501-25.339c-0.14405-0.088-1.3398-2.37-2.6573-5.071s-2.4331-4.9112-2.4792-4.9115c-0.0461-3.1e-4 -0.46814 0.81825-0.93787 1.8191-0.46972 1.0008-1.0218 1.9588-1.2268 2.1289-0.33311 0.27629-0.66238 0.30919-3.0943 0.30919-2.681 0-2.7272-6e-3 -3.1052-0.40195-0.21102-0.22109-0.38367-0.59289-0.38367-0.82624 0-0.23337 0.17265-0.60517 0.38367-0.82626 0.37164-0.38933 0.45391-0.40195 2.6221-0.40195h2.2384l1.2466-2.6375c1.5439-3.2666 2.0354-3.7478 2.9506-2.8894 0.21605 0.20265 1.4268 2.4978 2.6906 5.1004 2.0311 4.1828 2.3214 4.698 2.5018 4.4395 0.11223-0.1608 1.4053-2.7799 2.8736-5.8202 2.2896-4.741 2.7337-5.5557 3.1204-5.7235 0.90821-0.39412 1.1463-0.095 3.094 3.887l1.7822 3.6437h2.1546c1.9431 0 2.1951 0.0333 2.5665 0.33942 0.53206 0.43845 0.56573 1.299 0.0698 1.7831-0.31707 0.30947-0.54086 0.33389-3.0584 0.33389-1.4964 0-2.8463-0.0729-3.0058-0.16236-0.15927-0.0893-0.93628-1.4615-1.7267-3.0494l-1.4371-2.887-0.4637 0.87957c-0.25503 0.48377-1.4864 3.0102-2.7363 5.6144-1.2499 2.6041-2.437 4.907-2.6379 5.1175-0.38278 0.40103-0.90231 0.48319-1.3448 0.2127zm-48.775-2.5096c-0.64122-0.51039-0.57399-1.8532 0.10649-2.1268 0.14555-0.0585 3.2037-0.10639 6.7959-0.10639 6.3708 0 6.5413 8e-3 6.9431 0.33941 0.56958 0.46938 0.56958 1.3082 0 1.7776-0.4021 0.33136-0.56785 0.33928-6.9949 0.3342-5.1532-4e-3 -6.6412-0.0515-6.8505-0.21804zm-0.11544-6.615c-0.46296-0.39276-0.47683-1.2588-0.0277-1.7294l0.34105-0.3573h13.735c13.287 0 13.745 0.0105 14.064 0.31197 0.42935 0.40707 0.43774 1.2936 0.0164 1.735-0.30788 0.32255-0.52104 0.32752-14.051 0.32752-12.874 0-13.759-0.0181-14.077-0.28785zm0.11544-6.322c-0.64122-0.51038-0.57399-1.8532 0.10649-2.1268 0.14555-0.0585 1.482-0.10638 2.97-0.10638 2.4104 0 2.7447 0.0334 3.0666 0.30641 0.5019 0.4258 0.5019 1.4178 0 1.8436-0.32299 0.27401-0.65292 0.30588-3.1184 0.30122-2.0141-4e-3 -2.8293-0.0625-3.0246-0.21805zm10.023-0.0832c-0.26142-0.22176-0.3612-0.4764-0.3612-0.92177s0.0998-0.7 0.3612-0.92178c0.34308-0.29106 0.79054-0.30642 8.9199-0.30642 8.422 0 8.5653 5e-3 8.9706 0.3394 0.29872 0.24616 0.41186 0.49034 0.41186 0.8888s-0.11314 0.64263-0.41186 0.88879c-0.40528 0.33398-0.54864 0.33941-8.9706 0.33941-8.1294 0-8.5769-0.0154-8.9199-0.30643zm25.251-4.3533-0.38367-0.40194v-13.786l0.38367-0.40195c0.38298-0.40123 0.38965-0.40196 3.6632-0.40196 1.8037 0 3.4489 0.0675 3.656 0.14999 0.7203 0.2869 0.75121 0.63172 0.70402 7.8538l-0.0442 6.7638-0.36902 0.31294c-0.33821 0.28681-0.65525 0.31292-3.7977 0.31292h-3.4286zm5.7125-7.2948v-5.2403h-3.7515v10.481h3.7515zm5.5004 7.3628c-0.33829-0.33019-0.3421-0.39286-0.3421-5.6243 0-4.9173 0.0202-5.3096 0.28585-5.5615 0.2483-0.23541 0.75147-0.27102 3.8296-0.27102 3.3354 0 3.5622 0.0193 3.8564 0.32752 0.29953 0.3138 0.31262 0.54587 0.31262 5.5393v5.2118l-0.36177 0.35608c-0.34881 0.3433-0.48502 0.35606-3.8002 0.35606-3.2442 0-3.4577-0.0189-3.7805-0.33389zm5.5977-5.6486v-3.526l-1.8367 0.0461-1.8367 0.046-0.0422 3.4799-0.0422 3.4799h3.7577zm5.5004 5.6486-0.3421-0.33389v-8.6476c0-8.5833 2e-3 -8.6498 0.32904-8.9595 0.30284-0.28713 0.60631-0.31196 3.8132-0.31196s3.5104 0.0248 3.8132 0.31196c0.32659 0.30965 0.32904 0.37616 0.32904 8.9595v8.6476l-0.3421 0.33389c-0.3229 0.31516-0.53614 0.33389-3.8002 0.33389s-3.4773-0.0188-3.8002-0.33389zm5.7167-8.9595-0.0408-6.837-3.6733-0.0922v13.766h3.7549zm-63.425 6.6732c-0.50801-0.53222-0.47049-1.2283 0.0949-1.7604l0.39146-0.36846h13.569c13.491 0 13.572 2e-3 13.981 0.33941 0.53207 0.43846 0.56574 1.299 0.0698 1.7831-0.33889 0.33078-0.47074 0.3339-14.068 0.3339-13.518 0-13.731-5e-3 -14.039-0.32751zm0-7.3692c-0.50801-0.53222-0.47049-1.2283 0.0949-1.7604l0.39146-0.36845h8.4248c5.8414 0 8.5416 0.0557 8.8057 0.18182 0.38161 0.18214 0.72799 0.76515 0.72799 1.2253 0 0.13496-0.17265 0.42625-0.38368 0.64733l-0.38367 0.40195h-8.6824c-8.474 0-8.6899-8e-3 -8.995-0.32751zm21.798-0.0745c-0.42552-0.4458-0.46703-0.70103-0.21012-1.2918 0.28655-0.65888 0.76102-0.76267 3.486-0.76267 2.3438 0 2.5841 0.0276 2.9626 0.33941 0.53207 0.43845 0.56574 1.299 0.0698 1.7831-0.31779 0.31017-0.54038 0.33389-3.1333 0.33389-2.7551 0-2.7962-5e-3 -3.1749-0.40195zm-21.79-6.4363c-0.46296-0.39276-0.47683-1.2588-0.0277-1.7294l0.34105-0.35731h13.735c13.287 0 13.745 0.0105 14.064 0.31196 0.42935 0.40707 0.43774 1.2936 0.0164 1.735-0.30788 0.32255-0.52104 0.32752-14.051 0.32752-12.874 0-13.759-0.0182-14.077-0.28785z" />
</svg>
