<svg class="h-16 w-16" fill="currentColor" stroke="none" viewBox="0 0 80 80" xmlns="http://www.w3.org/2000/svg">
<path d="m38.824 79.625c-0.30245-0.30241-0.54992-4.6528-0.54992-9.6675 0-5.0147-0.30596-9.1176-0.67991-9.1176s-1.3458 0.73574-2.1598 1.635c-2.9537 3.2633-6.7004 5.0017-9.6056 4.4568-2.195-0.41172-4.5369-2.4917-11.943-10.607l-9.2123-10.095-2.6307-13.262c-2.2432-11.308-2.4649-13.413-1.5049-14.285 1.3372-1.2152 21.223-9.3306 22.864-9.3306 0.62516 0 1.4606 0.63354 1.8566 1.4079 1.1228 2.1957 6.1687 29.036 5.5711 29.634-1.6977 1.6974-2.834-1.2871-5.3306-14.001l-2.6956-13.727-4.1329 1.6453c-2.2731 0.90493-4.8571 1.9466-5.7422 2.3148-1.1576 0.48156-0.42893 0.68375 2.5965 0.72043 3.4609 0.04196 4.4047 0.37157 5.3293 1.8611 1.4714 2.3704 5.6652 24.073 5.1613 26.709-0.85869 4.4913 1.3415 3.7654 8.6931-2.8679 10.137-9.147 11.127-9.522 25.168-9.5435 13.899-0.02127 16.4 0.79361 18.752 6.1086 1.3641 3.0834 1.4942 5.2634 1.2995 21.779l-0.21639 18.353-20.169 0.21462c-11.093 0.11804-20.416-0.032799-20.719-0.3352zm20.802-21.735c13.91-17.577 14.955-19.122 13.601-20.112-0.80677-0.58983-2.0877-1.0724-2.8464-1.0724-0.83118 0-6.8472 6.838-15.134 17.202-12.098 15.13-13.754 17.552-13.754 20.112 0 5.9153 2.3246 3.8476 18.134-16.129zm17.269 1.7433c0-9.5132-0.27156-17.281-0.60346-17.263-0.3319 0.01875-4.7674 5.3508-9.8566 11.849-5.0892 6.4982-11.175 14.266-13.523 17.263l-4.2702 5.4476h28.254zm-23.485-8.4472 11.264-14.079-6.9644-0.25109c-9.9819-0.35988-11.915 0.44369-21.063 8.7538-4.35 3.9517-8.3713 7.185-8.9362 7.185-0.56494 0-2.1662-1.1039-3.5584-2.453-2.3783-2.3048-2.8554-2.4385-7.8958-2.2124l-5.3646 0.24066 7.3195 7.8438c4.6751 5.01 7.9177 7.8438 8.9752 7.8438 0.91065 0 3.9653-2.0274 6.7881-4.5053 6.4024-5.6202 7.5176-5.4131 7.5176 1.3962 0 2.7425 0.14722 4.8355 0.32717 4.6511 0.17994-0.18436 5.3959-6.6706 11.591-14.414zm-30.424-7.3953c0-0.52761-0.9826-5.958-2.1836-12.067l-2.1836-11.108h-7.8742c-4.3308 0-7.8742 0.33306-7.8742 0.74014 0 0.62412 3.1078 15.712 4.4459 21.585 0.39213 1.7209 0.78855 1.8101 8.041 1.8101 5.37 0 7.6285-0.28402 7.6285-0.9593zm32.329-14.829c-2.8444-1.45-6.0484-5.1941-6.9294-8.0974-0.37378-1.2318-1.2854-1.837-3.0296-2.0112-1.3722-0.13706-2.8935-0.90553-3.3807-1.7077-0.74469-1.2262-0.40204-1.8498 2.1514-3.9153l3.0372-2.4568-2.8361-3.4605c-3.0948-3.7763-3.463-5.2882-1.6533-6.7899 0.93376-0.77483 3.7708-0.70582 13.477 0.32783 6.762 0.72009 13.471 1.4958 14.91 1.7239l2.615 0.41461v8.4903c0 9.7304-1.0315 12.827-5.3772 16.141-3.5034 2.6717-9.2171 3.2621-12.984 1.3416zm9.8763-3.1538c2.2361-1.0609 3.1865-2.2216 5.0753-6.1984 0.15762-0.33185-4.0684-0.60337-9.3911-0.60337-8.8697 0-9.6362 0.11754-9.1807 1.4079 0.27332 0.77433 1.2577 2.262 2.1874 3.306 3.0733 3.4507 6.9343 4.1636 11.309 2.088zm5.2669-11.629c0-1.5258-0.53045-1.6081-10.259-1.5911-8.9423 0.01559-10.517 0.21979-12.27 1.5911l-2.0115 1.5732 12.27 0.01789c11.74 0.01712 12.27-0.05167 12.27-1.5911zm0-6.7062c0-1.831-0.31468-1.9121-12.26-3.1609-6.7432-0.70496-12.403-1.1396-12.576-0.96583s0.72691 1.57 2.0015 3.1029l2.3175 2.7869 10.259 0.058084c10.231 0.057923 10.259 0.05292 10.259-1.8211z" />
</svg>
