<svg class="h-16 w-16" fill="currentColor" stroke="none" viewBox="0 0 80 80" xmlns="http://www.w3.org/2000/svg">
<path d="m10.761 79.842c-1.4268-0.33597-2.6666-1.3078-3.4043-2.6684l-0.53665-0.98982-0.0444-8.0718c-0.048-8.7224-0.0131-9.2118 0.79867-11.222 0.64262-1.591 1.3727-2.6748 2.6867-3.9889 1.3138-1.3138 2.3979-2.0441 3.9877-2.6862 2.0911-0.84464 1.6649-0.82747 20.545-0.82763l17.503-1.4e-4 0.61338 0.34905c1.1065 0.62967 1.6188 2.1221 1.1274 3.2843-0.11694 0.27658-5.7842 6.3522-12.594 13.501-9.6621 10.144-12.516 13.053-12.996 13.244-0.53373 0.21356-1.6987 0.24384-8.855 0.23022-4.5322-9e-3 -8.5064-0.0784-8.8315-0.15489zm28.717-15.105 12.022-12.619-17.02-0.0398c-14.741-0.0344-17.147-8e-3 -17.964 0.19594-2.659 0.66381-5.0098 2.5517-6.1496 4.9386-0.34473 0.72192-0.70344 1.6852-0.79713 2.1407-0.10952 0.53239-0.16943 3.5462-0.16779 8.4389 2e-3 7.5865 3e-3 7.6128 0.35162 8.2242 0.21761 0.38238 0.60843 0.75021 1.0378 0.97673l0.68874 0.36334h15.976zm-17.896 7.9664c-1.0604-0.5434-4.9871-3.6305-5.2653-4.1395-0.24589-0.44997-0.27653-0.99085-0.27653-4.8818 0-4.8963 0.014-4.9689 1.1204-5.8132l0.57373-0.43785 4.6226-0.0489c2.9831-0.0315 4.8253 0.0107 5.1942 0.11915 0.71429 0.20997 1.4714 1.0548 1.6974 1.8941 0.11112 0.41269 0.15509 2.0651 0.12377 4.6513-0.0448 3.701-0.0732 4.0535-0.36669 4.5582-0.34859 0.59935-4.123 3.5825-5.1516 4.0716-0.78647 0.37399-1.5765 0.38335-2.272 0.0269zm3.154-3.8809 2.0091-1.5014v-7.3114h-8.1264v7.3026l1.9925 1.4982c1.0959 0.82402 2.0202 1.5016 2.0541 1.5058 0.0338 4e-3 0.96565-0.66804 2.0707-1.4938zm12.245 10.971c-1.3404-0.60377-1.9692-2.1302-1.4196-3.4457 0.19133-0.45791 10.505-11.423 22.017-23.409 3.5886-3.7361 3.5778-3.7295 5.5787-3.4378 4.4063 0.64222 8.077 3.7801 9.6419 8.2423l0.43845 1.2502v17.19l-0.53665 0.98982c-0.59163 1.0912-1.4285 1.8653-2.6013 2.4062l-0.76893 0.35462-15.94 0.0349c-13.111 0.0287-16.023-2e-3 -16.409-0.17632zm32.286-2.8005c0.42624-0.22486 0.82319-0.59713 1.0415-0.97673l0.35274-0.61338-0.0439-8.0482c-0.0437-8.0142-0.0455-8.0524-0.41186-9.0418-1.1935-3.2228-4.168-5.7128-7.4041-6.1981l-0.68083-0.1021-8.9726 9.4292c-4.9349 5.186-10.37 10.888-12.079 12.672l-3.106 3.2427h30.615zm-9.7818-2.4738c-0.50745-0.27756-0.70324-0.62405-0.70324-1.2446 0-0.44465 0.0982-0.66114 0.41177-0.90779 0.38262-0.30097 0.61489-0.3239 3.2818-0.3239h2.87v-2.1175c0-2.7395 0.20369-3.1959 1.4264-3.1959 0.28338 0 0.61205 0.1489 0.84674 0.38359 0.38227 0.38227 0.38359 0.39462 0.38359 3.5805v3.1969l-0.96164 0.80916-3.6214-5e-3c-2.318-3e-3 -3.7339-0.0663-3.934-0.17571zm-21.332-27.952c-8.757-0.80561-15.902-7.28-17.761-16.093-0.39056-1.8518-0.38544-5.6582 0.0101-7.5575l0.28838-1.3846-0.64458-0.5892c-0.35451-0.32406-0.78401-0.89652-0.95445-1.2721-0.33317-0.73428-0.42122-2.1491-0.16369-2.6303 0.12813-0.23941 0.015-0.39014-0.69487-0.92613-1.4607-1.1028-2.17-2.4491-2.1448-4.0708 0.0513-3.2991 3.1279-6.1157 9.3203-8.5326 3.9131-1.5273 12.17-3.5122 14.601-3.5101 2.5352 2e-3 10.635 1.9432 14.634 3.507 6.3197 2.471 9.3038 5.2532 9.312 8.6819 4e-3 1.6238-0.79087 3.0366-2.2875 4.0663-0.62461 0.42974-0.67411 0.50997-0.53708 0.8704 0.23906 0.62879 0.16999 1.8043-0.14707 2.5024-0.16013 0.35262-0.58916 0.92746-0.9534 1.2774l-0.66223 0.63634 0.28734 1.3793c0.39453 1.8938 0.39912 5.7029 9e-3 7.5522-1.4925 7.0766-6.3288 12.664-13.036 15.061-2.4299 0.86827-5.7996 1.2788-8.4754 1.0327zm3.6984-2.6644c1.9854-0.22138 3.8498-0.76866 5.7563-1.6897 4.6421-2.2426 7.8847-6.2404 9.2589-11.415 0.3392-1.2773 0.39946-1.8505 0.41187-3.9184 9e-3 -1.4646-0.0647-2.7701-0.18606-3.302l-0.20061-0.87976-1.3602 0.43536c-8.9617 2.8683-21.821 2.8738-30.945 0.0131l-1.4219-0.44578-0.20031 0.87838c-0.12099 0.53051-0.19457 1.8377-0.18579 3.3007 0.0161 2.6819 0.32481 4.2511 1.2946 6.5805 1.1163 2.6815 3.6924 5.8452 6.0758 7.4618 2.2005 1.4925 5.357 2.6884 7.8482 2.9734 1.6892 0.19328 2.1808 0.19424 3.8546 7e-3zm4.8968-21.627c6.7908-0.92585 11.877-2.6714 11.877-4.0761 0-0.88276-2.2488-1.8315-5.9147-2.4954-3.79-0.68636-6.3238-0.8881-11.979-0.9538l-5.3134-0.0617-0.35162-0.3991c-0.46186-0.52422-0.45473-1.2304 0.0172-1.7023 0.53052-0.53052 1.7234-0.61613 7.0543-0.50629 7.4476 0.15345 12.588 0.90617 15.641 2.2903l1.0517 0.47687 0.79213-0.44752c1.1217-0.63373 1.7118-1.4099 1.7102-2.2492-7e-3 -3.28-6.7046-6.7011-17.359-8.8664-1.7024-0.34596-3.4607-0.62902-3.9073-0.62902s-2.0619 0.24749-3.5895 0.54998c-10.776 2.1338-17.688 5.603-17.765 8.9168-0.0193 0.82312 0.5741 1.6243 1.664 2.2467 0.77314 0.44156 0.81822 0.44874 1.3576 0.21604 2.1217-0.91531 5.4418-1.75 7.2202-1.8152 0.86008-0.0315 0.97621 4e-3 1.3207 0.40391 0.81304 0.94376 0.26267 2.0286-1.1263 2.2201-4.2668 0.58825-7.7162 1.8372-7.7162 2.7938 0 1.5763 6.6115 3.6252 13.909 4.3101 2.1946 0.206 9.2783 0.0677 11.408-0.22263z" />
</svg>
