<svg class="h-16 w-16" fill="currentColor" stroke="none"  viewBox="0 0 80 80" xmlns="http://www.w3.org/2000/svg">
<path d="m5.0434 79.759c-0.45156-0.1215-1.115-0.37079-1.4744-0.55398-0.90677-0.46225-2.1874-1.7118-2.6786-2.6138-0.94348-1.7322-0.89132 0.14353-0.88929-31.983 0.00156-24.016 0.040038-29.531 0.21075-30.169 0.63099-2.3604 2.243-4.0892 4.4471-4.7695 0.86172-0.26596 1.4551-0.3098 4.1936-0.3098h3.1898l0.0034-0.42979c0.0043-0.53696 0.5306-1.7167 0.9838-2.2052 0.39893-0.43003 8.0575-5.9306 8.8662-6.368 0.50058-0.2707 0.99573-0.30012 5.787-0.34376 3.8034-0.034649 5.4289 0.00506 5.9305 0.14486 0.4612 0.12856 2.1362 1.2228 5.0376 3.2909 4.6712 3.3297 5.015 3.6659 5.2683 5.1525l0.11594 0.68035 7.0301 0.15629 1.0166 0.48408c1.4901 0.70955 2.5379 1.7284 3.2429 3.1535l0.589 1.1906 0.04418 8.452c0.04363 8.3488 0.04024 8.4562-0.27804 8.7976-0.6883 0.73825-1.7376 0.56604-2.1198-0.3479-0.18806-0.44975-0.2273-1.8788-0.22857-8.3232l-0.0016-7.7803-0.3697-0.78143c-0.44423-0.93919-1.028-1.5134-1.9732-1.9409-0.63383-0.2867-1.0234-0.31869-3.9175-0.32179l-3.2137-0.0034-0.54002 0.80892c-0.37313 0.55892-0.80588 0.9574-1.4002 1.2894l-0.86022 0.48042h-26.12l-0.63629-0.34033c-0.70969-0.37959-1.6984-1.3975-1.8641-1.9192-0.10745-0.33828-0.1303-0.34014-3.5742-0.29078-2.9566 0.042377-3.5404 0.090285-3.9719 0.32591-0.70431 0.38462-1.4913 1.2043-1.8501 1.9269-0.29642 0.59697-0.30291 1.2484-0.30291 30.383v29.773l0.3382 0.62514c0.39869 0.73695 1.1655 1.4908 1.9297 1.897 0.51778 0.27524 1.2563 0.29523 13.642 0.36914l13.095 0.07814 0.34836 0.34817c0.51328 0.51301 0.47471 1.381-0.08266 1.8601l-0.43101 0.37047-12.856-0.010284c-10.562-0.008454-13.002-0.049703-13.677-0.2312zm35.54-67.898c0.74689-0.28375 1.1183-1.9732 0.66028-3.0038-0.12445-0.28005-1.563-1.4079-4.2357-3.3211l-4.0472-2.897h-9.7702l-0.60834 0.41176c-2.4938 1.6879-7.5935 5.4383-7.7225 5.6792-0.08725 0.16291-0.15864 0.78688-0.15864 1.3866 0 1.0257 0.02854 1.1144 0.48121 1.495l0.48121 0.40461h12.256c7.7395 0 12.406-0.05722 12.664-0.15529zm-15.794-2.6903c-0.80197-0.45958-0.9541-1.4508-0.31992-2.0845 0.38245-0.38217 0.3959-0.38361 3.5678-0.38361 2.9822 0 3.2055 0.020076 3.5243 0.3169 0.68771 0.64022 0.5456 1.7197-0.28142 2.1377-0.51908 0.26235-6.0365 0.27381-6.4908 0.01347zm12.703 70.607c-1.2313-0.44154-2.1887-1.3929-2.5904-2.574-0.13279-0.39045-0.18067-5.654-0.18067-19.86 0-21.742-0.08465-20.212 1.1886-21.485 1.2723-1.2714-0.27327-1.19 21.731-1.144 18.832 0.03939 19.566 0.05167 20.141 0.33741 0.76049 0.3774 1.4317 1.0481 1.8719 1.8705l0.34587 0.64616v19.77c0 18.982-0.01162 19.792-0.29122 20.317-0.40651 0.76356-1.1609 1.5298-1.8984 1.9282l-0.62562 0.33795-19.551 0.03346c-16.134 0.02761-19.654-0.0036-20.142-0.17868zm39.47-2.8903 0.45718-0.45684v-19.011c0-14.154-0.04648-19.098-0.18195-19.352-0.37783-0.70886-0.4664-0.7219-4.9403-0.72712l-4.262-5e-3v8.2986c0 9.223 0.02743 8.9673-1.0499 9.7884-0.3726 0.28398-0.7875 0.42982-1.357 0.47702-0.76099 0.06306-1.0886-0.04678-4.5299-1.519l-3.7096-1.5869-3.6556 1.57c-2.9917 1.2848-3.7961 1.57-4.4289 1.57-0.85578 0-1.5696-0.3827-2.1346-1.1444-0.32126-0.43313-0.32797-0.59534-0.3702-8.9474l-0.04301-8.5063h-8.5518l-0.82468 0.82406 5e-3 19.163c0.0052 20.191-0.0219 19.421 0.69884 19.834 0.23044 0.13206 5.33 0.18051 19.367 0.18401l19.054 0.0048zm-26.835-2.3824c-0.67682-0.40178-0.69367-0.51388-0.69884-4.6491l-5e-3 -3.9719-1.0796 1.0415c-1.2234 1.1802-1.714 1.314-2.462 0.67104-0.32466-0.27905-0.43101-0.51188-0.43101-0.94359 0-0.53003 0.17566-0.74895 2.3363-2.9116 3.1304-3.1332 2.7861-3.1316 5.8926-0.02744 2.1589 2.1573 2.3127 2.35 2.3127 2.8984 0 0.75461-0.55782 1.3546-1.2593 1.3546-0.39358 0-0.70516-0.20609-1.5635-1.0341l-1.072-1.0341-0.04672 3.9995c-0.04393 3.7596-0.06553 4.0183-0.36008 4.3124-0.39454 0.3939-1.1548 0.53704-1.5635 0.2944zm13.048-0.27451-0.45718-0.45684v-7.8896l-1.0796 1.0415c-0.86524 0.83469-1.1772 1.0415-1.5712 1.0415-0.70152 0-1.2593-0.60003-1.2593-1.3546 0-0.54835 0.15379-0.74109 2.3127-2.8984 3.095-3.0927 2.7443-3.0931 5.8647 0.0059 2.2093 2.1941 2.3329 2.3491 2.3329 2.925 0 0.46434-0.0982 0.6925-0.41537 0.96512-0.73098 0.62829-1.2304 0.48855-2.4464-0.68448l-1.0796-1.0415v7.8896l-0.45718 0.45684c-0.27561 0.2754-0.62203 0.45684-0.87226 0.45684-0.25022 0-0.59664-0.18144-0.87225-0.45684zm-9.8284-22.576c2.1013-0.8949 3.7433-1.5043 4.0535-1.5043s1.9522 0.60937 4.0535 1.5043c1.9427 0.82735 3.6201 1.5382 3.7276 1.5796 0.15484 0.05965 0.1955-1.5862 0.1955-7.912v-7.9873h-15.953v7.9873c0 6.3258 0.04067 7.9717 0.1955 7.912 0.10753-0.04142 1.7849-0.75224 3.7276-1.5796zm-43.74 20.083c-0.74479-0.34236-1.2502-0.92871-1.4837-1.7212-0.10858-0.36861-0.14932-2.5743-0.11724-6.3475 0.055428-6.5179 0.039389-6.4255 1.2541-7.2289l0.64881-0.42912h7.792l0.37756 0.4385c0.45419 0.52751 0.48511 1.1913 0.07887 1.6931-0.29445 0.36372-0.3494 0.37007-3.871 0.4471l-3.5723 0.07814-0.08232 10.71 10.718-0.08226 0.0782-1.6945c0.07124-1.5436 0.11107-1.721 0.44744-1.9927 0.50236-0.4057 1.1666-0.37467 1.6944 0.07917 0.43868 0.37723 0.43883 0.37808 0.43883 2.3949 0 1.9386-0.0168 2.0429-0.42944 2.6659-0.80724 1.2186-0.69074 1.199-7.3908 1.2434-5.5302 0.03662-5.9877 0.01898-6.5813-0.25387zm5.9557-5.168c-0.17204-0.0736-1.0342-0.86925-1.916-1.7681-1.3565-1.3829-1.6031-1.711-1.6031-2.1329 0-0.70057 0.59729-1.2658 1.3375-1.2658 0.49018 0 0.71997 0.14494 1.6457 1.038 0.95996 0.92607 1.1048 1.0145 1.3429 0.8205 0.1468-0.11962 2.0869-1.7747 4.3112-3.6779 2.2244-1.9032 4.2114-3.4923 4.4156-3.5313 1.0079-0.19253 1.8511 0.82567 1.4493 1.75-0.11159 0.25669-2.0816 2.053-4.727 4.3102-2.4946 2.1285-4.6765 3.9949-4.8485 4.1474-0.39437 0.34969-1.002 0.48347-1.4076 0.30992zm-6.2562-13.673c-1.2603-0.75784-1.2449-0.67227-1.3004-7.2007-0.052621-6.1878-0.015593-6.5752 0.71076-7.4378 0.72447-0.86034 1.0699-0.92351 5.0499-0.92351 4.3569 0 4.6997 0.10101 4.6844 1.3803-0.0057 0.48112-0.24171 0.83614-0.72766 1.0948-0.22934 0.12206-1.4503 0.18181-3.7146 0.18181h-3.373v10.627h10.792v-1.6138c0-1.4848 0.02894-1.6409 0.36199-1.9536 0.50804-0.47692 1.3517-0.45536 1.8236 0.0466 0.29317 0.31183 0.3777 0.61088 0.43798 1.5494 0.15029 2.34-0.22073 3.5056-1.3601 4.2728-0.52666 0.35465-0.54007 0.35536-6.6435 0.35388l-6.1157-0.0014-0.62562-0.37618zm4.4262-6.6225c-1.4607-1.4596-1.6892-1.7572-1.6892-2.2 0-0.36216 0.13924-0.65128 0.47548-0.98726 0.69337-0.69285 1.2155-0.53635 2.5173 0.75456l1.0378 1.029 4.3986-3.7679c4.6472-3.9809 4.8126-4.0844 5.6223-3.5177 0.45023 0.31511 0.68034 0.90519 0.5521 1.4157-0.06677 0.26583-1.727 1.7872-5.1048 4.6777-4.5225 3.8701-5.0597 4.2838-5.5631 4.2838-0.50012 0-0.73059-0.17317-2.2465-1.6879zm-4.1257-11.893c-0.74367-0.3375-1.2498-0.92333-1.4837-1.7174-0.1086-0.36867-0.14933-2.5778-0.11724-6.3592l0.049175-5.7943 0.41615-0.62807c0.72324-1.0915 0.97997-1.1458 5.4222-1.1458h3.9142l0.32416 0.41179c0.41227 0.52372 0.41313 1.1522 0.0023 1.6741l-0.32187 0.40888-7.0983 0.08396-0.04116 5.3549-0.04116 5.3549 10.718-0.08226 0.0782-1.657c0.08658-1.8343 0.21016-2.1093 1.0159-2.2604 1.138-0.21333 1.6451 0.59805 1.6393 2.6229-0.0065 2.2603-0.34451 3.0553-1.5635 3.6777-0.67795 0.34616-0.77912 0.35159-6.4816 0.34821-5.3008-0.0031-5.8471-0.02803-6.4308-0.29294zm21.514-4.1621c-0.48909-0.52022-0.49956-1.3593-0.02292-1.8356l0.34843-0.34817h17.187l0.34844 0.34817c0.47664 0.47629 0.46617 1.3153-0.02292 1.8356l-0.37135 0.39499h-17.095zm-15.558-1.0022c-0.17204-0.0736-1.0342-0.86924-1.916-1.7681-1.3565-1.3829-1.6031-1.711-1.6031-2.1329 0-0.69215 0.59796-1.2658 1.3194-1.2658 0.4648 0 0.72334 0.1619 1.6431 1.0289 0.60318 0.56859 1.1682 0.98158 1.2629 0.92311 0.09424-0.05821 2.0439-1.7168 4.3325-3.6858 3.666-3.154 4.2245-3.58 4.6937-3.58 0.72466 0 1.0734 0.2162 1.2734 0.78947 0.12509 0.35856 0.11924 0.59721-0.02265 0.9236-0.11159 0.25669-2.0816 2.053-4.727 4.3102-2.4946 2.1285-4.6765 3.9949-4.8485 4.1474-0.39437 0.34969-1.002 0.48347-1.4076 0.30992zm15.941-5.3886c-0.54344-0.23645-0.93182-0.98694-0.77166-1.4912 0.05754-0.18116 0.25316-0.46766 0.4347-0.63667 0.3198-0.29771 0.59505-0.30728 8.8349-0.30728 5.1455 0 8.6158 0.05938 8.7859 0.15031 0.48161 0.25756 0.7082 1.0192 0.47241 1.5881-0.37931 0.91504-0.42063 0.91911-9.254 0.91238-6.3514-0.0048-8.121-0.04972-8.5023-0.21564z" />
</svg>
