<svg class="h-16 w-16" fill="currentColor" stroke="none"  viewBox="0 0 80 80" xmlns="http://www.w3.org/2000/svg">
<path d="m17.493 79.777c-2.2579-0.56985-4.019-2.2586-4.7129-4.5194-0.26681-0.86919-0.28003-2.3113-0.28003-30.565 0-29.099 6e-3 -29.672 0.3038-30.653 0.57454-1.8916 2.0147-3.4743 3.8442-4.2245 0.76682-0.31445 1.1611-0.35146 4.2632-0.4002 3.3941-0.053324 3.4183-0.056115 3.4191-0.39448 2e-3 -0.73928 0.34501-1.525 0.96382-2.2068 0.95849-1.0561 8.4693-6.4317 9.2745-6.6379 1.0154-0.26 10.12-0.22139 10.996 0.04663 0.87673 0.26832 8.4604 5.7519 9.2468 6.6862 0.53888 0.6402 0.85652 1.4218 0.85825 2.1118 9.3e-4 0.33836 0.0251 0.34115 3.4191 0.39448 3.1021 0.048738 3.4964 0.085748 4.2632 0.4002 1.8295 0.7502 3.2697 2.3329 3.8442 4.2245 0.29811 0.98148 0.3038 1.5538 0.3038 30.556 0 32.26 0.048 30.479-0.86472 32.063-0.89753 1.5574-2.577 2.7848-4.3279 3.1629-1.2236 0.26422-43.758 0.22185-44.814-0.04465zm45.374-2.9763c0.85136-0.47954 1.5228-1.3014 1.8426-2.2554 0.2387-0.71215 0.2556-58.857 0.0174-59.73-0.2432-0.89049-1.0542-1.853-1.9721-2.3407l-0.82129-0.4363h-6.3551l-0.53044 0.80861c-0.36651 0.55871-0.79159 0.95704-1.3754 1.2889l-0.84496 0.48027-12.491 0.04262c-8.0618 0.02751-12.696-0.01333-13.068-0.11516-0.88328-0.24186-1.896-1.0021-2.3869-1.792l-0.44331-0.7132h-6.3728l-0.8213 0.4363c-0.91794 0.48765-1.7289 1.4502-1.9721 2.3407-0.10687 0.39129-0.1592 10.181-0.15978 29.886-9.3e-4 32.514-0.0774 30.155 1.0148 31.299 0.53897 0.56434 1.1919 0.97517 1.9024 1.1969 0.21179 0.06611 10.202 0.10817 22.201 0.09348l21.815-0.02671zm-42.544-3.8762c-0.2851-0.19538-0.67555-0.59244-0.86769-0.88235-0.34877-0.5263-0.34932-0.53686-0.34932-6.73 0-6.1978 3.1e-4 -6.2033 0.35022-6.7314 0.19261-0.29066 0.6247-0.68656 0.96018-0.87978 0.58579-0.33739 0.75801-0.35142 4.3425-0.35389l3.7325-0.0026 0.37709 0.38347c0.51305 0.52172 0.51305 1.3672 0 1.8889l-0.37709 0.38347h-6.9273v10.623h10.6v-1.5412c0-1.3226 0.0451-1.5996 0.31841-1.9528 0.62296-0.80536 1.9722-0.4416 2.2295 0.60108 0.0537 0.21767 0.0721 1.151 0.0408 2.074-0.066 1.9461-0.32435 2.5519-1.3346 3.1293-0.59517 0.34016-0.69809 0.34556-6.591 0.34556-5.9722 0-5.9876-7.81e-4 -6.5047-0.35523zm24.362-1.075c-0.7944-0.44185-0.9458-1.4498-0.31425-2.092l0.37709-0.38347h7.5558l0.37709 0.38347c0.63391 0.64463 0.469 1.6511-0.34255 2.0907-0.4486 0.24297-7.2166 0.24416-7.6532 0.0014zm-19.841-5.3257c-0.80742-0.79432-1.5692-1.6431-1.6928-1.8861-0.42619-0.83812 0.0323-1.725 0.99264-1.9204 0.44654-0.09082 0.58102-0.0056 1.6419 1.0404l1.1555 1.1394 0.34523-0.31438c2.5596-2.3308 8.18-7.0955 8.4514-7.1648 0.9097-0.23218 1.8407 0.80047 1.5126 1.6778-0.0961 0.2571-2.0498 2.0712-5.0046 4.647-4.3641 3.8044-4.9011 4.2253-5.3904 4.2253-0.47715 0-0.72264-0.17625-2.0115-1.4442zm20.071 0.08647c-0.92976-0.35529-1.2399-1.5647-0.56622-2.2082 0.35446-0.33862 0.37785-0.33969 7.434-0.33969 7.9178 0 7.6443-0.03864 7.8243 1.1053 0.0708 0.44994 0.0128 0.64737-0.29853 1.0155l-0.38642 0.45695-6.8884 0.02912c-3.7886 0.01602-6.992-0.01051-7.1188-0.05894zm-0.58774-5.7216c-0.45775-0.49549-0.44752-1.3503 0.0215-1.7984 0.35449-0.33865 0.37721-0.33969 7.458-0.33969h7.1025l0.37709 0.38347c0.2377 0.24172 0.37709 0.56196 0.37709 0.86635s-0.13939 0.62463-0.37709 0.86635l-0.37709 0.38347h-14.248zm-23.778-6.4977c-0.34634-0.15995-0.79572-0.5275-0.9986-0.81676l-0.36887-0.52594-0.0435-6.2187c-0.0428-6.1158-0.0381-6.2285 0.28696-6.8165 0.18174-0.32884 0.59096-0.74678 0.90936-0.92876 0.54666-0.31243 0.79249-0.33087 4.4104-0.33087 3.8064 0 3.8337 0.0024 4.1655 0.36158 0.45624 0.49386 0.44751 1.3503-0.0183 1.7953-0.33617 0.32115-0.51081 0.33855-3.8024 0.37875l-3.45 0.04213v10.623l10.524 0.08222 5e-3 -1.6034c5e-3 -1.6653 0.0923-1.9438 0.71476-2.2809 0.54103-0.29302 0.96369-0.2125 1.443 0.27492 0.44398 0.45149 0.44903 0.47673 0.4457 2.2262-5e-3 2.4213-0.36651 3.2171-1.7257 3.7946-0.47471 0.2017-1.4732 0.23975-6.2164 0.23687-5.1784-0.0031-5.7035-0.02774-6.2806-0.29425zm23.821-1.4918c-0.69488-0.70663-0.35769-1.9583 0.59291-2.201 0.19085-0.04871 1.9119-0.06713 3.8245-0.04095 3.439 0.04709 3.4819 0.05181 3.8736 0.42636 0.52815 0.50498 0.53637 1.2895 0.0191 1.8155l-0.37709 0.38347h-7.5558zm-17.891-3.6303c-0.47303-0.1713-3.3691-3.2359-3.4613-3.6628-0.17303-0.80116 0.43575-1.5277 1.287-1.5359 0.42822-0.0041 0.68992 0.1675 1.5645 1.0261 0.71042 0.69744 1.1157 0.99064 1.2525 0.90607 0.17674-0.10928 7.1483-6.1423 8.08-6.9922 0.52474-0.47871 1.3652-0.42731 1.8209 0.11136 0.491 0.58047 0.46989 1.2319-0.0583 1.7995-0.69569 0.7476-9.0984 8.0034-9.5395 8.2374-0.4309 0.22862-0.57327 0.24523-0.9458 0.11033zm17.891-1.6814c-0.3711-0.37737-0.48674-1.0189-0.28166-1.5624 0.25602-0.67848 0.6035-0.71002 7.8207-0.71002h6.856l0.44907 0.45667c0.47931 0.48742 0.5585 0.91722 0.27035 1.4674-0.38273 0.73076-0.28574 0.7216-7.7018 0.72684l-7.0356 5e-3zm0-5.3117c-0.46436-0.47222-0.5022-1.2995-0.0835-1.8255l0.2936-0.36882 14.176-0.08722 0.45355 0.46122c0.58733 0.59726 0.58876 1.1529 5e-3 1.7471l-0.44908 0.45666h-14.018zm-24.048-6.6895c-0.2851-0.19538-0.67555-0.59244-0.86769-0.88236-0.34877-0.5263-0.34932-0.53686-0.34932-6.73 0-6.1783 9.8e-4 -6.205 0.34691-6.7337 0.1908-0.29196 0.65481-0.68902 1.0312-0.88235 0.65256-0.33524 0.85379-0.35151 4.3458-0.35151h3.6615l0.37709 0.38347c0.46426 0.4721 0.50219 1.2994 0.0837 1.8255-0.28923 0.36358-0.3432 0.36993-3.8023 0.44693l-3.509 0.07811-0.0808 10.545h10.605v-1.5694c0-1.4579 0.0267-1.5966 0.37709-1.9528 0.23072-0.23462 0.55383-0.38347 0.83241-0.38347 1.1525 0 1.4022 0.49506 1.4022 2.7798 0 1.4794-0.0466 1.7916-0.35719 2.3902-0.22268 0.42924-0.58427 0.81994-0.96019 1.0375-0.59543 0.34457-0.67831 0.34898-6.6103 0.35151-5.996 0.0026-6.0082 0.0019-6.5256-0.35266zm24.362-1.075c-0.7944-0.44185-0.9458-1.4498-0.31425-2.092l0.37709-0.38347h7.5558l0.37709 0.38347c0.63391 0.64463 0.469 1.6511-0.34255 2.0907-0.4486 0.24297-7.2166 0.24416-7.6532 0.0014zm-19.841-5.3257c-0.80742-0.79432-1.5692-1.6431-1.6928-1.8861-0.45334-0.8915 0.13341-1.8876 1.1119-1.8876 0.4541 0 0.69214 0.15994 1.597 1.0731l1.0634 1.0731 0.88524-0.76841c0.48689-0.42262 2.4381-2.1217 4.336-3.7758 3.0053-2.6191 3.5177-3.0074 3.9695-3.0074 1.0194 0 1.6143 1.1535 1.0313 1.9998-0.1904 0.27642-6.7522 6.0843-9.2577 8.1941-0.34008 0.28636-0.68789 0.42963-1.043 0.42963-0.46371 0-0.72324-0.18733-2.0009-1.4442zm19.841 0.0083c-0.78847-0.4664-0.93707-1.4529-0.31425-2.0863l0.37709-0.38348h7.057c7.8937 0 7.6228-0.03838 7.8027 1.1053 0.0708 0.44994 0.0128 0.64737-0.29853 1.0155l-0.38642 0.45695-6.9652 0.03686c-5.0755 0.02687-7.0485-0.01245-7.2724-0.14488zm0.30725-5.2374c-0.96736-0.23798-1.3453-1.5335-0.64303-2.2043 0.35449-0.33866 0.37722-0.3397 7.458-0.3397h7.1025l0.37709 0.38347c0.66299 0.6742 0.43336 1.6652-0.4753 2.0513-0.42336 0.17988-1.7318 0.21774-7.0162 0.20299-3.5727-0.01-6.6341-0.05214-6.8031-0.09371zm7.4401-12.146c0.55779-0.29332 0.62552-0.49512 0.62552-1.8641 0-1.0324-0.0364-1.1638-0.42249-1.5252-0.47094-0.44092-6.1579-4.6106-7.241-5.3091l-0.69271-0.44673h-4.6657c-3.2215 0-4.7696 0.05566-5.0013 0.1798-0.52345 0.28047-7.1981 5.1313-7.6714 5.5753-0.38985 0.36565-0.42248 0.48823-0.42248 1.587 0 1.2198 0.11635 1.5314 0.69133 1.8512 0.21482 0.11948 3.9264 0.17233 12.336 0.17565 10.263 4e-3 12.093-0.0288 12.464-0.22381zm-15.696-2.6719c-0.69935-0.38588-0.81478-1.4184-0.23029-2.0598 0.31224-0.34267 0.40012-0.35151 3.493-0.35151 3.0928 0 3.1807 0.00884 3.493 0.35151 0.59788 0.65614 0.46798 1.6837-0.26134 2.0672-0.64544 0.33941-5.8766 0.33348-6.4943-0.00736z" />
</svg>
