<svg class="h-16 w-16" fill="currentColor" stroke="none" viewBox="0 0 80 80" xmlns="http://www.w3.org/2000/svg">
<path d="m3.908 79.734c-0.91833-0.32543-1.709-1.0424-2.1718-1.9693l-0.40552-0.81217v-4.8707c0-5.2281 0.0976-6.2366 0.86121-8.8981 0.5278-1.8396 1.8394-4.5012 3.0619-6.2132 1.3483-1.8882 3.4523-3.9496 5.3149-5.2071l1.563-1.0553-1.0701-1.1049c-0.58856-0.60769-1.338-1.5092-1.6653-2.0033l-0.59523-0.89844h-1.7495c-0.96221 0-2.1675-0.0764-2.6784-0.16978-1.8077-0.33039-3.1583-1.385-3.9606-3.0927-0.41126-0.87538-0.41255-0.89034-0.41255-4.7877v-3.9095l0.51554-1.0452c0.31982-0.64838 0.7993-1.2996 1.263-1.7155 0.58758-0.52693 0.95143-1.0894 1.7011-2.6297 1.1409-2.3442 2.4265-4.1358 4.2559-5.9312 2.935-2.8803 6.7856-4.8991 10.94-5.7356 2.0573-0.4142 6.1658-0.3732 8.2853 0.08268 6.8327 1.4697 12.51 6.0811 15.232 12.372 0.38751 0.8956 0.70327 1.3478 1.3394 1.9182 0.50204 0.45016 1.0069 1.1012 1.2723 1.6406l0.43994 0.89431v8.125l-0.43373 0.88148c-0.53039 1.0779-1.5671 2.0597-2.7419 2.5964-0.79226 0.362-1.1239 0.41038-3.2561 0.47506l-2.374 0.07201-0.63145 0.95625c-0.3473 0.52594-1.0808 1.4241-1.6301 1.9959l-0.99864 1.0397 1.1797 0.7821c4.0472 2.6831 6.9796 6.5208 8.5407 11.177 0.9383 2.7989 1.0728 3.9653 1.0835 9.3986l0.01 4.8437-0.42513 0.8045c-0.50504 0.9557-1.3292 1.6753-2.2946 2.0036-1.023 0.34791-36.381 0.33852-37.364-0.0099zm8.0684-6.6384v-4.2308l0.47594-0.47501c0.40008-0.3993 0.55595-0.45904 0.97793-0.37481 0.2761 0.05511 0.64313 0.24096 0.81564 0.413 0.29619 0.29538 0.31624 0.55185 0.35987 4.6056l0.0462 4.2928h15.955l2e-3 -4.1016c2e-3 -4.4412 0.0474-4.7149 0.83574-5.0922 0.53055-0.2539 1.0799-0.13759 1.506 0.31884 0.30282 0.32441 0.31745 0.53663 0.31745 4.6075v4.2674h3.5328c2.2313 0 3.6492-0.0622 3.8489-0.16883 0.64402-0.344 0.75923-1.0232 0.75909-4.4746-1.5e-4 -3.7501-0.19618-6.175-0.63928-7.9077-1.2574-4.9167-4.3589-9.011-8.7977-11.614l-1.218-0.71414-1.1304 0.54411c-2.3826 1.1469-4.3436 1.5909-7.0012 1.5851-2.696-0.0059-4.6996-0.46028-6.9279-1.5712l-1.057-0.52702-0.89991 0.4567c-2.0966 1.064-4.5233 3.1597-6.1516 5.3127-1.5487 2.0477-2.9972 5.5029-3.4346 8.193-0.0862 0.53005-0.15726 3.0236-0.15791 5.5411l-1e-3 4.5774 0.38428 0.38352 0.38427 0.38352h7.2158zm13.933-21.531c2.2774-0.5826 4.3784-1.7721 6.0757-3.4401 1.1456-1.1257 2.0868-2.437 1.6536-2.3037-0.54333 0.1672-3.1655 0.54969-4.5211 0.65946l-1.3458 0.10898-0.29574 0.57859c-0.34974 0.6842-1.243 1.5032-2.0249 1.8564-0.80311 0.36286-4.8557 0.36286-5.6588 0-3.1382-1.4178-3.3226-5.6818-0.31172-7.2059 0.81122-0.41061 0.9502-0.42962 3.13-0.42816 2.0633 0.0014 2.3565 0.03655 3.0703 0.3683 0.78581 0.36521 1.521 1.0793 1.8474 1.7942 0.16828 0.36861 0.19785 0.37365 1.5811 0.26943 1.6167-0.12181 4.1522-0.58402 5.4104-0.98631l0.86106-0.2753 0.28332-1.0937c0.40319-1.5565 0.29688-5.0018-0.20234-6.5573-1.1765-3.6658-3.5696-6.5216-6.8129-8.1301-6.7567-3.351-14.749-0.65679-17.997 6.0671-0.93011 1.9254-1.187 2.9591-1.2905 5.1931-0.0666 1.438-0.0241 2.1979 0.17975 3.2031 1.1181 5.5163 5.54 9.7311 11.129 10.608 1.3167 0.20656 3.8546 0.06799 5.2385-0.28603zm-1.0038-5.3799c0.49341-0.57297 0.49076-1.2597-7e-3 -1.7562-0.36561-0.3649-0.47616-0.38352-2.2772-0.38352-1.801 0-1.9116 0.01862-2.2772 0.38352-0.64049 0.63924-0.40012 1.7631 0.4544 2.1246 0.18452 0.07806 1.0991 0.12574 2.0323 0.10597 1.6454-0.03486 1.7083-0.04925 2.0744-0.47436zm-17.517-2.4913c-0.99791-4.1771-0.99728-5.8632 4e-3 -10.098l0.0878-0.37116-1.4702 0.06829c-1.6831 0.07819-2.25 0.30594-2.9102 1.1691l-0.43863 0.5735-0.0475 3.4008c-0.0436 3.1168-0.0221 3.4506 0.25731 3.997 0.60815 1.1893 1.4586 1.5943 3.3701 1.6049 1.1991 0.0067 1.2293-0.0024 1.1476-0.3447zm33.272 0.18844c0.74629-0.20686 1.5151-0.85391 1.7874-1.5042 0.26643-0.6364 0.30466-6.6661 0.0466-7.3459-0.45137-1.189-1.5493-1.7596-3.3947-1.7646-0.71037-0.0019-1.2916 0.03759-1.2916 0.08772s0.15719 0.66537 0.34931 1.3672c0.29675 1.084 0.34975 1.6758 0.35225 3.9323 3e-3 2.2968-0.0447 2.8204-0.34931 3.8689-0.19374 0.66697-0.35225 1.2822-0.35225 1.3672 0 0.2046 2.106 0.19824 2.8523-0.0086zm-31.195-14.281c1.3332-2.0422 3.9227-4.2496 6.3112-5.3796 2.0261-0.95862 4.748-1.5801 6.9236-1.5808 2.0919-6.25e-4 5.1422 0.7273 7.045 1.6813 2.2872 1.1468 4.7408 3.2814 6.0419 5.2565l0.67813 1.0294h3.0877l-0.50582-0.89844c-4.4506-7.9051-13.809-11.609-22.222-8.796-3.7355 1.249-7.2341 3.816-9.3799 6.882-0.73304 1.0474-1.5749 2.5063-1.5749 2.7292 0 0.04583 0.661 0.08332 1.4689 0.08332h1.4689zm43.515 14.557c-0.86139-0.57935-0.92077-0.83534-0.92332-3.9797l-2e-3 -2.8516h-1.5568c-1.3915 0-1.5993-0.03733-1.9571-0.35156-0.22016-0.19336-0.44368-0.57726-0.49672-0.85311-0.0807-0.41937-0.0184-0.57939 0.37952-0.97656l0.47594-0.47501 2.1647 6.25e-4c3.4172 9.38e-4 3.652 0.26206 3.652 4.0625v2.3544l3.2824-2.8193c1.8053-1.5506 3.5412-2.9946 3.8575-3.2088l0.57505-0.38948h14.07l0.45762-0.45673 0.45762-0.45673v-30.204l-0.45794-0.45673-0.45762-0.45673h-7.0691v5.7902c0 3.8604-0.0603 6.0291-0.18084 6.5069-0.37277 1.4775-1.9843 2.5595-3.461 2.3238-0.33119-0.05285-1.598-0.59402-2.8153-1.2026l-2.2131-1.1065-2.3465 1.1488c-2.0745 1.0156-2.449 1.1488-3.231 1.1488-1.165 0-2.2394-0.63172-2.7656-1.6261-0.36364-0.68718-0.36441-0.70161-0.36441-6.8359v-6.1473h-3.5834c-3.2944 0-3.6132 0.02408-3.953 0.29858l-0.3696 0.29858-0.1564 18.649-0.43926 0.37699c-0.57404 0.49266-1.262 0.49011-1.7596-0.0065l-0.38428-0.38353v-18.859l0.40552-0.81217c0.22304-0.4467 0.66112-1.0224 0.97352-1.2795 1.2016-0.98851 0.39208-0.94838 18.2-0.90228 15.448 0.039993 16.219 0.055322 16.742 0.33285 0.76488 0.40611 1.5324 1.1598 1.9315 1.8966l0.33853 0.625v31.562l-0.33853 0.625c-0.39908 0.73678-1.1666 1.4905-1.9315 1.8966-0.50412 0.26766-1.1115 0.29718-7.593 0.36905l-7.045 0.07813-3.8876 3.3363c-2.1382 1.8349-4.0756 3.4341-4.3053 3.5537-0.61114 0.31823-1.3168 0.26789-1.9186-0.13686zm4.7424-30.674c3.0321-1.5024 3.0279-1.5025 6.265 0.10838 1.9504 0.97057 2.3238 1.1079 2.5352 0.93278 0.21818-0.18072 0.24799-0.90732 0.24799-6.0456v-5.8402h-12.055v5.9245c0 5.926 9e-3 6.0394 0.50168 6.0944 0.0606 0.0068 1.1879-0.5216 2.5049-1.1742zm8.1403 16.807c-0.68837-0.64007-0.54611-1.7193 0.2817-2.1372 0.52412-0.26459 5.9765-0.2818 6.4682-0.02042 0.82701 0.43961 0.99505 1.4462 0.34907 2.091-0.38283 0.38208-0.39628 0.38352-3.5713 0.38352-2.9851 0-3.2086-0.02007-3.5277-0.31682z" />
</svg>
