<svg class="h-16 w-16" fill="currentColor" stroke="none" viewBox="0 0 80 80" xmlns="http://www.w3.org/2000/svg">
<path d="m38.6 79.906c-3.6947-0.32649-8.6558-2.0433-14.347-4.9647-1.5099-0.77508-2.5281-1.2011-2.8707-1.2011-0.41093 0-1.4611 0.59638-4.6459 2.6384-3.9293 2.5194-4.1524 2.6387-4.9448 2.646-0.68089 6e-3 -0.90009-0.0655-1.2207-0.39949-0.21495-0.22389-2.6814-4.8113-5.481-10.194-4.0397-7.7674-5.0902-9.9113-5.0902-10.389 0-1.2365 0.17499-1.3806 4.2478-3.4993 2.586-1.3453 4.2415-2.322 5.2488-3.0967 3.4553-2.6576 7.512-4.62 11.302-5.4672 1.65-0.36888 5.5539-0.50627 7.103-0.24997 1.9113 0.31622 3.4219 0.76814 5.1012 1.5261 1.8868 0.85163 2.7822 1.4646 4.2334 2.8981 0.69156 0.6831 1.4471 1.2512 1.9846 1.4921 1.8637 0.8354 4.6752 1.3921 9.1598 1.8137 3.537 0.3325 4.9401 0.73856 6.3464 1.8366 1.063 0.82998 1.6345 2.9137 1.1544 4.2088-0.0898 0.24214-0.13711 0.46703-0.1052 0.49975 0.0319 0.03272 0.55187-0.29435 1.1555-0.72683 3.8035-2.7251 13.421-8.3418 14.989-8.7535 2.5095-0.6589 5.36 0.39958 6.9168 2.5684 0.96405 1.3431 1.2337 2.2868 1.1479 4.0164-0.11496 2.3156-0.7627 3.2915-4.3334 6.5287-4.7174 4.2769-9.7791 7.8227-15.002 10.509-6.0745 3.1245-13.207 5.3219-18.498 5.6987-0.78589 0.056-1.5718 0.12216-1.7464 0.14707-0.17464 0.0249-0.98705-0.0138-1.8053-0.0862zm3.6824-3.9722c10.99-1.327 23.296-7.661 32.388-16.67 1.2584-1.247 1.5362-1.7149 1.5362-2.5883 0-1.7715-2.3404-3.0553-3.9753-2.1806-2.0852 1.1157-6.4727 3.7649-10.387 6.2717-2.5289 1.6196-5.2231 3.2212-5.9871 3.559-4.3558 1.926-11.412 2.8184-17.755 2.2455-2.7901-0.25201-5.0709-0.94396-5.7687-1.7501-0.7156-0.82673-0.41884-2.3828 0.5527-2.898 0.59056-0.31321 1.0832-0.26438 3.2216 0.31932 4.8458 1.3227 10.599 0.53298 14.25-1.956 1.0157-0.69254 1.8748-1.5921 1.8748-1.9632 0-0.37836-1.5613-0.77416-3.731-0.94584-5.4214-0.42898-9.6815-1.3867-11.828-2.659-0.39295-0.23292-1.3029-0.99833-2.022-1.7009-2.2362-2.1846-5.104-3.3246-8.774-3.4878-4.018-0.1787-8.1424 1.0871-12.304 3.7763-0.78589 0.5078-1.4565 0.95136-1.4903 0.98568-0.0338 0.03433 1.7822 3.5768 4.0354 7.8722l4.0969 7.8098 0.74028-0.08993c1.1964-0.14532 2.2012 0.18317 5.2746 1.7244 5.1184 2.5666 9.0279 3.9814 12.132 4.3902 1.5771 0.20773 1.6834 0.20599 3.9197-0.06404zm-27.735-2.7736c1.0763-0.67721 1.9945-1.2937 2.0405-1.37 0.0709-0.11762-7.524-14.64-7.8666-15.042-0.13801-0.16193-4.3093 1.9953-4.2421 2.1938 0.10311 0.30472 7.9887 15.438 8.0473 15.444 0.0352 0.0034 0.94467-0.54785 2.021-1.2251zm32.091-29.613c-1.5033-0.55025-2.1359-1.3731-2.6534-3.451-0.15761-0.63281-0.22255-0.69076-1.1588-1.0341-0.54552-0.20006-1.5956-0.6895-2.3335-1.0876l-1.3416-0.72389-0.9523 0.43831c-1.1809 0.54351-2.0946 0.65839-3.0722 0.38628-0.61144-0.17019-0.98509-0.45307-1.9744-1.4948-2.3693-2.4949-2.66-4.2825-1.0665-6.5582l0.50299-0.71833-0.78966-2.191-0.99353-0.27892c-1.3815-0.38784-2.214-1.0237-2.744-2.0956-0.40331-0.81572-0.4366-1.0302-0.4366-2.813 0-3.1204 0.77147-4.3101 3.2007-4.936l1.013-0.26098 0.86586-2.5749-0.62674-0.99453c-0.9574-1.5192-1.0379-2.9213-0.24717-4.307 0.65834-1.1538 2.6226-3.0905 3.3541-3.3073 1.1386-0.3373 2.1403-0.24488 3.1742 0.29283 0.5144 0.26754 1.0119 0.48736 1.1055 0.48849 0.0936 0.0011 0.58997-0.23108 1.103-0.51604 0.51298-0.28496 1.4366-0.71766 2.0524-0.96155 1.0703-0.42387 1.1287-0.47468 1.3215-1.1509 0.68351-2.3971 1.8102-3.4403 3.9364-3.6446 3.1727-0.30492 5.1003 0.6988 5.7058 2.9711 0.13821 0.51866 0.30181 1.0401 0.36357 1.1587 0.0618 0.11865 0.62364 0.41972 1.2486 0.66904 0.625 0.24932 1.6611 0.74871 2.3025 1.1097l1.1662 0.65642 0.95216-0.49724c0.73294-0.38276 1.1715-0.49994 1.9048-0.50898 1.4139-0.01744 2.2012 0.4442 3.5628 2.089 1.2908 1.5593 1.5971 2.2017 1.5971 3.3494 0 0.94391-0.24537 1.6325-0.96288 2.702l-0.50425 0.75168 0.74 2.2293 0.80017 0.19297c1.5676 0.37804 2.582 1.1408 3.1215 2.347 0.4392 0.98193 0.41895 4.2705-0.0326 5.292-0.57192 1.2938-1.2159 1.7987-2.9102 2.2818l-0.93895 0.2677-0.4605 1.2406-0.46049 1.2406 0.63828 1.0854c1.3338 2.2682 1.0573 3.6599-1.2047 6.0627-1.0836 1.1511-1.3537 1.3494-2.1555 1.583-1.1025 0.32112-2.1154 0.15899-3.2437-0.51922l-0.71992-0.43271-0.96675 0.54508c-0.53171 0.2998-1.5347 0.77256-2.2288 1.0506l-1.262 0.50551-0.26315 0.97097c-0.4822 1.7792-1.1479 2.6032-2.5045 3.0997-0.78572 0.28757-3.7386 0.28798-4.5237 6.52e-4zm3.6157-5.0022c0.40623-1.8242 0.72424-2.2652 1.9028-2.6386 1.7956-0.56891 3.0162-1.113 4.2885-1.9114 1.6096-1.0101 1.9395-1.0171 3.6224-0.07663l1.2946 0.7234 0.6716-0.8177 0.67161-0.8177-0.87006-1.3103c-1.0457-1.5748-1.0761-1.9049-0.32896-3.5666 0.2976-0.6619 0.70071-1.7684 0.8958-2.4588 0.20547-0.72716 0.50544-1.4006 0.71296-1.6005 0.2102-0.20253 0.96079-0.50241 1.8163-0.72568 0.80195-0.20928 1.4729-0.40497 1.491-0.43488 0.0181-0.02991 6e-3 -0.50566-0.0265-1.0572l-0.0594-1.0029-1.3989-0.35451c-1.744-0.44195-2.0634-0.75449-2.6196-2.5626-0.22678-0.73733-0.58751-1.7265-0.80163-2.1982-0.66952-1.4749-0.58971-1.8208 0.91945-3.9841l0.47719-0.68403-1.3275-1.6261-1.4612 0.73291c-1.7336 0.86952-1.9192 0.85969-3.4479-0.18266-1.2482-0.85102-2.3414-1.3719-3.8945-1.8554-1.9389-0.60369-2.0166-0.68922-2.5304-2.7838l-0.33948-1.3841-2.0821-0.0953-0.34452 1.5291c-0.43453 1.9286-0.66014 2.1565-2.8463 2.8756-1.01 0.33222-2.1827 0.87496-3.052 1.4124-1.7511 1.0827-2.0946 1.1018-3.8185 0.21285-1.4169-0.73067-1.3791-0.73639-2.205 0.33315l-0.46339 0.60007 0.8663 1.2765c1.0594 1.5609 1.0928 1.964 0.30345 3.6534-0.30957 0.66251-0.70155 1.7179-0.87106 2.3452-0.41452 1.5342-0.8332 1.9583-2.2748 2.3047-0.6235 0.14981-1.2587 0.30722-1.4115 0.3498-0.22949 0.06395-0.27784 0.26747-0.27784 1.1696v1.0921l1.3892 0.31126c1.7444 0.39086 2.1021 0.72048 2.5827 2.3805 0.1924 0.6645 0.55627 1.6763 0.80858 2.2484 0.68094 1.544 0.62678 1.9879-0.42508 3.4838l-0.88385 1.257 0.31265 0.44754c0.17195 0.24614 0.49067 0.61788 0.70827 0.82609l0.39561 0.37855 1.2211-0.6635c1.6583-0.90109 2.0076-0.88026 3.7135 0.22142 1.3578 0.87685 2.552 1.4201 4.3819 1.9934 1.178 0.36903 1.4993 0.81345 1.9049 2.6346l0.29529 1.326h2.1188zm-2.863-8.6023c-3.8476-0.87399-6.4346-4.1169-6.4281-8.058 6e-3 -3.5994 2.3405-6.7955 5.7028-7.8071 1.2247-0.3685 3.378-0.33953 4.638 0.0624 4.0169 1.2813 6.3773 5.7653 5.2432 9.96-0.69597 2.5742-2.5892 4.6474-5.0408 5.5202-1.0579 0.3766-3.1539 0.54091-4.1151 0.32258zm3.3496-4.2045c2.7978-1.4639 3.0751-5.529 0.49844-7.306-1.4872-1.0257-3.1923-1.0257-4.6795 0-2.0236 1.3956-2.4018 4.3506-0.7963 6.2213 0.6132 0.71447 1.2016 1.1208 2.0237 1.3974 0.65594 0.22073 2.2584 0.05108 2.9537-0.31269z" />
</svg>
