<svg class="h-16 w-16" fill="currentColor" stroke="none" viewBox="0 0 80 80" xmlns="http://www.w3.org/2000/svg">
<path d="m4.0088 79.823c-1.8036-0.48715-3.5005-2.2677-3.8739-4.0649-0.11075-0.53308-0.15528-2.8131-0.12626-6.4649l0.0448-5.6414 0.39113-0.42339c0.81477-0.88198 0.30436-0.85209 14.55-0.85209 14.128 0 13.881-0.01351 14.444 0.78996 0.13647 0.1947 0.61092 1.2574 1.0543 2.3615l0.8062 2.0075h17.438l0.83126-2.1053c0.84574-2.1419 1.1453-2.5903 1.9288-2.8869 0.29923-0.11329 4.652-0.16675 13.577-0.16675 14.23 0 13.72-0.02988 14.535 0.8524l0.39112 0.4237v12.247l-0.45671 0.92948c-0.58166 1.1838-1.5848 2.1861-2.7198 2.7177l-0.89123 0.41744-35.593 0.02939c-28.434 0.02347-35.741-0.01071-36.331-0.16999zm71.205-4.073c0.75198-0.38857 0.80561-0.75302 0.76015-5.1663l-0.0419-4.0646h-22.362l-0.7416 1.7978c-0.98619 2.3907-1.1656 2.7115-1.6888 3.0204-0.4049 0.239-1.4032 0.2626-11.106 0.2626-11.52 0-11.307 0.01487-11.768-0.82236-0.10607-0.19257-0.5543-1.2295-0.99605-2.3043l-0.80319-1.9542h-22.345l-0.0419 4.0646c-0.0451 4.3772 0.0102 4.769 0.72837 5.159 0.62334 0.33852 69.751 0.3457 70.406 0.0073zm-37.01-13.596c-2.2269-0.53975-4.1631-2.132-5.1798-4.2597l-0.58511-1.2245-0.0782-5.2125-0.0782-5.2125-1.8397-0.74755-2.0923 1.258c-2.1075 1.2671-2.8062 1.5238-3.6039 1.3237-0.48253-0.12102-6.4979-5.9718-6.8708-6.6828-0.46513-0.88686-0.36918-1.1605 1.4134-4.0308l1.1271-1.8149-0.96278-2.3049-2.5678-0.65222c-2.2934-0.58252-2.6152-0.70527-3.0117-1.1487-0.41365-0.4626-0.4439-0.58683-0.4439-1.8228v-1.3264h-1.4776c-1.3363 0-1.5195 0.03607-1.9165 0.37722l-0.43896 0.37722-0.0782 11.237c-0.0734 10.546-0.0958 11.264-0.36418 11.673-0.30376 0.4631-1.1109 0.87883-1.7062 0.87883-0.58142 0-1.4035-0.53043-1.7147-1.1064-0.27485-0.50862-0.28706-1.0995-0.24677-11.947l0.0424-11.412 0.4505-0.97462c0.5237-1.133 1.6244-2.2435 2.7228-2.7469 0.58639-0.2688 1.1398-0.35485 2.6936-0.41886l1.9556-0.08056 0.0782-1.337c0.089-1.5213 0.36066-2.0911 1.1464-2.4047 0.27296-0.10893 1.4981-0.43183 2.7226-0.71756l2.2262-0.5195 0.1808-0.55912c0.0994-0.30752 0.31014-0.81634 0.46823-1.1307l0.28743-0.5716-1.3224-2.1462c-1.4761-2.3957-1.6435-2.8957-1.248-3.7286 0.1532-0.3226 1.612-1.851 3.4362-3.5999 2.6187-2.5108 3.2708-3.0582 3.7498-3.148 0.70374-0.13192 0.85829-0.066738 3.3809 1.4259 1.0805 0.6393 2.0309 1.162 2.1121 1.1615 0.0812-4.69e-4 0.64041-0.20019 1.2428-0.4438l1.0952-0.44293 0.63424-2.4413c0.3815-1.4684 0.75543-2.5751 0.93834-2.777 0.673-0.74315 0.8847-0.77274 5.5279-0.77274 2.5101 0 4.552 0.066024 4.7855 0.15474 0.85468 0.3247 1.1192 0.83671 1.7477 3.3831 0.67222 2.7235 0.46106 2.4476 2.3989 3.1353l0.72922 0.2588 2.1013-1.2594c2.2544-1.3512 2.8154-1.5588 3.5041-1.2972 0.62653 0.23802 6.5672 5.9904 6.8913 6.6729 0.40861 0.86043 0.22088 1.4341-1.2337 3.7698l-1.3249 2.1275 0.27918 0.55544c0.15355 0.30549 0.36209 0.81172 0.46342 1.125l0.18423 0.56953 2.3793 0.58587c3.4508 0.84973 3.5865 0.96109 3.7091 3.0432l0.0782 1.3288 1.9556 0.08056c1.5539 0.064 2.1073 0.15006 2.6936 0.41886 1.0983 0.50347 2.1991 1.614 2.7228 2.7469l0.4505 0.97462 0.0424 11.412c0.0403 10.848 0.0281 11.439-0.24676 11.947-0.31125 0.57598-1.1333 1.1064-1.7147 1.1064-0.59531 0-1.4024-0.41574-1.7062-0.87883-0.26835-0.40912-0.29077-1.1277-0.36418-11.673l-0.0782-11.237-0.43897-0.37722c-0.39699-0.34115-0.58026-0.37722-1.9165-0.37722h-1.4776v1.3311c0 1.2851-0.0176 1.3501-0.50846 1.8795-0.46908 0.50593-0.69996 0.59518-2.9806 1.1522-1.3597 0.33208-2.4952 0.62947-2.5234 0.66087-0.0282 0.0314-0.26118 0.5601-0.51778 1.1749l-0.46654 1.1178 1.166 1.8525c1.4728 2.3399 1.6601 2.7663 1.5285 3.4802-0.0854 0.46332-0.6391 1.1005-3.1808 3.6605-1.6926 1.7047-3.2675 3.1996-3.4998 3.3221-0.92961 0.48974-1.5687 0.31453-3.845-1.0541-1.1679-0.70219-2.1991-1.2757-2.2916-1.2745-0.0925 0.0013-0.53785 0.16232-0.9896 0.35797l-0.82137 0.35573v4.4075c0 2.4907-0.0737 4.8109-0.16956 5.3351-0.38362 2.0986-2.0277 4.3743-3.8687 5.3548-1.6724 0.89071-3.7029 1.168-5.4508 0.74433zm2.6833-4.0153c0.83895-0.21109 1.8483-1.047 2.3133-1.9156 0.34635-0.64711 0.34668-0.6564 0.42485-11.832 0.0887-12.681-0.0363-11.597 1.448-12.547 2.5291-1.6183 4.0128-4.7125 3.5718-7.4489-0.18427-1.1434-0.88644-2.7305-1.6158-3.6522l-0.50958-0.64397-0.0818 2.3397c-0.0581 1.6611-0.15028 2.4647-0.31776 2.7706-0.31713 0.57918-4.8861 4.2762-5.559 4.4981-0.395 0.13026-0.67246 0.1305-1.0654 9.37e-4 -0.66564-0.21951-5.2507-3.9315-5.5652-4.5055-0.16339-0.29821-0.25679-1.1196-0.31432-2.764l-0.0819-2.3397-0.50957 0.64397c-0.72941 0.92178-1.4316 2.5089-1.6158 3.6522-0.44103 2.7364 1.0427 5.8307 3.5718 7.4489 1.4853 0.95036 1.3593-0.1575 1.448 12.729l0.0782 11.367 0.46935 0.66298c0.56079 0.79214 1.0567 1.18 1.8865 1.4753 0.7597 0.27042 1.1451 0.28198 2.0246 0.06068zm16.752-17.951c-0.0278-0.04896-0.55603-0.91238-1.1738-1.9187-0.61778-1.0063-1.1632-2.076-1.2122-2.3772-0.0697-0.42946 0.0379-0.81016 0.49926-1.766 0.32349-0.67016 0.75464-1.7057 0.9581-2.3012 0.65728-1.9238 0.77525-2.0136 3.4989-2.6618 0.98955-0.2355 1.9224-0.46137 2.073-0.50193 0.2452-0.06604 0.27379-0.31693 0.27379-2.4022v-2.3284l-0.58669-0.1546c-0.32268-0.08504-1.3522-0.34483-2.2879-0.57733-1.032-0.25644-1.8441-0.5516-2.0645-0.75034-0.20176-0.18196-0.6191-1.0226-0.93877-1.8909-0.31654-0.85983-0.78522-1.9801-1.0415-2.4895-0.34846-0.69264-0.44423-1.06-0.37977-1.4569 0.0474-0.29191 0.61784-1.3967 1.2676-2.455 0.6498-1.0584 1.1815-1.9561 1.1815-1.9951 0-0.03893-0.76934-0.78696-1.7096-1.6623l-1.7096-1.5915-1.9932 1.2003c-2.3524 1.4167-2.717 1.4772-4.2416 0.70465-0.53407-0.27064-1.5197-0.67428-2.1903-0.89697-0.67061-0.22269-1.3843-0.51055-1.5859-0.63968-0.49154-0.31477-0.84023-1.1748-1.3695-3.378l-0.44223-1.8407-4.8357 0.085768-0.571 2.2345c-0.4297 1.6815-0.66653 2.3299-0.957 2.6202-0.21247 0.21231-1.0518 0.62062-1.8671 0.90826-0.81461 0.28741-1.8342 0.70157-2.2657 0.92036-0.75344 0.38202-1.1858 0.4845-1.8867 0.44712-0.17849-0.0095-1.2191-0.54845-2.3125-1.1976l-1.988-1.1803-1.7161 1.5975c-0.94386 0.87864-1.7161 1.613-1.7161 1.632 0 0.01895 0.56323 0.96459 1.2516 2.1014 0.80492 1.3293 1.2516 2.2296 1.2516 2.5226 0 0.25056-0.23756 0.92866-0.52792 1.5069s-0.7142 1.579-0.94186 2.2238c-0.22766 0.64487-0.49443 1.3301-0.59283 1.5227-0.25709 0.50321-1.1898 0.88887-3.3729 1.3947l-1.9154 0.44378-1e-3 2.3562-1e-3 2.3562 2.2294 0.52567c2.5855 0.60962 3.0082 0.89504 3.4718 2.3441 0.15129 0.47291 0.5933 1.5506 0.98224 2.3949 0.54373 1.1803 0.68776 1.6545 0.62324 2.0518-0.0462 0.2842-0.62431 1.3796-1.2848 2.4342l-1.2009 1.9175 1.6153 1.6196c0.88831 0.89077 1.6815 1.6196 1.7625 1.6196 0.081 0 0.99749-0.50147 2.0366-1.1144 2.1665-1.2778 2.693-1.4087 3.7637-0.93544 0.41082 0.18159 0.7732 0.33016 0.80529 0.33016 0.0321 0 0.0583-1.4754 0.0583-3.2787v-3.2787l-1.5333-1.5286c-1.1993-1.1956-1.673-1.801-2.1747-2.7792-1.979-3.8586-1.8786-7.8335 0.2888-11.433 1.5635-2.5967 5.5104-5.4457 7.125-5.143 0.70869 0.13285 1.418 0.77729 1.608 1.461 0.0881 0.31691 0.16368 2.1591 0.168 4.0937l8e-3 3.5175 1.0339 0.8283c0.56863 0.45556 1.1281 0.79216 1.2433 0.74799 0.11518-0.04417 0.63186-0.4169 1.1482-0.8283l0.93876-0.74799 2e-3 -3.5175c1e-3 -1.9346 0.0742-3.7768 0.16231-4.0937 0.19002-0.68366 0.89935-1.3281 1.608-1.461 1.4319-0.26842 4.9649 2.077 6.6011 4.3821 1.5456 2.1776 2.1747 4.1229 2.1738 6.7223-7.8e-4 2.0989-0.26962 3.2163-1.2602 5.2371-0.62941 1.284-0.93668 1.6922-2.2684 3.0137l-1.5404 1.5286v3.2787c0 1.8033 0.0482 3.2787 0.10705 3.2787 0.0589 0 0.41543-0.14917 0.79234-0.33149 0.97662-0.47242 1.4662-0.33922 3.7638 1.024l1.986 1.1783 1.6736-1.6671c0.9205-0.9169 1.6509-1.7072 1.623-1.7561zm14.263 19.147c-1.0562-0.36993-1.5239-1.0238-1.5239-2.1307 0-1.3472 1.094-2.2871 2.4804-2.1309 0.58227 0.06558 0.82528 0.1985 1.3077 0.71528 0.51512 0.55181 0.59244 0.73253 0.59194 1.3834-1e-3 1.6041-1.4087 2.6699-2.8561 2.1629zm-65.29-0.08063c-0.42546-0.17198-1.135-1.0211-1.2561-1.5031-0.32755-1.3041 0.82331-2.7227 2.2088-2.7227 0.60422 0 1.5282 0.53536 1.8371 1.0645 0.59278 1.0152 0.1878 2.5569-0.80668 3.0707-0.50389 0.26037-1.4556 0.30386-1.9831 0.09062z" />
</svg>
