<svg class="h-16 w-16" fill="currentColor" stroke="none" viewBox="0 0 80 80" xmlns="http://www.w3.org/2000/svg">
<path d="m20.546 79.807c-0.6038-0.30414-0.6989-0.8807-0.64633-3.9187 0.0648-3.7473-0.1053-3.5379 2.8743-3.5379h2.2297l0.49702-1.3428c0.27336-0.73856 1.0166-2.723 1.6517-4.4098 0.63508-1.6869 1.1547-3.1314 1.1547-3.21 0-0.08061-5.4706-0.1628-12.537-0.18835l-12.537-0.04533-0.80266-0.4411c-1.0203-0.56071-1.8737-1.5967-2.1691-2.6332-0.34811-1.2213-0.34811-55.784 0-57.005 0.29545-1.0365 1.1488-2.0725 2.1691-2.6332l0.80266-0.44111h73.582l0.80266 0.4411c0.44146 0.24261 1.0592 0.75336 1.3727 1.135 1.1016 1.3408 1.0352-0.69438 0.98991 30.334l-0.0408 27.989-0.41505 0.81384c-0.49149 0.96374-1.0477 1.5339-2.0064 2.0565-0.66707 0.36366-0.88282 0.38604-4.2203 0.43771-3.4039 0.0527-3.5311 0.04317-3.9447-0.29578-0.53149-0.43558-0.58691-1.2997-0.1149-1.7915 0.29216-0.3044 0.52075-0.32554 3.5201-0.32554 3.5985 0 4.0705-0.1034 4.5996-1.0075 0.31297-0.53483 0.31528-0.7423 0.31528-28.209 0-27.467-2e-3 -27.674-0.31528-28.209-0.63472-1.0847 2.2248-1.0075-37.334-1.0075-39.558 0-36.699-0.07717-37.334 1.0075-0.31297 0.53483-0.31529 0.74229-0.31529 28.209 0 27.467 2e-3 27.674 0.31529 28.209 0.63225 1.0805-1.6748 1.0075 31.861 1.0075 30.26 0 30.471 0.0022 30.781 0.32554 0.46518 0.48467 0.4166 1.3559-0.0992 1.7786-0.40155 0.32908-0.57184 0.33735-6.952 0.33735-3.8099 0-6.5403 0.06165-6.5403 0.14766 0 0.08122 0.51961 1.5278 1.1547 3.2147 0.63508 1.6869 1.3784 3.6713 1.6517 4.4098l0.49702 1.3428h2.2297c2.9796 0 2.8094-0.20941 2.8743 3.5379 0.0535 3.089-0.0399 3.6187-0.69217 3.9283-0.5285 0.25088-38.411 0.24153-38.91-0.0096zm37.287-3.6284v-1.3803l-22.211-0.08777-0.37699-0.45669c-0.46185-0.5595-0.47472-0.91625-0.0532-1.4746l0.32379-0.42887h8.5159c4.9034 0 8.4938-0.06138 8.4638-0.1447-0.0286-0.07959-0.79023-2.1289-1.6924-4.554l-1.6404-4.4093-18.278-0.001302-1.6404 4.4086c-0.9022 2.4247-1.6638 4.4743-1.6924 4.5546-0.0289 0.0809 0.75492 0.14602 1.7575 0.14602 1.6013 0 1.8456 0.03748 2.122 0.32554 0.33661 0.35071 0.40541 0.97978 0.15952 1.4585-0.29129 0.56711-1.0147 0.65753-5.2601 0.65753h-4.1166v2.7671h35.619zm-51.57-23.565c-0.29196-0.20215-0.68901-0.69376-0.88234-1.0925l-0.3515-0.72494 9.3e-4 -21.573c6.3e-4 -13.656 0.0573-21.785 0.1547-22.15 0.21834-0.81885 1.0771-1.6295 1.9021-1.7956 1.0544-0.21232 15.608-0.18578 16.201 0.02955 0.82685 0.30032 1.0834 1.3165 0.48868 1.9361-0.30203 0.31468-0.52074 0.32554-6.5614 0.32554-4.8969 0-6.2482 0.04402-6.2454 0.20346 7e-3 0.39999 0.93547 3.785 1.0506 3.8304 0.0646 0.02546 0.57444 0.25209 1.1329 0.50364l1.0155 0.45735 2.6885-1.4379c2.414-1.2911 2.733-1.4206 3.1245-1.2686 0.56027 0.2176 4.5044 4.3006 4.7492 4.9165 0.16798 0.42253 0.12342 0.5918-0.46283 1.7585l-0.64877 1.291h4.033l0.41909-0.74508c1.0394-1.8478 3.399-2.3872 5.1518-1.1776 1.8141 1.252 2.1615 3.9334 0.73795 5.696-0.95299 1.18-2.9424 1.6076-4.3262 0.92989-0.73941-0.36212-1.5655-1.2212-1.8047-1.8767l-0.1433-0.39269-2.6973 0.04454c-3.1553 0.05211-3.0613-0.02177-2.3334 1.8335l0.44646 1.1379 2.7545 0.89672c1.515 0.49319 2.877 1.0251 3.0266 1.1821 0.19102 0.2003 0.29055 0.62483 0.3339 1.4242l0.0618 1.1389h2.4038c1.8711 0 2.4038-0.04701 2.4038-0.21209 0-0.4706 0.97731-1.57 1.7542-1.9734 1.9185-0.99606 4.2235-0.12808 5.0336 1.8954 0.29827 0.74509 0.3143 2.2374 0.0316 2.9403-0.70621 1.7558-2.6497 2.7428-4.3973 2.233-0.82236-0.23989-1.9811-1.2369-2.2637-1.9478l-0.19635-0.49389h-4.805v0.90331c0 1.5473-0.18494 1.7421-2.3002 2.4234-1.0119 0.3259-2.2925 0.75447-2.8459 0.95238l-1.0061 0.35984-0.47184 1.189c-0.69354 1.7476-0.71644 1.7309 2.4501 1.7854 2.5236 0.04346 2.5909 0.03589 2.694-0.30284 0.1659-0.5446 1.1609-1.6031 1.8597-1.9786 0.86975-0.46722 2.2811-0.46446 3.1574 0.0061 1.2224 0.65654 2.0868 2.0862 2.0868 3.4514 0 1.364-0.86708 2.7995-2.0805 3.4445-0.87905 0.46724-2.3062 0.47302-3.1637 0.01281-0.69666-0.37391-1.6936-1.433-1.8586-1.9744-0.0991-0.32526-0.20794-0.34353-2.0469-0.34353-1.2222 0-1.9423 0.06185-1.9423 0.16683 0 0.09176 0.24605 0.67589 0.54678 1.2981s0.54678 1.2559 0.54678 1.4083c0 0.15239-1.0691 1.3994-2.3759 2.7711-1.8878 1.9817-2.462 2.494-2.7949 2.494-0.23046 0-1.5589-0.62913-2.9522-1.3981l-2.5332-1.3981-0.90139 0.42146c-0.49576 0.2318-0.978 0.42146-1.0716 0.42146-0.0936 0-0.23377 0.12818-0.31141 0.28484-0.13222 0.26682-0.9634 3.4379-0.9634 3.6755 0 0.05987 13.885 0.10886 30.855 0.10886h30.855l-0.0792-42.889-44.736-0.0825-0.32337-0.42832c-0.42112-0.55779-0.40813-0.91467 0.0537-1.474l0.37701-0.45669 21.768-0.0488c11.972-0.02684 22.214-2e-3 22.759 0.05533 0.84219 0.08846 1.0831 0.19036 1.5998 0.67672 0.36811 0.34649 0.67147 0.81697 0.76826 1.1915 0.10634 0.41147 0.14611 7.8928 0.11866 22.322-0.041 21.562-0.0434 21.707-0.36219 22.273-0.17649 0.31302-0.55597 0.73418-0.84328 0.93591l-0.52239 0.36678h-66.459zm2.9339-4.8175c0.36115-1.4642 0.7674-2.7897 0.90278-2.9455 0.13537-0.15586 0.54378-0.37526 0.90757-0.48755 0.36379-0.1123 1.181-0.45314 1.8161-0.75744 0.63504-0.30429 1.2602-0.55326 1.3893-0.55326 0.1291 0 1.3487 0.60428 2.7102 1.3428l2.4755 1.3428 2.8191-2.9358-1.2516-2.4831c-0.76113-1.51-1.2516-2.6755-1.2516-2.974 0-0.26998 0.15302-0.79924 0.34004-1.1761 0.18702-0.3769 0.52305-1.198 0.74672-1.8247 0.48973-1.3721 0.53028-1.3982 3.7998-2.4508l2.3089-0.74333-0.0436-2.0603-0.0437-2.0603-2.5704-0.84095c-1.4137-0.46252-2.6898-0.91866-2.8358-1.0136-0.14596-0.09498-0.38719-0.56108-0.53605-1.0358-0.14886-0.4747-0.47209-1.331-0.71829-1.9029-0.2462-0.5719-0.44764-1.222-0.44764-1.4446 0-0.22266 0.57133-1.5395 1.2696-2.9262l1.2696-2.5214-1.3976-1.4561-1.3976-1.4561-2.3702 1.3008c-1.3036 0.71546-2.5001 1.3438-2.659 1.3963-0.16573 0.0548-0.78207-0.13785-1.4465-0.45215-0.63675-0.3012-1.5214-0.67264-1.9659-0.82542-0.44448-0.15278-0.87914-0.3669-0.9659-0.47582-0.0868-0.10892-0.46849-1.4416-0.84829-2.9616l-0.69054-2.7636h-1.0614v8.9331l1.0155 0.1971c2.399 0.46564 4.4483 1.6041 6.2635 3.4795 2.4963 2.5791 3.7607 6.0235 3.5272 9.6081-0.35696 5.4783-4.0049 10.059-9.0736 11.394-0.67965 0.17898-1.3651 0.32541-1.5232 0.32541-0.27218 0-0.28746 0.2385-0.28746 4.4859v4.4859l1.1677-0.10104zm22.976-7.7702c0.74042-0.86336 0.15423-2.2473-0.95188-2.2473-1.5433 0-1.8706 2.1452-0.41508 2.7206 0.40395 0.15968 1.0016-0.04724 1.367-0.47332zm-23.498-1.1384c5.1175-1.3816 8.2781-6.8936 6.9816-12.175-0.86432-3.521-3.43-6.3219-6.7113-7.3267-0.46669-0.14291-1.0143-0.25983-1.2168-0.25983-0.362 0-0.36751 0.02406-0.32315 1.408l0.0451 1.408 0.79267 0.2688c4.1964 1.4231 6.1044 6.2266 4.0995 10.321-0.72338 1.4773-2.4293 2.9245-4.072 3.4544l-0.89829 0.28977v1.4352c0 0.93971 0.0596 1.4352 0.17273 1.4352 0.095 0 0.60348-0.11629 1.13-0.25843zm-0.22192-5.5944c0.83434-0.44348 1.821-1.6674 2.1329-2.6458 0.34135-1.0708 0.24114-2.7168-0.22305-3.6639-0.55434-1.1311-1.5681-2.0513-2.6391-2.3955l-0.3515-0.11297v4.5685c0 5.0924-0.0601 4.8561 1.0808 4.2497zm29.937-3.1734c0.85842-0.89438 0.32348-2.3733-0.85451-2.3624-0.61499 0.0057-0.95993 0.21702-1.2361 0.75727-0.29302 0.57321-0.2125 1.021 0.27491 1.5288 0.58266 0.60706 1.2782 0.63628 1.8157 0.07627zm-6.249-10.092c0.86026-0.89628 0.19683-2.3675-1.0676-2.3675-0.20791 0-0.56404 0.17962-0.79139 0.39915-0.88301 0.85262-0.29777 2.3679 0.91453 2.3679 0.38732 0 0.6797-0.12368 0.94444-0.39952zm12.106 18.762c-0.66345-0.74196-0.23659-1.8037 0.80537-2.0033 0.28405-0.0544 2.8467-0.07679 5.6947-0.04977 4.8357 0.04588 5.2 0.06964 5.5069 0.3592 0.42889 0.40466 0.43716 1.2859 0.0162 1.7245-0.30102 0.31363-0.52074 0.32554-6.0085 0.32554-5.6585 0-5.6982-0.0023-6.0146-0.35623zm15.466 0c-0.39492-0.44165-0.40927-1.1186-0.034-1.6015 0.23709-0.30506 0.48259-0.37939 1.4716-0.44552 1.4776-0.0988 2.2171 0.03908 2.6187 0.48826 0.39986 0.44718 0.39585 0.946-0.0119 1.4862-0.31438 0.4164-0.37325 0.42887-2.0248 0.42887-1.5487 0-1.7296-0.0319-2.0196-0.35623zm-15.373-5.1897c-0.5381-0.441-0.54999-1.161-0.0282-1.7046 0.37963-0.39553 0.41248-0.39952 3.2878-0.39952s2.9082 4e-3 3.2878 0.39952c0.21091 0.21974 0.38346 0.58929 0.38346 0.82124s-0.17255 0.6015-0.38346 0.82124c-0.37935 0.39525-0.41421 0.39952-3.2596 0.39952-2.6732 0-2.9052-0.02381-3.2878-0.33735zm10.085 0.0054c-0.49569-0.48115-0.46204-1.3365 0.0697-1.7723 0.40265-0.32999 0.5657-0.33735 7.4777-0.33735 6.912 0 7.075 0.0074 7.4777 0.33735 0.29855 0.24467 0.41163 0.48736 0.41163 0.88341s-0.11308 0.63873-0.41163 0.88341c-0.40279 0.3301-0.56489 0.33735-7.5474 0.33735-6.9653 0-7.144-0.0079-7.4777-0.33188zm-9.8223-5.037c-0.72356-0.31126-0.89345-1.3587-0.3126-1.9273 0.35502-0.34749 0.44848-0.35391 5.1554-0.35391 4.5855 0 4.8074 0.01415 5.1063 0.32554 0.42096 0.43859 0.4127 1.3199-0.0162 1.7245-0.30575 0.28851-0.65063 0.31243-4.9601 0.344-2.5473 0.01866-4.7851-0.03214-4.9728-0.1129zm-0.36172-5.5365c-0.67642-0.70476-0.22534-1.8354 0.81146-2.034 0.28405-0.0544 2.8467-0.0768 5.6947-0.04977 4.8357 0.04588 5.2 0.06964 5.5069 0.3592 0.42889 0.40466 0.43716 1.2859 0.0162 1.7245-0.30103 0.31364-0.52074 0.32554-6.0146 0.32554s-5.7136-0.0119-6.0146-0.32554zm15.466 0c-0.33661-0.35071-0.40541-0.97979-0.15952-1.4585 0.21943-0.42717 0.98673-0.65749 2.1904-0.65749 1.2963 0 1.9349 0.22064 2.1656 0.74822 0.24842 0.56806 0.22471 0.77337-0.14603 1.2644-0.3145 0.41657-0.37275 0.42887-2.0309 0.42887-1.4988 0-1.7452-0.03972-2.0196-0.32554zm-15.367-5.2204c-0.5381-0.441-0.54999-1.161-0.0282-1.7046 0.37963-0.39553 0.41248-0.39952 3.2878-0.39952s2.9082 4e-3 3.2878 0.39952c0.21091 0.21974 0.38346 0.58929 0.38346 0.82124 0 0.23194-0.17255 0.6015-0.38346 0.82124-0.37935 0.39525-0.41421 0.39952-3.2596 0.39952-2.6732 0-2.9052-0.02381-3.2878-0.33735zm10.055 0.01182c-0.46519-0.48467-0.4166-1.3559 0.0992-1.7786 0.40265-0.32999 0.5657-0.33735 7.4777-0.33735 6.912 0 7.075 0.0074 7.4777 0.33735 0.53807 0.44097 0.5612 1.2499 0.0501 1.7503-0.36046 0.35282-0.38377 0.35391-7.5769 0.35391-7.007 0-7.2243-0.0094-7.5277-0.32554zm-9.7928-5.0434c-0.72356-0.31126-0.89345-1.3587-0.3126-1.9273 0.35502-0.34749 0.44848-0.35391 5.1554-0.35391 4.5855 0 4.8074 0.01415 5.1063 0.32554 0.42096 0.43859 0.4127 1.3199-0.0162 1.7245-0.30575 0.28851-0.65063 0.31243-4.9601 0.34399-2.5473 0.01866-4.7851-0.03214-4.9728-0.11289z" />
</svg>
